<?xml version="1.0" encoding="utf-8" standalone="no"?>
<!DOCTYPE svg PUBLIC "-//W3C//DTD SVG 1.1//EN"
  "http://www.w3.org/Graphics/SVG/1.1/DTD/svg11.dtd">
<!-- Created with matplotlib (http://matplotlib.org/) -->
<svg height="576pt" version="1.1" viewBox="0 0 576 576" width="576pt" xmlns="http://www.w3.org/2000/svg" xmlns:xlink="http://www.w3.org/1999/xlink">
 <defs>
  <style type="text/css">
*{stroke-linecap:butt;stroke-linejoin:round;}
  </style>
 </defs>
 <g id="figure_1">
  <g id="patch_1">
   <path d="M 0 576 
L 576 576 
L 576 0 
L 0 0 
z
" style="fill:#ffffff;"/>
  </g>
  <g id="axes_1">
   <g id="LineCollection_1">
    <path clip-path="url(#pedd2b27d35)" d="M 356.251659 453.631056 
L 259.315852 418.223688 
" style="fill:none;stroke:#000000;stroke-opacity:0.4;"/>
    <path clip-path="url(#pedd2b27d35)" d="M 356.251659 453.631056 
L 399.7849 433.949073 
" style="fill:none;stroke:#000000;stroke-opacity:0.4;"/>
    <path clip-path="url(#pedd2b27d35)" d="M 399.7849 433.949073 
L 259.315852 418.223688 
" style="fill:none;stroke:#000000;stroke-opacity:0.4;"/>
   </g>
   <g id="PathCollection_1">
    <defs>
     <path d="M 0 4.472136 
C 1.186024 4.472136 2.323632 4.000923 3.162278 3.162278 
C 4.000923 2.323632 4.472136 1.186024 4.472136 0 
C 4.472136 -1.186024 4.000923 -2.323632 3.162278 -3.162278 
C 2.323632 -4.000923 1.186024 -4.472136 0 -4.472136 
C -1.186024 -4.472136 -2.323632 -4.000923 -3.162278 -3.162278 
C -4.000923 -2.323632 -4.472136 -1.186024 -4.472136 0 
C -4.472136 1.186024 -4.000923 2.323632 -3.162278 3.162278 
C -2.323632 4.000923 -1.186024 4.472136 0 4.472136 
z
" id="C0_0_f39c847b16"/>
    </defs>
    <g clip-path="url(#pedd2b27d35)">
     <use style="fill:#00ff80;stroke:#00ff80;" x="259.315852" xlink:href="#C0_0_f39c847b16" y="418.223688"/>
    </g>
    <g clip-path="url(#pedd2b27d35)">
     <use style="fill:#0000ff;stroke:#0000ff;" x="356.251659" xlink:href="#C0_0_f39c847b16" y="453.631056"/>
    </g>
    <g clip-path="url(#pedd2b27d35)">
     <use style="fill:#0000ff;stroke:#0000ff;" x="399.7849" xlink:href="#C0_0_f39c847b16" y="433.949073"/>
    </g>
   </g>
  </g>
 </g>
 <defs>
  <clipPath id="pedd2b27d35">
   <rect height="443.52" width="446.4" x="72" y="69.12"/>
  </clipPath>
 </defs>
</svg>
