<?xml version="1.0" encoding="utf-8" standalone="no"?>
<!DOCTYPE svg PUBLIC "-//W3C//DTD SVG 1.1//EN"
  "http://www.w3.org/Graphics/SVG/1.1/DTD/svg11.dtd">
<!-- Created with matplotlib (http://matplotlib.org/) -->
<svg height="576pt" version="1.1" viewBox="0 0 576 576" width="576pt" xmlns="http://www.w3.org/2000/svg" xmlns:xlink="http://www.w3.org/1999/xlink">
 <defs>
  <style type="text/css">
*{stroke-linecap:butt;stroke-linejoin:round;}
  </style>
 </defs>
 <g id="figure_1">
  <g id="patch_1">
   <path d="M 0 576 
L 576 576 
L 576 0 
L 0 0 
z
" style="fill:#ffffff;"/>
  </g>
  <g id="axes_1">
   <g id="LineCollection_1">
    <path clip-path="url(#pf62b475630)" d="M 340.627617 334.46969 
L 247.150127 165.285796 
" style="fill:none;stroke:#000000;stroke-opacity:0.4;"/>
    <path clip-path="url(#pf62b475630)" d="M 247.150127 165.285796 
L 397.199675 109.582658 
" style="fill:none;stroke:#000000;stroke-opacity:0.4;"/>
    <path clip-path="url(#pf62b475630)" d="M 247.150127 165.285796 
L 248.765356 136.01107 
" style="fill:none;stroke:#000000;stroke-opacity:0.4;"/>
    <path clip-path="url(#pf62b475630)" d="M 248.765356 136.01107 
L 397.199675 109.582658 
" style="fill:none;stroke:#000000;stroke-opacity:0.4;"/>
   </g>
   <g id="PathCollection_1">
    <defs>
     <path d="M 0 4.472136 
C 1.186024 4.472136 2.323632 4.000923 3.162278 3.162278 
C 4.000923 2.323632 4.472136 1.186024 4.472136 0 
C 4.472136 -1.186024 4.000923 -2.323632 3.162278 -3.162278 
C 2.323632 -4.000923 1.186024 -4.472136 0 -4.472136 
C -1.186024 -4.472136 -2.323632 -4.000923 -3.162278 -3.162278 
C -4.000923 -2.323632 -4.472136 -1.186024 -4.472136 0 
C -4.472136 1.186024 -4.000923 2.323632 -3.162278 3.162278 
C -2.323632 4.000923 -1.186024 4.472136 0 4.472136 
z
" id="C0_0_b81cdd3652"/>
    </defs>
    <g clip-path="url(#pf62b475630)">
     <use style="fill:#00ff80;stroke:#00ff80;stroke-width:0.3;" x="340.627617" xlink:href="#C0_0_b81cdd3652" y="334.46969"/>
    </g>
    <g clip-path="url(#pf62b475630)">
     <use style="fill:#007fc0;stroke:#007fc0;stroke-width:0.3;" x="247.150127" xlink:href="#C0_0_b81cdd3652" y="165.285796"/>
    </g>
    <g clip-path="url(#pf62b475630)">
     <use style="fill:#0000ff;stroke:#0000ff;stroke-width:0.3;" x="397.199675" xlink:href="#C0_0_b81cdd3652" y="109.582658"/>
    </g>
    <g clip-path="url(#pf62b475630)">
     <use style="fill:#0000ff;stroke:#0000ff;stroke-width:0.3;" x="248.765356" xlink:href="#C0_0_b81cdd3652" y="136.01107"/>
    </g>
   </g>
  </g>
 </g>
 <defs>
  <clipPath id="pf62b475630">
   <rect height="443.52" width="446.4" x="72" y="69.12"/>
  </clipPath>
 </defs>
</svg>
