<?xml version="1.0" encoding="utf-8" standalone="no"?>
<!DOCTYPE svg PUBLIC "-//W3C//DTD SVG 1.1//EN"
  "http://www.w3.org/Graphics/SVG/1.1/DTD/svg11.dtd">
<!-- Created with matplotlib (http://matplotlib.org/) -->
<svg height="576pt" version="1.1" viewBox="0 0 576 576" width="576pt" xmlns="http://www.w3.org/2000/svg" xmlns:xlink="http://www.w3.org/1999/xlink">
 <defs>
  <style type="text/css">
*{stroke-linecap:butt;stroke-linejoin:round;}
  </style>
 </defs>
 <g id="figure_1">
  <g id="patch_1">
   <path d="M 0 576 
L 576 576 
L 576 0 
L 0 0 
z
" style="fill:#ffffff;"/>
  </g>
  <g id="axes_1">
   <g id="LineCollection_1">
    <path clip-path="url(#pb915af081d)" d="M 313.421643 192.265676 
L 322.304355 126.447875 
" style="fill:none;stroke:#000000;stroke-opacity:0.4;"/>
    <path clip-path="url(#pb915af081d)" d="M 313.421643 192.265676 
L 346.936645 229.725239 
" style="fill:none;stroke:#000000;stroke-opacity:0.4;"/>
    <path clip-path="url(#pb915af081d)" d="M 313.421643 192.265676 
L 444.700046 220.384538 
" style="fill:none;stroke:#000000;stroke-opacity:0.4;"/>
    <path clip-path="url(#pb915af081d)" d="M 313.421643 192.265676 
L 164.316848 198.016813 
" style="fill:none;stroke:#000000;stroke-opacity:0.4;"/>
    <path clip-path="url(#pb915af081d)" d="M 313.421643 192.265676 
L 302.520278 349.998508 
" style="fill:none;stroke:#000000;stroke-opacity:0.4;"/>
    <path clip-path="url(#pb915af081d)" d="M 313.421643 192.265676 
L 250.470899 286.081445 
" style="fill:none;stroke:#000000;stroke-opacity:0.4;"/>
    <path clip-path="url(#pb915af081d)" d="M 313.421643 192.265676 
L 217.152151 167.646028 
" style="fill:none;stroke:#000000;stroke-opacity:0.4;"/>
    <path clip-path="url(#pb915af081d)" d="M 313.421643 192.265676 
L 287.7743 283.275366 
" style="fill:none;stroke:#000000;stroke-opacity:0.4;"/>
    <path clip-path="url(#pb915af081d)" d="M 313.421643 192.265676 
L 430.15634 147.066615 
" style="fill:none;stroke:#000000;stroke-opacity:0.4;"/>
    <path clip-path="url(#pb915af081d)" d="M 313.421643 192.265676 
L 321.449145 165.807574 
" style="fill:none;stroke:#000000;stroke-opacity:0.4;"/>
    <path clip-path="url(#pb915af081d)" d="M 313.421643 192.265676 
L 255.238731 272.667157 
" style="fill:none;stroke:#000000;stroke-opacity:0.4;"/>
    <path clip-path="url(#pb915af081d)" d="M 313.421643 192.265676 
L 450.046656 158.372533 
" style="fill:none;stroke:#000000;stroke-opacity:0.4;"/>
    <path clip-path="url(#pb915af081d)" d="M 313.421643 192.265676 
L 351.346773 258.869928 
" style="fill:none;stroke:#000000;stroke-opacity:0.4;"/>
    <path clip-path="url(#pb915af081d)" d="M 313.421643 192.265676 
L 461.934674 121.705716 
" style="fill:none;stroke:#000000;stroke-opacity:0.4;"/>
    <path clip-path="url(#pb915af081d)" d="M 313.421643 192.265676 
L 293.533284 287.866832 
" style="fill:none;stroke:#000000;stroke-opacity:0.4;"/>
    <path clip-path="url(#pb915af081d)" d="M 126.891488 149.249869 
L 164.316848 198.016813 
" style="fill:none;stroke:#000000;stroke-opacity:0.4;"/>
    <path clip-path="url(#pb915af081d)" d="M 126.891488 149.249869 
L 122.809024 166.188271 
" style="fill:none;stroke:#000000;stroke-opacity:0.4;"/>
    <path clip-path="url(#pb915af081d)" d="M 126.891488 149.249869 
L 217.152151 167.646028 
" style="fill:none;stroke:#000000;stroke-opacity:0.4;"/>
    <path clip-path="url(#pb915af081d)" d="M 126.891488 149.249869 
L 128.654428 166.228743 
" style="fill:none;stroke:#000000;stroke-opacity:0.4;"/>
    <path clip-path="url(#pb915af081d)" d="M 126.891488 149.249869 
L 118.749668 232.487236 
" style="fill:none;stroke:#000000;stroke-opacity:0.4;"/>
    <path clip-path="url(#pb915af081d)" d="M 293.533284 287.866832 
L 322.304355 126.447875 
" style="fill:none;stroke:#000000;stroke-opacity:0.4;"/>
    <path clip-path="url(#pb915af081d)" d="M 293.533284 287.866832 
L 410.068942 412.963704 
" style="fill:none;stroke:#000000;stroke-opacity:0.4;"/>
    <path clip-path="url(#pb915af081d)" d="M 293.533284 287.866832 
L 346.936645 229.725239 
" style="fill:none;stroke:#000000;stroke-opacity:0.4;"/>
    <path clip-path="url(#pb915af081d)" d="M 293.533284 287.866832 
L 444.700046 220.384538 
" style="fill:none;stroke:#000000;stroke-opacity:0.4;"/>
    <path clip-path="url(#pb915af081d)" d="M 293.533284 287.866832 
L 366.973725 400.348844 
" style="fill:none;stroke:#000000;stroke-opacity:0.4;"/>
    <path clip-path="url(#pb915af081d)" d="M 293.533284 287.866832 
L 164.316848 198.016813 
" style="fill:none;stroke:#000000;stroke-opacity:0.4;"/>
    <path clip-path="url(#pb915af081d)" d="M 293.533284 287.866832 
L 302.520278 349.998508 
" style="fill:none;stroke:#000000;stroke-opacity:0.4;"/>
    <path clip-path="url(#pb915af081d)" d="M 293.533284 287.866832 
L 250.470899 286.081445 
" style="fill:none;stroke:#000000;stroke-opacity:0.4;"/>
    <path clip-path="url(#pb915af081d)" d="M 293.533284 287.866832 
L 235.299404 441.571662 
" style="fill:none;stroke:#000000;stroke-opacity:0.4;"/>
    <path clip-path="url(#pb915af081d)" d="M 293.533284 287.866832 
L 158.197291 355.260883 
" style="fill:none;stroke:#000000;stroke-opacity:0.4;"/>
    <path clip-path="url(#pb915af081d)" d="M 293.533284 287.866832 
L 217.152151 167.646028 
" style="fill:none;stroke:#000000;stroke-opacity:0.4;"/>
    <path clip-path="url(#pb915af081d)" d="M 293.533284 287.866832 
L 287.7743 283.275366 
" style="fill:none;stroke:#000000;stroke-opacity:0.4;"/>
    <path clip-path="url(#pb915af081d)" d="M 293.533284 287.866832 
L 141.79449 359.651669 
" style="fill:none;stroke:#000000;stroke-opacity:0.4;"/>
    <path clip-path="url(#pb915af081d)" d="M 293.533284 287.866832 
L 321.449145 165.807574 
" style="fill:none;stroke:#000000;stroke-opacity:0.4;"/>
    <path clip-path="url(#pb915af081d)" d="M 293.533284 287.866832 
L 255.238731 272.667157 
" style="fill:none;stroke:#000000;stroke-opacity:0.4;"/>
    <path clip-path="url(#pb915af081d)" d="M 293.533284 287.866832 
L 351.346773 258.869928 
" style="fill:none;stroke:#000000;stroke-opacity:0.4;"/>
    <path clip-path="url(#pb915af081d)" d="M 461.934674 121.705716 
L 472.79191 104.720903 
" style="fill:none;stroke:#000000;stroke-opacity:0.4;"/>
    <path clip-path="url(#pb915af081d)" d="M 461.934674 121.705716 
L 322.304355 126.447875 
" style="fill:none;stroke:#000000;stroke-opacity:0.4;"/>
    <path clip-path="url(#pb915af081d)" d="M 461.934674 121.705716 
L 346.936645 229.725239 
" style="fill:none;stroke:#000000;stroke-opacity:0.4;"/>
    <path clip-path="url(#pb915af081d)" d="M 461.934674 121.705716 
L 444.700046 220.384538 
" style="fill:none;stroke:#000000;stroke-opacity:0.4;"/>
    <path clip-path="url(#pb915af081d)" d="M 461.934674 121.705716 
L 496.754674 228.564372 
" style="fill:none;stroke:#000000;stroke-opacity:0.4;"/>
    <path clip-path="url(#pb915af081d)" d="M 461.934674 121.705716 
L 430.15634 147.066615 
" style="fill:none;stroke:#000000;stroke-opacity:0.4;"/>
    <path clip-path="url(#pb915af081d)" d="M 461.934674 121.705716 
L 321.449145 165.807574 
" style="fill:none;stroke:#000000;stroke-opacity:0.4;"/>
    <path clip-path="url(#pb915af081d)" d="M 461.934674 121.705716 
L 450.046656 158.372533 
" style="fill:none;stroke:#000000;stroke-opacity:0.4;"/>
    <path clip-path="url(#pb915af081d)" d="M 118.749668 232.487236 
L 164.316848 198.016813 
" style="fill:none;stroke:#000000;stroke-opacity:0.4;"/>
    <path clip-path="url(#pb915af081d)" d="M 118.749668 232.487236 
L 250.470899 286.081445 
" style="fill:none;stroke:#000000;stroke-opacity:0.4;"/>
    <path clip-path="url(#pb915af081d)" d="M 118.749668 232.487236 
L 158.197291 355.260883 
" style="fill:none;stroke:#000000;stroke-opacity:0.4;"/>
    <path clip-path="url(#pb915af081d)" d="M 118.749668 232.487236 
L 122.809024 166.188271 
" style="fill:none;stroke:#000000;stroke-opacity:0.4;"/>
    <path clip-path="url(#pb915af081d)" d="M 118.749668 232.487236 
L 217.152151 167.646028 
" style="fill:none;stroke:#000000;stroke-opacity:0.4;"/>
    <path clip-path="url(#pb915af081d)" d="M 118.749668 232.487236 
L 141.79449 359.651669 
" style="fill:none;stroke:#000000;stroke-opacity:0.4;"/>
    <path clip-path="url(#pb915af081d)" d="M 118.749668 232.487236 
L 255.238731 272.667157 
" style="fill:none;stroke:#000000;stroke-opacity:0.4;"/>
    <path clip-path="url(#pb915af081d)" d="M 118.749668 232.487236 
L 128.654428 166.228743 
" style="fill:none;stroke:#000000;stroke-opacity:0.4;"/>
    <path clip-path="url(#pb915af081d)" d="M 128.654428 166.228743 
L 164.316848 198.016813 
" style="fill:none;stroke:#000000;stroke-opacity:0.4;"/>
    <path clip-path="url(#pb915af081d)" d="M 128.654428 166.228743 
L 250.470899 286.081445 
" style="fill:none;stroke:#000000;stroke-opacity:0.4;"/>
    <path clip-path="url(#pb915af081d)" d="M 128.654428 166.228743 
L 122.809024 166.188271 
" style="fill:none;stroke:#000000;stroke-opacity:0.4;"/>
    <path clip-path="url(#pb915af081d)" d="M 128.654428 166.228743 
L 217.152151 167.646028 
" style="fill:none;stroke:#000000;stroke-opacity:0.4;"/>
    <path clip-path="url(#pb915af081d)" d="M 128.654428 166.228743 
L 255.238731 272.667157 
" style="fill:none;stroke:#000000;stroke-opacity:0.4;"/>
    <path clip-path="url(#pb915af081d)" d="M 351.346773 258.869928 
L 322.304355 126.447875 
" style="fill:none;stroke:#000000;stroke-opacity:0.4;"/>
    <path clip-path="url(#pb915af081d)" d="M 351.346773 258.869928 
L 410.068942 412.963704 
" style="fill:none;stroke:#000000;stroke-opacity:0.4;"/>
    <path clip-path="url(#pb915af081d)" d="M 351.346773 258.869928 
L 346.936645 229.725239 
" style="fill:none;stroke:#000000;stroke-opacity:0.4;"/>
    <path clip-path="url(#pb915af081d)" d="M 351.346773 258.869928 
L 444.700046 220.384538 
" style="fill:none;stroke:#000000;stroke-opacity:0.4;"/>
    <path clip-path="url(#pb915af081d)" d="M 351.346773 258.869928 
L 366.973725 400.348844 
" style="fill:none;stroke:#000000;stroke-opacity:0.4;"/>
    <path clip-path="url(#pb915af081d)" d="M 351.346773 258.869928 
L 302.520278 349.998508 
" style="fill:none;stroke:#000000;stroke-opacity:0.4;"/>
    <path clip-path="url(#pb915af081d)" d="M 351.346773 258.869928 
L 250.470899 286.081445 
" style="fill:none;stroke:#000000;stroke-opacity:0.4;"/>
    <path clip-path="url(#pb915af081d)" d="M 351.346773 258.869928 
L 496.754674 228.564372 
" style="fill:none;stroke:#000000;stroke-opacity:0.4;"/>
    <path clip-path="url(#pb915af081d)" d="M 351.346773 258.869928 
L 217.152151 167.646028 
" style="fill:none;stroke:#000000;stroke-opacity:0.4;"/>
    <path clip-path="url(#pb915af081d)" d="M 351.346773 258.869928 
L 287.7743 283.275366 
" style="fill:none;stroke:#000000;stroke-opacity:0.4;"/>
    <path clip-path="url(#pb915af081d)" d="M 351.346773 258.869928 
L 430.15634 147.066615 
" style="fill:none;stroke:#000000;stroke-opacity:0.4;"/>
    <path clip-path="url(#pb915af081d)" d="M 351.346773 258.869928 
L 321.449145 165.807574 
" style="fill:none;stroke:#000000;stroke-opacity:0.4;"/>
    <path clip-path="url(#pb915af081d)" d="M 351.346773 258.869928 
L 255.238731 272.667157 
" style="fill:none;stroke:#000000;stroke-opacity:0.4;"/>
    <path clip-path="url(#pb915af081d)" d="M 351.346773 258.869928 
L 450.046656 158.372533 
" style="fill:none;stroke:#000000;stroke-opacity:0.4;"/>
    <path clip-path="url(#pb915af081d)" d="M 450.046656 158.372533 
L 472.79191 104.720903 
" style="fill:none;stroke:#000000;stroke-opacity:0.4;"/>
    <path clip-path="url(#pb915af081d)" d="M 450.046656 158.372533 
L 322.304355 126.447875 
" style="fill:none;stroke:#000000;stroke-opacity:0.4;"/>
    <path clip-path="url(#pb915af081d)" d="M 450.046656 158.372533 
L 346.936645 229.725239 
" style="fill:none;stroke:#000000;stroke-opacity:0.4;"/>
    <path clip-path="url(#pb915af081d)" d="M 450.046656 158.372533 
L 444.700046 220.384538 
" style="fill:none;stroke:#000000;stroke-opacity:0.4;"/>
    <path clip-path="url(#pb915af081d)" d="M 450.046656 158.372533 
L 496.754674 228.564372 
" style="fill:none;stroke:#000000;stroke-opacity:0.4;"/>
    <path clip-path="url(#pb915af081d)" d="M 450.046656 158.372533 
L 430.15634 147.066615 
" style="fill:none;stroke:#000000;stroke-opacity:0.4;"/>
    <path clip-path="url(#pb915af081d)" d="M 450.046656 158.372533 
L 321.449145 165.807574 
" style="fill:none;stroke:#000000;stroke-opacity:0.4;"/>
    <path clip-path="url(#pb915af081d)" d="M 255.238731 272.667157 
L 322.304355 126.447875 
" style="fill:none;stroke:#000000;stroke-opacity:0.4;"/>
    <path clip-path="url(#pb915af081d)" d="M 255.238731 272.667157 
L 346.936645 229.725239 
" style="fill:none;stroke:#000000;stroke-opacity:0.4;"/>
    <path clip-path="url(#pb915af081d)" d="M 255.238731 272.667157 
L 366.973725 400.348844 
" style="fill:none;stroke:#000000;stroke-opacity:0.4;"/>
    <path clip-path="url(#pb915af081d)" d="M 255.238731 272.667157 
L 164.316848 198.016813 
" style="fill:none;stroke:#000000;stroke-opacity:0.4;"/>
    <path clip-path="url(#pb915af081d)" d="M 255.238731 272.667157 
L 302.520278 349.998508 
" style="fill:none;stroke:#000000;stroke-opacity:0.4;"/>
    <path clip-path="url(#pb915af081d)" d="M 255.238731 272.667157 
L 250.470899 286.081445 
" style="fill:none;stroke:#000000;stroke-opacity:0.4;"/>
    <path clip-path="url(#pb915af081d)" d="M 255.238731 272.667157 
L 235.299404 441.571662 
" style="fill:none;stroke:#000000;stroke-opacity:0.4;"/>
    <path clip-path="url(#pb915af081d)" d="M 255.238731 272.667157 
L 158.197291 355.260883 
" style="fill:none;stroke:#000000;stroke-opacity:0.4;"/>
    <path clip-path="url(#pb915af081d)" d="M 255.238731 272.667157 
L 122.809024 166.188271 
" style="fill:none;stroke:#000000;stroke-opacity:0.4;"/>
    <path clip-path="url(#pb915af081d)" d="M 255.238731 272.667157 
L 217.152151 167.646028 
" style="fill:none;stroke:#000000;stroke-opacity:0.4;"/>
    <path clip-path="url(#pb915af081d)" d="M 255.238731 272.667157 
L 287.7743 283.275366 
" style="fill:none;stroke:#000000;stroke-opacity:0.4;"/>
    <path clip-path="url(#pb915af081d)" d="M 255.238731 272.667157 
L 141.79449 359.651669 
" style="fill:none;stroke:#000000;stroke-opacity:0.4;"/>
    <path clip-path="url(#pb915af081d)" d="M 255.238731 272.667157 
L 321.449145 165.807574 
" style="fill:none;stroke:#000000;stroke-opacity:0.4;"/>
    <path clip-path="url(#pb915af081d)" d="M 346.706858 455.416785 
L 410.068942 412.963704 
" style="fill:none;stroke:#000000;stroke-opacity:0.4;"/>
    <path clip-path="url(#pb915af081d)" d="M 346.706858 455.416785 
L 366.973725 400.348844 
" style="fill:none;stroke:#000000;stroke-opacity:0.4;"/>
    <path clip-path="url(#pb915af081d)" d="M 346.706858 455.416785 
L 302.520278 349.998508 
" style="fill:none;stroke:#000000;stroke-opacity:0.4;"/>
    <path clip-path="url(#pb915af081d)" d="M 346.706858 455.416785 
L 364.428035 486.768924 
" style="fill:none;stroke:#000000;stroke-opacity:0.4;"/>
    <path clip-path="url(#pb915af081d)" d="M 346.706858 455.416785 
L 345.800192 458.778473 
" style="fill:none;stroke:#000000;stroke-opacity:0.4;"/>
    <path clip-path="url(#pb915af081d)" d="M 346.706858 455.416785 
L 235.299404 441.571662 
" style="fill:none;stroke:#000000;stroke-opacity:0.4;"/>
    <path clip-path="url(#pb915af081d)" d="M 321.449145 165.807574 
L 472.79191 104.720903 
" style="fill:none;stroke:#000000;stroke-opacity:0.4;"/>
    <path clip-path="url(#pb915af081d)" d="M 321.449145 165.807574 
L 322.304355 126.447875 
" style="fill:none;stroke:#000000;stroke-opacity:0.4;"/>
    <path clip-path="url(#pb915af081d)" d="M 321.449145 165.807574 
L 346.936645 229.725239 
" style="fill:none;stroke:#000000;stroke-opacity:0.4;"/>
    <path clip-path="url(#pb915af081d)" d="M 321.449145 165.807574 
L 444.700046 220.384538 
" style="fill:none;stroke:#000000;stroke-opacity:0.4;"/>
    <path clip-path="url(#pb915af081d)" d="M 321.449145 165.807574 
L 164.316848 198.016813 
" style="fill:none;stroke:#000000;stroke-opacity:0.4;"/>
    <path clip-path="url(#pb915af081d)" d="M 321.449145 165.807574 
L 250.470899 286.081445 
" style="fill:none;stroke:#000000;stroke-opacity:0.4;"/>
    <path clip-path="url(#pb915af081d)" d="M 321.449145 165.807574 
L 217.152151 167.646028 
" style="fill:none;stroke:#000000;stroke-opacity:0.4;"/>
    <path clip-path="url(#pb915af081d)" d="M 321.449145 165.807574 
L 287.7743 283.275366 
" style="fill:none;stroke:#000000;stroke-opacity:0.4;"/>
    <path clip-path="url(#pb915af081d)" d="M 321.449145 165.807574 
L 430.15634 147.066615 
" style="fill:none;stroke:#000000;stroke-opacity:0.4;"/>
    <path clip-path="url(#pb915af081d)" d="M 141.79449 359.651669 
L 164.316848 198.016813 
" style="fill:none;stroke:#000000;stroke-opacity:0.4;"/>
    <path clip-path="url(#pb915af081d)" d="M 141.79449 359.651669 
L 302.520278 349.998508 
" style="fill:none;stroke:#000000;stroke-opacity:0.4;"/>
    <path clip-path="url(#pb915af081d)" d="M 141.79449 359.651669 
L 250.470899 286.081445 
" style="fill:none;stroke:#000000;stroke-opacity:0.4;"/>
    <path clip-path="url(#pb915af081d)" d="M 141.79449 359.651669 
L 235.299404 441.571662 
" style="fill:none;stroke:#000000;stroke-opacity:0.4;"/>
    <path clip-path="url(#pb915af081d)" d="M 141.79449 359.651669 
L 158.197291 355.260883 
" style="fill:none;stroke:#000000;stroke-opacity:0.4;"/>
    <path clip-path="url(#pb915af081d)" d="M 141.79449 359.651669 
L 287.7743 283.275366 
" style="fill:none;stroke:#000000;stroke-opacity:0.4;"/>
    <path clip-path="url(#pb915af081d)" d="M 430.15634 147.066615 
L 472.79191 104.720903 
" style="fill:none;stroke:#000000;stroke-opacity:0.4;"/>
    <path clip-path="url(#pb915af081d)" d="M 430.15634 147.066615 
L 322.304355 126.447875 
" style="fill:none;stroke:#000000;stroke-opacity:0.4;"/>
    <path clip-path="url(#pb915af081d)" d="M 430.15634 147.066615 
L 346.936645 229.725239 
" style="fill:none;stroke:#000000;stroke-opacity:0.4;"/>
    <path clip-path="url(#pb915af081d)" d="M 430.15634 147.066615 
L 444.700046 220.384538 
" style="fill:none;stroke:#000000;stroke-opacity:0.4;"/>
    <path clip-path="url(#pb915af081d)" d="M 430.15634 147.066615 
L 496.754674 228.564372 
" style="fill:none;stroke:#000000;stroke-opacity:0.4;"/>
    <path clip-path="url(#pb915af081d)" d="M 287.7743 283.275366 
L 322.304355 126.447875 
" style="fill:none;stroke:#000000;stroke-opacity:0.4;"/>
    <path clip-path="url(#pb915af081d)" d="M 287.7743 283.275366 
L 346.936645 229.725239 
" style="fill:none;stroke:#000000;stroke-opacity:0.4;"/>
    <path clip-path="url(#pb915af081d)" d="M 287.7743 283.275366 
L 444.700046 220.384538 
" style="fill:none;stroke:#000000;stroke-opacity:0.4;"/>
    <path clip-path="url(#pb915af081d)" d="M 287.7743 283.275366 
L 366.973725 400.348844 
" style="fill:none;stroke:#000000;stroke-opacity:0.4;"/>
    <path clip-path="url(#pb915af081d)" d="M 287.7743 283.275366 
L 164.316848 198.016813 
" style="fill:none;stroke:#000000;stroke-opacity:0.4;"/>
    <path clip-path="url(#pb915af081d)" d="M 287.7743 283.275366 
L 302.520278 349.998508 
" style="fill:none;stroke:#000000;stroke-opacity:0.4;"/>
    <path clip-path="url(#pb915af081d)" d="M 287.7743 283.275366 
L 250.470899 286.081445 
" style="fill:none;stroke:#000000;stroke-opacity:0.4;"/>
    <path clip-path="url(#pb915af081d)" d="M 287.7743 283.275366 
L 235.299404 441.571662 
" style="fill:none;stroke:#000000;stroke-opacity:0.4;"/>
    <path clip-path="url(#pb915af081d)" d="M 287.7743 283.275366 
L 158.197291 355.260883 
" style="fill:none;stroke:#000000;stroke-opacity:0.4;"/>
    <path clip-path="url(#pb915af081d)" d="M 287.7743 283.275366 
L 217.152151 167.646028 
" style="fill:none;stroke:#000000;stroke-opacity:0.4;"/>
    <path clip-path="url(#pb915af081d)" d="M 217.152151 167.646028 
L 322.304355 126.447875 
" style="fill:none;stroke:#000000;stroke-opacity:0.4;"/>
    <path clip-path="url(#pb915af081d)" d="M 217.152151 167.646028 
L 346.936645 229.725239 
" style="fill:none;stroke:#000000;stroke-opacity:0.4;"/>
    <path clip-path="url(#pb915af081d)" d="M 217.152151 167.646028 
L 164.316848 198.016813 
" style="fill:none;stroke:#000000;stroke-opacity:0.4;"/>
    <path clip-path="url(#pb915af081d)" d="M 217.152151 167.646028 
L 250.470899 286.081445 
" style="fill:none;stroke:#000000;stroke-opacity:0.4;"/>
    <path clip-path="url(#pb915af081d)" d="M 217.152151 167.646028 
L 122.809024 166.188271 
" style="fill:none;stroke:#000000;stroke-opacity:0.4;"/>
    <path clip-path="url(#pb915af081d)" d="M 496.754674 228.564372 
L 472.79191 104.720903 
" style="fill:none;stroke:#000000;stroke-opacity:0.4;"/>
    <path clip-path="url(#pb915af081d)" d="M 496.754674 228.564372 
L 346.936645 229.725239 
" style="fill:none;stroke:#000000;stroke-opacity:0.4;"/>
    <path clip-path="url(#pb915af081d)" d="M 496.754674 228.564372 
L 444.700046 220.384538 
" style="fill:none;stroke:#000000;stroke-opacity:0.4;"/>
    <path clip-path="url(#pb915af081d)" d="M 122.809024 166.188271 
L 164.316848 198.016813 
" style="fill:none;stroke:#000000;stroke-opacity:0.4;"/>
    <path clip-path="url(#pb915af081d)" d="M 158.197291 355.260883 
L 164.316848 198.016813 
" style="fill:none;stroke:#000000;stroke-opacity:0.4;"/>
    <path clip-path="url(#pb915af081d)" d="M 158.197291 355.260883 
L 302.520278 349.998508 
" style="fill:none;stroke:#000000;stroke-opacity:0.4;"/>
    <path clip-path="url(#pb915af081d)" d="M 158.197291 355.260883 
L 250.470899 286.081445 
" style="fill:none;stroke:#000000;stroke-opacity:0.4;"/>
    <path clip-path="url(#pb915af081d)" d="M 158.197291 355.260883 
L 235.299404 441.571662 
" style="fill:none;stroke:#000000;stroke-opacity:0.4;"/>
    <path clip-path="url(#pb915af081d)" d="M 235.299404 441.571662 
L 366.973725 400.348844 
" style="fill:none;stroke:#000000;stroke-opacity:0.4;"/>
    <path clip-path="url(#pb915af081d)" d="M 235.299404 441.571662 
L 302.520278 349.998508 
" style="fill:none;stroke:#000000;stroke-opacity:0.4;"/>
    <path clip-path="url(#pb915af081d)" d="M 235.299404 441.571662 
L 364.428035 486.768924 
" style="fill:none;stroke:#000000;stroke-opacity:0.4;"/>
    <path clip-path="url(#pb915af081d)" d="M 235.299404 441.571662 
L 250.470899 286.081445 
" style="fill:none;stroke:#000000;stroke-opacity:0.4;"/>
    <path clip-path="url(#pb915af081d)" d="M 235.299404 441.571662 
L 345.800192 458.778473 
" style="fill:none;stroke:#000000;stroke-opacity:0.4;"/>
    <path clip-path="url(#pb915af081d)" d="M 345.800192 458.778473 
L 410.068942 412.963704 
" style="fill:none;stroke:#000000;stroke-opacity:0.4;"/>
    <path clip-path="url(#pb915af081d)" d="M 345.800192 458.778473 
L 366.973725 400.348844 
" style="fill:none;stroke:#000000;stroke-opacity:0.4;"/>
    <path clip-path="url(#pb915af081d)" d="M 345.800192 458.778473 
L 302.520278 349.998508 
" style="fill:none;stroke:#000000;stroke-opacity:0.4;"/>
    <path clip-path="url(#pb915af081d)" d="M 345.800192 458.778473 
L 364.428035 486.768924 
" style="fill:none;stroke:#000000;stroke-opacity:0.4;"/>
    <path clip-path="url(#pb915af081d)" d="M 250.470899 286.081445 
L 346.936645 229.725239 
" style="fill:none;stroke:#000000;stroke-opacity:0.4;"/>
    <path clip-path="url(#pb915af081d)" d="M 250.470899 286.081445 
L 366.973725 400.348844 
" style="fill:none;stroke:#000000;stroke-opacity:0.4;"/>
    <path clip-path="url(#pb915af081d)" d="M 250.470899 286.081445 
L 164.316848 198.016813 
" style="fill:none;stroke:#000000;stroke-opacity:0.4;"/>
    <path clip-path="url(#pb915af081d)" d="M 250.470899 286.081445 
L 302.520278 349.998508 
" style="fill:none;stroke:#000000;stroke-opacity:0.4;"/>
    <path clip-path="url(#pb915af081d)" d="M 364.428035 486.768924 
L 410.068942 412.963704 
" style="fill:none;stroke:#000000;stroke-opacity:0.4;"/>
    <path clip-path="url(#pb915af081d)" d="M 364.428035 486.768924 
L 366.973725 400.348844 
" style="fill:none;stroke:#000000;stroke-opacity:0.4;"/>
    <path clip-path="url(#pb915af081d)" d="M 364.428035 486.768924 
L 302.520278 349.998508 
" style="fill:none;stroke:#000000;stroke-opacity:0.4;"/>
    <path clip-path="url(#pb915af081d)" d="M 302.520278 349.998508 
L 410.068942 412.963704 
" style="fill:none;stroke:#000000;stroke-opacity:0.4;"/>
    <path clip-path="url(#pb915af081d)" d="M 302.520278 349.998508 
L 346.936645 229.725239 
" style="fill:none;stroke:#000000;stroke-opacity:0.4;"/>
    <path clip-path="url(#pb915af081d)" d="M 302.520278 349.998508 
L 366.973725 400.348844 
" style="fill:none;stroke:#000000;stroke-opacity:0.4;"/>
    <path clip-path="url(#pb915af081d)" d="M 164.316848 198.016813 
L 322.304355 126.447875 
" style="fill:none;stroke:#000000;stroke-opacity:0.4;"/>
    <path clip-path="url(#pb915af081d)" d="M 366.973725 400.348844 
L 410.068942 412.963704 
" style="fill:none;stroke:#000000;stroke-opacity:0.4;"/>
    <path clip-path="url(#pb915af081d)" d="M 366.973725 400.348844 
L 346.936645 229.725239 
" style="fill:none;stroke:#000000;stroke-opacity:0.4;"/>
    <path clip-path="url(#pb915af081d)" d="M 444.700046 220.384538 
L 472.79191 104.720903 
" style="fill:none;stroke:#000000;stroke-opacity:0.4;"/>
    <path clip-path="url(#pb915af081d)" d="M 444.700046 220.384538 
L 322.304355 126.447875 
" style="fill:none;stroke:#000000;stroke-opacity:0.4;"/>
    <path clip-path="url(#pb915af081d)" d="M 444.700046 220.384538 
L 346.936645 229.725239 
" style="fill:none;stroke:#000000;stroke-opacity:0.4;"/>
    <path clip-path="url(#pb915af081d)" d="M 346.936645 229.725239 
L 322.304355 126.447875 
" style="fill:none;stroke:#000000;stroke-opacity:0.4;"/>
    <path clip-path="url(#pb915af081d)" d="M 322.304355 126.447875 
L 472.79191 104.720903 
" style="fill:none;stroke:#000000;stroke-opacity:0.4;"/>
   </g>
   <g id="PathCollection_1">
    <defs>
     <path d="M 0 4.472136 
C 1.186024 4.472136 2.323632 4.000923 3.162278 3.162278 
C 4.000923 2.323632 4.472136 1.186024 4.472136 0 
C 4.472136 -1.186024 4.000923 -2.323632 3.162278 -3.162278 
C 2.323632 -4.000923 1.186024 -4.472136 0 -4.472136 
C -1.186024 -4.472136 -2.323632 -4.000923 -3.162278 -3.162278 
C -4.000923 -2.323632 -4.472136 -1.186024 -4.472136 0 
C -4.472136 1.186024 -4.000923 2.323632 -3.162278 3.162278 
C -2.323632 4.000923 -1.186024 4.472136 0 4.472136 
z
" id="C0_0_0c43d96b47"/>
    </defs>
    <g clip-path="url(#pb915af081d)">
     <use style="fill:#6daea1;stroke:#6daea1;stroke-width:0.3;" x="293.533284" xlink:href="#C0_0_0c43d96b47" y="287.866832"/>
    </g>
    <g clip-path="url(#pb915af081d)">
     <use style="fill:#578e9b;stroke:#578e9b;stroke-width:0.3;" x="322.304355" xlink:href="#C0_0_0c43d96b47" y="126.447875"/>
    </g>
    <g clip-path="url(#pb915af081d)">
     <use style="fill:#578e9b;stroke:#578e9b;stroke-width:0.3;" x="410.068942" xlink:href="#C0_0_0c43d96b47" y="412.963704"/>
    </g>
    <g clip-path="url(#pb915af081d)">
     <use style="fill:#578e9b;stroke:#578e9b;stroke-width:0.3;" x="346.936645" xlink:href="#C0_0_0c43d96b47" y="229.725239"/>
    </g>
    <g clip-path="url(#pb915af081d)">
     <use style="fill:#578e9b;stroke:#578e9b;stroke-width:0.3;" x="444.700046" xlink:href="#C0_0_0c43d96b47" y="220.384538"/>
    </g>
    <g clip-path="url(#pb915af081d)">
     <use style="fill:#578e9b;stroke:#578e9b;stroke-width:0.3;" x="366.973725" xlink:href="#C0_0_0c43d96b47" y="400.348844"/>
    </g>
    <g clip-path="url(#pb915af081d)">
     <use style="fill:#578e9b;stroke:#578e9b;stroke-width:0.3;" x="164.316848" xlink:href="#C0_0_0c43d96b47" y="198.016813"/>
    </g>
    <g clip-path="url(#pb915af081d)">
     <use style="fill:#578e9b;stroke:#578e9b;stroke-width:0.3;" x="302.520278" xlink:href="#C0_0_0c43d96b47" y="349.998508"/>
    </g>
    <g clip-path="url(#pb915af081d)">
     <use style="fill:#578e9b;stroke:#578e9b;stroke-width:0.3;" x="250.470899" xlink:href="#C0_0_0c43d96b47" y="286.081445"/>
    </g>
    <g clip-path="url(#pb915af081d)">
     <use style="fill:#578e9b;stroke:#578e9b;stroke-width:0.3;" x="235.299404" xlink:href="#C0_0_0c43d96b47" y="441.571662"/>
    </g>
    <g clip-path="url(#pb915af081d)">
     <use style="fill:#578e9b;stroke:#578e9b;stroke-width:0.3;" x="158.197291" xlink:href="#C0_0_0c43d96b47" y="355.260883"/>
    </g>
    <g clip-path="url(#pb915af081d)">
     <use style="fill:#578e9b;stroke:#578e9b;stroke-width:0.3;" x="217.152151" xlink:href="#C0_0_0c43d96b47" y="167.646028"/>
    </g>
    <g clip-path="url(#pb915af081d)">
     <use style="fill:#578e9b;stroke:#578e9b;stroke-width:0.3;" x="287.7743" xlink:href="#C0_0_0c43d96b47" y="283.275366"/>
    </g>
    <g clip-path="url(#pb915af081d)">
     <use style="fill:#578e9b;stroke:#578e9b;stroke-width:0.3;" x="141.79449" xlink:href="#C0_0_0c43d96b47" y="359.651669"/>
    </g>
    <g clip-path="url(#pb915af081d)">
     <use style="fill:#578e9b;stroke:#578e9b;stroke-width:0.3;" x="321.449145" xlink:href="#C0_0_0c43d96b47" y="165.807574"/>
    </g>
    <g clip-path="url(#pb915af081d)">
     <use style="fill:#578e9b;stroke:#578e9b;stroke-width:0.3;" x="255.238731" xlink:href="#C0_0_0c43d96b47" y="272.667157"/>
    </g>
    <g clip-path="url(#pb915af081d)">
     <use style="fill:#578e9b;stroke:#578e9b;stroke-width:0.3;" x="351.346773" xlink:href="#C0_0_0c43d96b47" y="258.869928"/>
    </g>
    <g clip-path="url(#pb915af081d)">
     <use style="fill:#578e9b;stroke:#578e9b;stroke-width:0.3;" x="313.421643" xlink:href="#C0_0_0c43d96b47" y="192.265676"/>
    </g>
    <g clip-path="url(#pb915af081d)">
     <use style="fill:#4b6c8e;stroke:#4b6c8e;stroke-width:0.3;" x="472.79191" xlink:href="#C0_0_0c43d96b47" y="104.720903"/>
    </g>
    <g clip-path="url(#pb915af081d)">
     <use style="fill:#4b6c8e;stroke:#4b6c8e;stroke-width:0.3;" x="461.934674" xlink:href="#C0_0_0c43d96b47" y="121.705716"/>
    </g>
    <g clip-path="url(#pb915af081d)">
     <use style="fill:#4b6c8e;stroke:#4b6c8e;stroke-width:0.3;" x="450.046656" xlink:href="#C0_0_0c43d96b47" y="158.372533"/>
    </g>
    <g clip-path="url(#pb915af081d)">
     <use style="fill:#4b6c8e;stroke:#4b6c8e;stroke-width:0.3;" x="430.15634" xlink:href="#C0_0_0c43d96b47" y="147.066615"/>
    </g>
    <g clip-path="url(#pb915af081d)">
     <use style="fill:#4b6c8e;stroke:#4b6c8e;stroke-width:0.3;" x="346.706858" xlink:href="#C0_0_0c43d96b47" y="455.416785"/>
    </g>
    <g clip-path="url(#pb915af081d)">
     <use style="fill:#4b6c8e;stroke:#4b6c8e;stroke-width:0.3;" x="345.800192" xlink:href="#C0_0_0c43d96b47" y="458.778473"/>
    </g>
    <g clip-path="url(#pb915af081d)">
     <use style="fill:#4b6c8e;stroke:#4b6c8e;stroke-width:0.3;" x="364.428035" xlink:href="#C0_0_0c43d96b47" y="486.768924"/>
    </g>
    <g clip-path="url(#pb915af081d)">
     <use style="fill:#4b6c8e;stroke:#4b6c8e;stroke-width:0.3;" x="496.754674" xlink:href="#C0_0_0c43d96b47" y="228.564372"/>
    </g>
    <g clip-path="url(#pb915af081d)">
     <use style="fill:#4b6c8e;stroke:#4b6c8e;stroke-width:0.3;" x="126.891488" xlink:href="#C0_0_0c43d96b47" y="149.249869"/>
    </g>
    <g clip-path="url(#pb915af081d)">
     <use style="fill:#4b6c8e;stroke:#4b6c8e;stroke-width:0.3;" x="118.749668" xlink:href="#C0_0_0c43d96b47" y="232.487236"/>
    </g>
    <g clip-path="url(#pb915af081d)">
     <use style="fill:#4b6c8e;stroke:#4b6c8e;stroke-width:0.3;" x="128.654428" xlink:href="#C0_0_0c43d96b47" y="166.228743"/>
    </g>
    <g clip-path="url(#pb915af081d)">
     <use style="fill:#4b6c8e;stroke:#4b6c8e;stroke-width:0.3;" x="122.809024" xlink:href="#C0_0_0c43d96b47" y="166.188271"/>
    </g>
   </g>
  </g>
 </g>
 <defs>
  <clipPath id="pb915af081d">
   <rect height="443.52" width="446.4" x="72" y="69.12"/>
  </clipPath>
 </defs>
</svg>
