<?xml version="1.0" encoding="utf-8" standalone="no"?>
<!DOCTYPE svg PUBLIC "-//W3C//DTD SVG 1.1//EN"
  "http://www.w3.org/Graphics/SVG/1.1/DTD/svg11.dtd">
<!-- Created with matplotlib (http://matplotlib.org/) -->
<svg height="576pt" version="1.1" viewBox="0 0 576 576" width="576pt" xmlns="http://www.w3.org/2000/svg" xmlns:xlink="http://www.w3.org/1999/xlink">
 <defs>
  <style type="text/css">
*{stroke-linecap:butt;stroke-linejoin:round;}
  </style>
 </defs>
 <g id="figure_1">
  <g id="patch_1">
   <path d="M 0 576 
L 576 576 
L 576 0 
L 0 0 
z
" style="fill:#ffffff;"/>
  </g>
  <g id="axes_1">
   <g id="LineCollection_1">
    <path clip-path="url(#pec4e5a2156)" d="M 289.253823 276.806164 
L 415.059685 390.661957 
" style="fill:none;stroke:#000000;stroke-opacity:0.4;"/>
    <path clip-path="url(#pec4e5a2156)" d="M 415.059685 390.661957 
L 495.867719 197.464123 
" style="fill:none;stroke:#000000;stroke-opacity:0.4;"/>
   </g>
   <g id="PathCollection_1">
    <defs>
     <path d="M 0 4.472136 
C 1.186024 4.472136 2.323632 4.000923 3.162278 3.162278 
C 4.000923 2.323632 4.472136 1.186024 4.472136 0 
C 4.472136 -1.186024 4.000923 -2.323632 3.162278 -3.162278 
C 2.323632 -4.000923 1.186024 -4.472136 0 -4.472136 
C -1.186024 -4.472136 -2.323632 -4.000923 -3.162278 -3.162278 
C -4.000923 -2.323632 -4.472136 -1.186024 -4.472136 0 
C -4.472136 1.186024 -4.000923 2.323632 -3.162278 3.162278 
C -2.323632 4.000923 -1.186024 4.472136 0 4.472136 
z
" id="C0_0_39b04e3c7d"/>
    </defs>
    <g clip-path="url(#pec4e5a2156)">
     <use style="fill:#00ff80;stroke:#00ff80;stroke-width:0.3;" x="289.253823" xlink:href="#C0_0_39b04e3c7d" y="276.806164"/>
    </g>
    <g clip-path="url(#pec4e5a2156)">
     <use style="fill:#007fc0;stroke:#007fc0;stroke-width:0.3;" x="415.059685" xlink:href="#C0_0_39b04e3c7d" y="390.661957"/>
    </g>
    <g clip-path="url(#pec4e5a2156)">
     <use style="fill:#0000ff;stroke:#0000ff;stroke-width:0.3;" x="495.867719" xlink:href="#C0_0_39b04e3c7d" y="197.464123"/>
    </g>
   </g>
  </g>
 </g>
 <defs>
  <clipPath id="pec4e5a2156">
   <rect height="443.52" width="446.4" x="72" y="69.12"/>
  </clipPath>
 </defs>
</svg>
