<?xml version="1.0" encoding="utf-8" standalone="no"?>
<!DOCTYPE svg PUBLIC "-//W3C//DTD SVG 1.1//EN"
  "http://www.w3.org/Graphics/SVG/1.1/DTD/svg11.dtd">
<!-- Created with matplotlib (http://matplotlib.org/) -->
<svg height="576pt" version="1.1" viewBox="0 0 576 576" width="576pt" xmlns="http://www.w3.org/2000/svg" xmlns:xlink="http://www.w3.org/1999/xlink">
 <defs>
  <style type="text/css">
*{stroke-linecap:butt;stroke-linejoin:round;}
  </style>
 </defs>
 <g id="figure_1">
  <g id="patch_1">
   <path d="M 0 576 
L 576 576 
L 576 0 
L 0 0 
z
" style="fill:#ffffff;"/>
  </g>
  <g id="axes_1">
   <g id="LineCollection_1">
    <path clip-path="url(#pc52bdad26b)" d="M 410.127382 360.936186 
L 485.521045 408.740424 
" style="fill:none;stroke:#000000;stroke-opacity:0.4;"/>
    <path clip-path="url(#pc52bdad26b)" d="M 410.127382 360.936186 
L 479.798449 339.548349 
" style="fill:none;stroke:#000000;stroke-opacity:0.4;"/>
    <path clip-path="url(#pc52bdad26b)" d="M 410.127382 360.936186 
L 437.188919 275.827643 
" style="fill:none;stroke:#000000;stroke-opacity:0.4;"/>
    <path clip-path="url(#pc52bdad26b)" d="M 410.127382 360.936186 
L 274.924455 278.839004 
" style="fill:none;stroke:#000000;stroke-opacity:0.4;"/>
    <path clip-path="url(#pc52bdad26b)" d="M 410.127382 360.936186 
L 421.751872 482.04845 
" style="fill:none;stroke:#000000;stroke-opacity:0.4;"/>
    <path clip-path="url(#pc52bdad26b)" d="M 410.127382 360.936186 
L 275.438978 467.288888 
" style="fill:none;stroke:#000000;stroke-opacity:0.4;"/>
    <path clip-path="url(#pc52bdad26b)" d="M 410.127382 360.936186 
L 403.989279 228.17699 
" style="fill:none;stroke:#000000;stroke-opacity:0.4;"/>
    <path clip-path="url(#pc52bdad26b)" d="M 410.127382 360.936186 
L 488.918056 410.660149 
" style="fill:none;stroke:#000000;stroke-opacity:0.4;"/>
    <path clip-path="url(#pc52bdad26b)" d="M 410.127382 360.936186 
L 488.661668 343.716177 
" style="fill:none;stroke:#000000;stroke-opacity:0.4;"/>
    <path clip-path="url(#pc52bdad26b)" d="M 410.127382 360.936186 
L 346.213758 209.227956 
" style="fill:none;stroke:#000000;stroke-opacity:0.4;"/>
    <path clip-path="url(#pc52bdad26b)" d="M 410.127382 360.936186 
L 396.562646 191.398402 
" style="fill:none;stroke:#000000;stroke-opacity:0.4;"/>
    <path clip-path="url(#pc52bdad26b)" d="M 410.127382 360.936186 
L 469.850853 362.815211 
" style="fill:none;stroke:#000000;stroke-opacity:0.4;"/>
    <path clip-path="url(#pc52bdad26b)" d="M 410.127382 360.936186 
L 454.29677 234.353995 
" style="fill:none;stroke:#000000;stroke-opacity:0.4;"/>
    <path clip-path="url(#pc52bdad26b)" d="M 410.127382 360.936186 
L 461.107395 375.766743 
" style="fill:none;stroke:#000000;stroke-opacity:0.4;"/>
    <path clip-path="url(#pc52bdad26b)" d="M 410.127382 360.936186 
L 324.821755 418.082956 
" style="fill:none;stroke:#000000;stroke-opacity:0.4;"/>
    <path clip-path="url(#pc52bdad26b)" d="M 410.127382 360.936186 
L 392.059482 301.902339 
" style="fill:none;stroke:#000000;stroke-opacity:0.4;"/>
    <path clip-path="url(#pc52bdad26b)" d="M 410.127382 360.936186 
L 477.916137 259.401266 
" style="fill:none;stroke:#000000;stroke-opacity:0.4;"/>
    <path clip-path="url(#pc52bdad26b)" d="M 410.127382 360.936186 
L 355.046699 429.199822 
" style="fill:none;stroke:#000000;stroke-opacity:0.4;"/>
    <path clip-path="url(#pc52bdad26b)" d="M 355.046699 429.199822 
L 485.521045 408.740424 
" style="fill:none;stroke:#000000;stroke-opacity:0.4;"/>
    <path clip-path="url(#pc52bdad26b)" d="M 355.046699 429.199822 
L 479.798449 339.548349 
" style="fill:none;stroke:#000000;stroke-opacity:0.4;"/>
    <path clip-path="url(#pc52bdad26b)" d="M 355.046699 429.199822 
L 274.924455 278.839004 
" style="fill:none;stroke:#000000;stroke-opacity:0.4;"/>
    <path clip-path="url(#pc52bdad26b)" d="M 355.046699 429.199822 
L 421.751872 482.04845 
" style="fill:none;stroke:#000000;stroke-opacity:0.4;"/>
    <path clip-path="url(#pc52bdad26b)" d="M 355.046699 429.199822 
L 275.438978 467.288888 
" style="fill:none;stroke:#000000;stroke-opacity:0.4;"/>
    <path clip-path="url(#pc52bdad26b)" d="M 355.046699 429.199822 
L 488.918056 410.660149 
" style="fill:none;stroke:#000000;stroke-opacity:0.4;"/>
    <path clip-path="url(#pc52bdad26b)" d="M 355.046699 429.199822 
L 488.661668 343.716177 
" style="fill:none;stroke:#000000;stroke-opacity:0.4;"/>
    <path clip-path="url(#pc52bdad26b)" d="M 355.046699 429.199822 
L 469.850853 362.815211 
" style="fill:none;stroke:#000000;stroke-opacity:0.4;"/>
    <path clip-path="url(#pc52bdad26b)" d="M 355.046699 429.199822 
L 461.107395 375.766743 
" style="fill:none;stroke:#000000;stroke-opacity:0.4;"/>
    <path clip-path="url(#pc52bdad26b)" d="M 355.046699 429.199822 
L 324.821755 418.082956 
" style="fill:none;stroke:#000000;stroke-opacity:0.4;"/>
    <path clip-path="url(#pc52bdad26b)" d="M 355.046699 429.199822 
L 392.059482 301.902339 
" style="fill:none;stroke:#000000;stroke-opacity:0.4;"/>
    <path clip-path="url(#pc52bdad26b)" d="M 477.916137 259.401266 
L 485.521045 408.740424 
" style="fill:none;stroke:#000000;stroke-opacity:0.4;"/>
    <path clip-path="url(#pc52bdad26b)" d="M 477.916137 259.401266 
L 479.798449 339.548349 
" style="fill:none;stroke:#000000;stroke-opacity:0.4;"/>
    <path clip-path="url(#pc52bdad26b)" d="M 477.916137 259.401266 
L 437.188919 275.827643 
" style="fill:none;stroke:#000000;stroke-opacity:0.4;"/>
    <path clip-path="url(#pc52bdad26b)" d="M 477.916137 259.401266 
L 345.737777 164.159857 
" style="fill:none;stroke:#000000;stroke-opacity:0.4;"/>
    <path clip-path="url(#pc52bdad26b)" d="M 477.916137 259.401266 
L 453.986529 177.529 
" style="fill:none;stroke:#000000;stroke-opacity:0.4;"/>
    <path clip-path="url(#pc52bdad26b)" d="M 477.916137 259.401266 
L 459.353438 110.190951 
" style="fill:none;stroke:#000000;stroke-opacity:0.4;"/>
    <path clip-path="url(#pc52bdad26b)" d="M 477.916137 259.401266 
L 403.989279 228.17699 
" style="fill:none;stroke:#000000;stroke-opacity:0.4;"/>
    <path clip-path="url(#pc52bdad26b)" d="M 477.916137 259.401266 
L 488.918056 410.660149 
" style="fill:none;stroke:#000000;stroke-opacity:0.4;"/>
    <path clip-path="url(#pc52bdad26b)" d="M 477.916137 259.401266 
L 488.661668 343.716177 
" style="fill:none;stroke:#000000;stroke-opacity:0.4;"/>
    <path clip-path="url(#pc52bdad26b)" d="M 477.916137 259.401266 
L 346.213758 209.227956 
" style="fill:none;stroke:#000000;stroke-opacity:0.4;"/>
    <path clip-path="url(#pc52bdad26b)" d="M 477.916137 259.401266 
L 396.562646 191.398402 
" style="fill:none;stroke:#000000;stroke-opacity:0.4;"/>
    <path clip-path="url(#pc52bdad26b)" d="M 477.916137 259.401266 
L 469.850853 362.815211 
" style="fill:none;stroke:#000000;stroke-opacity:0.4;"/>
    <path clip-path="url(#pc52bdad26b)" d="M 477.916137 259.401266 
L 454.29677 234.353995 
" style="fill:none;stroke:#000000;stroke-opacity:0.4;"/>
    <path clip-path="url(#pc52bdad26b)" d="M 477.916137 259.401266 
L 461.107395 375.766743 
" style="fill:none;stroke:#000000;stroke-opacity:0.4;"/>
    <path clip-path="url(#pc52bdad26b)" d="M 477.916137 259.401266 
L 392.059482 301.902339 
" style="fill:none;stroke:#000000;stroke-opacity:0.4;"/>
    <path clip-path="url(#pc52bdad26b)" d="M 121.985628 478.237092 
L 275.438978 467.288888 
" style="fill:none;stroke:#000000;stroke-opacity:0.4;"/>
    <path clip-path="url(#pc52bdad26b)" d="M 121.985628 478.237092 
L 137.986331 337.202143 
" style="fill:none;stroke:#000000;stroke-opacity:0.4;"/>
    <path clip-path="url(#pc52bdad26b)" d="M 121.985628 478.237092 
L 125.651205 481.351371 
" style="fill:none;stroke:#000000;stroke-opacity:0.4;"/>
    <path clip-path="url(#pc52bdad26b)" d="M 125.651205 481.351371 
L 275.438978 467.288888 
" style="fill:none;stroke:#000000;stroke-opacity:0.4;"/>
    <path clip-path="url(#pc52bdad26b)" d="M 125.651205 481.351371 
L 137.986331 337.202143 
" style="fill:none;stroke:#000000;stroke-opacity:0.4;"/>
    <path clip-path="url(#pc52bdad26b)" d="M 392.059482 301.902339 
L 485.521045 408.740424 
" style="fill:none;stroke:#000000;stroke-opacity:0.4;"/>
    <path clip-path="url(#pc52bdad26b)" d="M 392.059482 301.902339 
L 257.017695 271.472149 
" style="fill:none;stroke:#000000;stroke-opacity:0.4;"/>
    <path clip-path="url(#pc52bdad26b)" d="M 392.059482 301.902339 
L 479.798449 339.548349 
" style="fill:none;stroke:#000000;stroke-opacity:0.4;"/>
    <path clip-path="url(#pc52bdad26b)" d="M 392.059482 301.902339 
L 437.188919 275.827643 
" style="fill:none;stroke:#000000;stroke-opacity:0.4;"/>
    <path clip-path="url(#pc52bdad26b)" d="M 392.059482 301.902339 
L 274.924455 278.839004 
" style="fill:none;stroke:#000000;stroke-opacity:0.4;"/>
    <path clip-path="url(#pc52bdad26b)" d="M 392.059482 301.902339 
L 345.737777 164.159857 
" style="fill:none;stroke:#000000;stroke-opacity:0.4;"/>
    <path clip-path="url(#pc52bdad26b)" d="M 392.059482 301.902339 
L 453.986529 177.529 
" style="fill:none;stroke:#000000;stroke-opacity:0.4;"/>
    <path clip-path="url(#pc52bdad26b)" d="M 392.059482 301.902339 
L 403.989279 228.17699 
" style="fill:none;stroke:#000000;stroke-opacity:0.4;"/>
    <path clip-path="url(#pc52bdad26b)" d="M 392.059482 301.902339 
L 488.918056 410.660149 
" style="fill:none;stroke:#000000;stroke-opacity:0.4;"/>
    <path clip-path="url(#pc52bdad26b)" d="M 392.059482 301.902339 
L 488.661668 343.716177 
" style="fill:none;stroke:#000000;stroke-opacity:0.4;"/>
    <path clip-path="url(#pc52bdad26b)" d="M 392.059482 301.902339 
L 346.213758 209.227956 
" style="fill:none;stroke:#000000;stroke-opacity:0.4;"/>
    <path clip-path="url(#pc52bdad26b)" d="M 392.059482 301.902339 
L 396.562646 191.398402 
" style="fill:none;stroke:#000000;stroke-opacity:0.4;"/>
    <path clip-path="url(#pc52bdad26b)" d="M 392.059482 301.902339 
L 469.850853 362.815211 
" style="fill:none;stroke:#000000;stroke-opacity:0.4;"/>
    <path clip-path="url(#pc52bdad26b)" d="M 392.059482 301.902339 
L 454.29677 234.353995 
" style="fill:none;stroke:#000000;stroke-opacity:0.4;"/>
    <path clip-path="url(#pc52bdad26b)" d="M 392.059482 301.902339 
L 461.107395 375.766743 
" style="fill:none;stroke:#000000;stroke-opacity:0.4;"/>
    <path clip-path="url(#pc52bdad26b)" d="M 392.059482 301.902339 
L 324.821755 418.082956 
" style="fill:none;stroke:#000000;stroke-opacity:0.4;"/>
    <path clip-path="url(#pc52bdad26b)" d="M 324.821755 418.082956 
L 485.521045 408.740424 
" style="fill:none;stroke:#000000;stroke-opacity:0.4;"/>
    <path clip-path="url(#pc52bdad26b)" d="M 324.821755 418.082956 
L 257.017695 271.472149 
" style="fill:none;stroke:#000000;stroke-opacity:0.4;"/>
    <path clip-path="url(#pc52bdad26b)" d="M 324.821755 418.082956 
L 479.798449 339.548349 
" style="fill:none;stroke:#000000;stroke-opacity:0.4;"/>
    <path clip-path="url(#pc52bdad26b)" d="M 324.821755 418.082956 
L 274.924455 278.839004 
" style="fill:none;stroke:#000000;stroke-opacity:0.4;"/>
    <path clip-path="url(#pc52bdad26b)" d="M 324.821755 418.082956 
L 421.751872 482.04845 
" style="fill:none;stroke:#000000;stroke-opacity:0.4;"/>
    <path clip-path="url(#pc52bdad26b)" d="M 324.821755 418.082956 
L 275.438978 467.288888 
" style="fill:none;stroke:#000000;stroke-opacity:0.4;"/>
    <path clip-path="url(#pc52bdad26b)" d="M 324.821755 418.082956 
L 488.918056 410.660149 
" style="fill:none;stroke:#000000;stroke-opacity:0.4;"/>
    <path clip-path="url(#pc52bdad26b)" d="M 324.821755 418.082956 
L 469.850853 362.815211 
" style="fill:none;stroke:#000000;stroke-opacity:0.4;"/>
    <path clip-path="url(#pc52bdad26b)" d="M 324.821755 418.082956 
L 461.107395 375.766743 
" style="fill:none;stroke:#000000;stroke-opacity:0.4;"/>
    <path clip-path="url(#pc52bdad26b)" d="M 461.107395 375.766743 
L 485.521045 408.740424 
" style="fill:none;stroke:#000000;stroke-opacity:0.4;"/>
    <path clip-path="url(#pc52bdad26b)" d="M 461.107395 375.766743 
L 479.798449 339.548349 
" style="fill:none;stroke:#000000;stroke-opacity:0.4;"/>
    <path clip-path="url(#pc52bdad26b)" d="M 461.107395 375.766743 
L 437.188919 275.827643 
" style="fill:none;stroke:#000000;stroke-opacity:0.4;"/>
    <path clip-path="url(#pc52bdad26b)" d="M 461.107395 375.766743 
L 421.751872 482.04845 
" style="fill:none;stroke:#000000;stroke-opacity:0.4;"/>
    <path clip-path="url(#pc52bdad26b)" d="M 461.107395 375.766743 
L 403.989279 228.17699 
" style="fill:none;stroke:#000000;stroke-opacity:0.4;"/>
    <path clip-path="url(#pc52bdad26b)" d="M 461.107395 375.766743 
L 488.918056 410.660149 
" style="fill:none;stroke:#000000;stroke-opacity:0.4;"/>
    <path clip-path="url(#pc52bdad26b)" d="M 461.107395 375.766743 
L 488.661668 343.716177 
" style="fill:none;stroke:#000000;stroke-opacity:0.4;"/>
    <path clip-path="url(#pc52bdad26b)" d="M 461.107395 375.766743 
L 469.850853 362.815211 
" style="fill:none;stroke:#000000;stroke-opacity:0.4;"/>
    <path clip-path="url(#pc52bdad26b)" d="M 461.107395 375.766743 
L 454.29677 234.353995 
" style="fill:none;stroke:#000000;stroke-opacity:0.4;"/>
    <path clip-path="url(#pc52bdad26b)" d="M 454.29677 234.353995 
L 479.798449 339.548349 
" style="fill:none;stroke:#000000;stroke-opacity:0.4;"/>
    <path clip-path="url(#pc52bdad26b)" d="M 454.29677 234.353995 
L 437.188919 275.827643 
" style="fill:none;stroke:#000000;stroke-opacity:0.4;"/>
    <path clip-path="url(#pc52bdad26b)" d="M 454.29677 234.353995 
L 372.379463 100.139936 
" style="fill:none;stroke:#000000;stroke-opacity:0.4;"/>
    <path clip-path="url(#pc52bdad26b)" d="M 454.29677 234.353995 
L 345.737777 164.159857 
" style="fill:none;stroke:#000000;stroke-opacity:0.4;"/>
    <path clip-path="url(#pc52bdad26b)" d="M 454.29677 234.353995 
L 453.986529 177.529 
" style="fill:none;stroke:#000000;stroke-opacity:0.4;"/>
    <path clip-path="url(#pc52bdad26b)" d="M 454.29677 234.353995 
L 459.353438 110.190951 
" style="fill:none;stroke:#000000;stroke-opacity:0.4;"/>
    <path clip-path="url(#pc52bdad26b)" d="M 454.29677 234.353995 
L 384.294931 112.156158 
" style="fill:none;stroke:#000000;stroke-opacity:0.4;"/>
    <path clip-path="url(#pc52bdad26b)" d="M 454.29677 234.353995 
L 403.989279 228.17699 
" style="fill:none;stroke:#000000;stroke-opacity:0.4;"/>
    <path clip-path="url(#pc52bdad26b)" d="M 454.29677 234.353995 
L 488.661668 343.716177 
" style="fill:none;stroke:#000000;stroke-opacity:0.4;"/>
    <path clip-path="url(#pc52bdad26b)" d="M 454.29677 234.353995 
L 346.213758 209.227956 
" style="fill:none;stroke:#000000;stroke-opacity:0.4;"/>
    <path clip-path="url(#pc52bdad26b)" d="M 454.29677 234.353995 
L 396.562646 191.398402 
" style="fill:none;stroke:#000000;stroke-opacity:0.4;"/>
    <path clip-path="url(#pc52bdad26b)" d="M 454.29677 234.353995 
L 469.850853 362.815211 
" style="fill:none;stroke:#000000;stroke-opacity:0.4;"/>
    <path clip-path="url(#pc52bdad26b)" d="M 469.850853 362.815211 
L 485.521045 408.740424 
" style="fill:none;stroke:#000000;stroke-opacity:0.4;"/>
    <path clip-path="url(#pc52bdad26b)" d="M 469.850853 362.815211 
L 479.798449 339.548349 
" style="fill:none;stroke:#000000;stroke-opacity:0.4;"/>
    <path clip-path="url(#pc52bdad26b)" d="M 469.850853 362.815211 
L 437.188919 275.827643 
" style="fill:none;stroke:#000000;stroke-opacity:0.4;"/>
    <path clip-path="url(#pc52bdad26b)" d="M 469.850853 362.815211 
L 421.751872 482.04845 
" style="fill:none;stroke:#000000;stroke-opacity:0.4;"/>
    <path clip-path="url(#pc52bdad26b)" d="M 469.850853 362.815211 
L 403.989279 228.17699 
" style="fill:none;stroke:#000000;stroke-opacity:0.4;"/>
    <path clip-path="url(#pc52bdad26b)" d="M 469.850853 362.815211 
L 488.918056 410.660149 
" style="fill:none;stroke:#000000;stroke-opacity:0.4;"/>
    <path clip-path="url(#pc52bdad26b)" d="M 469.850853 362.815211 
L 488.661668 343.716177 
" style="fill:none;stroke:#000000;stroke-opacity:0.4;"/>
    <path clip-path="url(#pc52bdad26b)" d="M 197.529193 205.564355 
L 257.017695 271.472149 
" style="fill:none;stroke:#000000;stroke-opacity:0.4;"/>
    <path clip-path="url(#pc52bdad26b)" d="M 197.529193 205.564355 
L 274.924455 278.839004 
" style="fill:none;stroke:#000000;stroke-opacity:0.4;"/>
    <path clip-path="url(#pc52bdad26b)" d="M 197.529193 205.564355 
L 345.737777 164.159857 
" style="fill:none;stroke:#000000;stroke-opacity:0.4;"/>
    <path clip-path="url(#pc52bdad26b)" d="M 197.529193 205.564355 
L 205.810802 161.339836 
" style="fill:none;stroke:#000000;stroke-opacity:0.4;"/>
    <path clip-path="url(#pc52bdad26b)" d="M 197.529193 205.564355 
L 137.986331 337.202143 
" style="fill:none;stroke:#000000;stroke-opacity:0.4;"/>
    <path clip-path="url(#pc52bdad26b)" d="M 197.529193 205.564355 
L 346.213758 209.227956 
" style="fill:none;stroke:#000000;stroke-opacity:0.4;"/>
    <path clip-path="url(#pc52bdad26b)" d="M 396.562646 191.398402 
L 257.017695 271.472149 
" style="fill:none;stroke:#000000;stroke-opacity:0.4;"/>
    <path clip-path="url(#pc52bdad26b)" d="M 396.562646 191.398402 
L 479.798449 339.548349 
" style="fill:none;stroke:#000000;stroke-opacity:0.4;"/>
    <path clip-path="url(#pc52bdad26b)" d="M 396.562646 191.398402 
L 437.188919 275.827643 
" style="fill:none;stroke:#000000;stroke-opacity:0.4;"/>
    <path clip-path="url(#pc52bdad26b)" d="M 396.562646 191.398402 
L 274.924455 278.839004 
" style="fill:none;stroke:#000000;stroke-opacity:0.4;"/>
    <path clip-path="url(#pc52bdad26b)" d="M 396.562646 191.398402 
L 372.379463 100.139936 
" style="fill:none;stroke:#000000;stroke-opacity:0.4;"/>
    <path clip-path="url(#pc52bdad26b)" d="M 396.562646 191.398402 
L 345.737777 164.159857 
" style="fill:none;stroke:#000000;stroke-opacity:0.4;"/>
    <path clip-path="url(#pc52bdad26b)" d="M 396.562646 191.398402 
L 453.986529 177.529 
" style="fill:none;stroke:#000000;stroke-opacity:0.4;"/>
    <path clip-path="url(#pc52bdad26b)" d="M 396.562646 191.398402 
L 459.353438 110.190951 
" style="fill:none;stroke:#000000;stroke-opacity:0.4;"/>
    <path clip-path="url(#pc52bdad26b)" d="M 396.562646 191.398402 
L 384.294931 112.156158 
" style="fill:none;stroke:#000000;stroke-opacity:0.4;"/>
    <path clip-path="url(#pc52bdad26b)" d="M 396.562646 191.398402 
L 403.989279 228.17699 
" style="fill:none;stroke:#000000;stroke-opacity:0.4;"/>
    <path clip-path="url(#pc52bdad26b)" d="M 396.562646 191.398402 
L 346.213758 209.227956 
" style="fill:none;stroke:#000000;stroke-opacity:0.4;"/>
    <path clip-path="url(#pc52bdad26b)" d="M 346.213758 209.227956 
L 257.017695 271.472149 
" style="fill:none;stroke:#000000;stroke-opacity:0.4;"/>
    <path clip-path="url(#pc52bdad26b)" d="M 346.213758 209.227956 
L 437.188919 275.827643 
" style="fill:none;stroke:#000000;stroke-opacity:0.4;"/>
    <path clip-path="url(#pc52bdad26b)" d="M 346.213758 209.227956 
L 274.924455 278.839004 
" style="fill:none;stroke:#000000;stroke-opacity:0.4;"/>
    <path clip-path="url(#pc52bdad26b)" d="M 346.213758 209.227956 
L 372.379463 100.139936 
" style="fill:none;stroke:#000000;stroke-opacity:0.4;"/>
    <path clip-path="url(#pc52bdad26b)" d="M 346.213758 209.227956 
L 345.737777 164.159857 
" style="fill:none;stroke:#000000;stroke-opacity:0.4;"/>
    <path clip-path="url(#pc52bdad26b)" d="M 346.213758 209.227956 
L 205.810802 161.339836 
" style="fill:none;stroke:#000000;stroke-opacity:0.4;"/>
    <path clip-path="url(#pc52bdad26b)" d="M 346.213758 209.227956 
L 453.986529 177.529 
" style="fill:none;stroke:#000000;stroke-opacity:0.4;"/>
    <path clip-path="url(#pc52bdad26b)" d="M 346.213758 209.227956 
L 459.353438 110.190951 
" style="fill:none;stroke:#000000;stroke-opacity:0.4;"/>
    <path clip-path="url(#pc52bdad26b)" d="M 346.213758 209.227956 
L 384.294931 112.156158 
" style="fill:none;stroke:#000000;stroke-opacity:0.4;"/>
    <path clip-path="url(#pc52bdad26b)" d="M 346.213758 209.227956 
L 403.989279 228.17699 
" style="fill:none;stroke:#000000;stroke-opacity:0.4;"/>
    <path clip-path="url(#pc52bdad26b)" d="M 488.661668 343.716177 
L 485.521045 408.740424 
" style="fill:none;stroke:#000000;stroke-opacity:0.4;"/>
    <path clip-path="url(#pc52bdad26b)" d="M 488.661668 343.716177 
L 479.798449 339.548349 
" style="fill:none;stroke:#000000;stroke-opacity:0.4;"/>
    <path clip-path="url(#pc52bdad26b)" d="M 488.661668 343.716177 
L 437.188919 275.827643 
" style="fill:none;stroke:#000000;stroke-opacity:0.4;"/>
    <path clip-path="url(#pc52bdad26b)" d="M 488.661668 343.716177 
L 421.751872 482.04845 
" style="fill:none;stroke:#000000;stroke-opacity:0.4;"/>
    <path clip-path="url(#pc52bdad26b)" d="M 488.661668 343.716177 
L 453.986529 177.529 
" style="fill:none;stroke:#000000;stroke-opacity:0.4;"/>
    <path clip-path="url(#pc52bdad26b)" d="M 488.661668 343.716177 
L 403.989279 228.17699 
" style="fill:none;stroke:#000000;stroke-opacity:0.4;"/>
    <path clip-path="url(#pc52bdad26b)" d="M 488.661668 343.716177 
L 488.918056 410.660149 
" style="fill:none;stroke:#000000;stroke-opacity:0.4;"/>
    <path clip-path="url(#pc52bdad26b)" d="M 488.918056 410.660149 
L 485.521045 408.740424 
" style="fill:none;stroke:#000000;stroke-opacity:0.4;"/>
    <path clip-path="url(#pc52bdad26b)" d="M 488.918056 410.660149 
L 479.798449 339.548349 
" style="fill:none;stroke:#000000;stroke-opacity:0.4;"/>
    <path clip-path="url(#pc52bdad26b)" d="M 488.918056 410.660149 
L 437.188919 275.827643 
" style="fill:none;stroke:#000000;stroke-opacity:0.4;"/>
    <path clip-path="url(#pc52bdad26b)" d="M 488.918056 410.660149 
L 421.751872 482.04845 
" style="fill:none;stroke:#000000;stroke-opacity:0.4;"/>
    <path clip-path="url(#pc52bdad26b)" d="M 403.989279 228.17699 
L 257.017695 271.472149 
" style="fill:none;stroke:#000000;stroke-opacity:0.4;"/>
    <path clip-path="url(#pc52bdad26b)" d="M 403.989279 228.17699 
L 479.798449 339.548349 
" style="fill:none;stroke:#000000;stroke-opacity:0.4;"/>
    <path clip-path="url(#pc52bdad26b)" d="M 403.989279 228.17699 
L 437.188919 275.827643 
" style="fill:none;stroke:#000000;stroke-opacity:0.4;"/>
    <path clip-path="url(#pc52bdad26b)" d="M 403.989279 228.17699 
L 274.924455 278.839004 
" style="fill:none;stroke:#000000;stroke-opacity:0.4;"/>
    <path clip-path="url(#pc52bdad26b)" d="M 403.989279 228.17699 
L 372.379463 100.139936 
" style="fill:none;stroke:#000000;stroke-opacity:0.4;"/>
    <path clip-path="url(#pc52bdad26b)" d="M 403.989279 228.17699 
L 345.737777 164.159857 
" style="fill:none;stroke:#000000;stroke-opacity:0.4;"/>
    <path clip-path="url(#pc52bdad26b)" d="M 403.989279 228.17699 
L 453.986529 177.529 
" style="fill:none;stroke:#000000;stroke-opacity:0.4;"/>
    <path clip-path="url(#pc52bdad26b)" d="M 403.989279 228.17699 
L 459.353438 110.190951 
" style="fill:none;stroke:#000000;stroke-opacity:0.4;"/>
    <path clip-path="url(#pc52bdad26b)" d="M 403.989279 228.17699 
L 384.294931 112.156158 
" style="fill:none;stroke:#000000;stroke-opacity:0.4;"/>
    <path clip-path="url(#pc52bdad26b)" d="M 384.294931 112.156158 
L 437.188919 275.827643 
" style="fill:none;stroke:#000000;stroke-opacity:0.4;"/>
    <path clip-path="url(#pc52bdad26b)" d="M 384.294931 112.156158 
L 372.379463 100.139936 
" style="fill:none;stroke:#000000;stroke-opacity:0.4;"/>
    <path clip-path="url(#pc52bdad26b)" d="M 384.294931 112.156158 
L 345.737777 164.159857 
" style="fill:none;stroke:#000000;stroke-opacity:0.4;"/>
    <path clip-path="url(#pc52bdad26b)" d="M 384.294931 112.156158 
L 453.986529 177.529 
" style="fill:none;stroke:#000000;stroke-opacity:0.4;"/>
    <path clip-path="url(#pc52bdad26b)" d="M 384.294931 112.156158 
L 459.353438 110.190951 
" style="fill:none;stroke:#000000;stroke-opacity:0.4;"/>
    <path clip-path="url(#pc52bdad26b)" d="M 459.353438 110.190951 
L 437.188919 275.827643 
" style="fill:none;stroke:#000000;stroke-opacity:0.4;"/>
    <path clip-path="url(#pc52bdad26b)" d="M 459.353438 110.190951 
L 372.379463 100.139936 
" style="fill:none;stroke:#000000;stroke-opacity:0.4;"/>
    <path clip-path="url(#pc52bdad26b)" d="M 459.353438 110.190951 
L 345.737777 164.159857 
" style="fill:none;stroke:#000000;stroke-opacity:0.4;"/>
    <path clip-path="url(#pc52bdad26b)" d="M 459.353438 110.190951 
L 453.986529 177.529 
" style="fill:none;stroke:#000000;stroke-opacity:0.4;"/>
    <path clip-path="url(#pc52bdad26b)" d="M 137.986331 337.202143 
L 257.017695 271.472149 
" style="fill:none;stroke:#000000;stroke-opacity:0.4;"/>
    <path clip-path="url(#pc52bdad26b)" d="M 137.986331 337.202143 
L 274.924455 278.839004 
" style="fill:none;stroke:#000000;stroke-opacity:0.4;"/>
    <path clip-path="url(#pc52bdad26b)" d="M 453.986529 177.529 
L 479.798449 339.548349 
" style="fill:none;stroke:#000000;stroke-opacity:0.4;"/>
    <path clip-path="url(#pc52bdad26b)" d="M 453.986529 177.529 
L 437.188919 275.827643 
" style="fill:none;stroke:#000000;stroke-opacity:0.4;"/>
    <path clip-path="url(#pc52bdad26b)" d="M 453.986529 177.529 
L 372.379463 100.139936 
" style="fill:none;stroke:#000000;stroke-opacity:0.4;"/>
    <path clip-path="url(#pc52bdad26b)" d="M 453.986529 177.529 
L 345.737777 164.159857 
" style="fill:none;stroke:#000000;stroke-opacity:0.4;"/>
    <path clip-path="url(#pc52bdad26b)" d="M 205.810802 161.339836 
L 257.017695 271.472149 
" style="fill:none;stroke:#000000;stroke-opacity:0.4;"/>
    <path clip-path="url(#pc52bdad26b)" d="M 205.810802 161.339836 
L 274.924455 278.839004 
" style="fill:none;stroke:#000000;stroke-opacity:0.4;"/>
    <path clip-path="url(#pc52bdad26b)" d="M 205.810802 161.339836 
L 345.737777 164.159857 
" style="fill:none;stroke:#000000;stroke-opacity:0.4;"/>
    <path clip-path="url(#pc52bdad26b)" d="M 345.737777 164.159857 
L 257.017695 271.472149 
" style="fill:none;stroke:#000000;stroke-opacity:0.4;"/>
    <path clip-path="url(#pc52bdad26b)" d="M 345.737777 164.159857 
L 437.188919 275.827643 
" style="fill:none;stroke:#000000;stroke-opacity:0.4;"/>
    <path clip-path="url(#pc52bdad26b)" d="M 345.737777 164.159857 
L 274.924455 278.839004 
" style="fill:none;stroke:#000000;stroke-opacity:0.4;"/>
    <path clip-path="url(#pc52bdad26b)" d="M 345.737777 164.159857 
L 372.379463 100.139936 
" style="fill:none;stroke:#000000;stroke-opacity:0.4;"/>
    <path clip-path="url(#pc52bdad26b)" d="M 275.438978 467.288888 
L 421.751872 482.04845 
" style="fill:none;stroke:#000000;stroke-opacity:0.4;"/>
    <path clip-path="url(#pc52bdad26b)" d="M 421.751872 482.04845 
L 485.521045 408.740424 
" style="fill:none;stroke:#000000;stroke-opacity:0.4;"/>
    <path clip-path="url(#pc52bdad26b)" d="M 421.751872 482.04845 
L 479.798449 339.548349 
" style="fill:none;stroke:#000000;stroke-opacity:0.4;"/>
    <path clip-path="url(#pc52bdad26b)" d="M 274.924455 278.839004 
L 257.017695 271.472149 
" style="fill:none;stroke:#000000;stroke-opacity:0.4;"/>
    <path clip-path="url(#pc52bdad26b)" d="M 274.924455 278.839004 
L 437.188919 275.827643 
" style="fill:none;stroke:#000000;stroke-opacity:0.4;"/>
    <path clip-path="url(#pc52bdad26b)" d="M 437.188919 275.827643 
L 485.521045 408.740424 
" style="fill:none;stroke:#000000;stroke-opacity:0.4;"/>
    <path clip-path="url(#pc52bdad26b)" d="M 437.188919 275.827643 
L 479.798449 339.548349 
" style="fill:none;stroke:#000000;stroke-opacity:0.4;"/>
    <path clip-path="url(#pc52bdad26b)" d="M 479.798449 339.548349 
L 485.521045 408.740424 
" style="fill:none;stroke:#000000;stroke-opacity:0.4;"/>
   </g>
   <g id="PathCollection_1">
    <defs>
     <path d="M 0 4.472136 
C 1.186024 4.472136 2.323632 4.000923 3.162278 3.162278 
C 4.000923 2.323632 4.472136 1.186024 4.472136 0 
C 4.472136 -1.186024 4.000923 -2.323632 3.162278 -3.162278 
C 2.323632 -4.000923 1.186024 -4.472136 0 -4.472136 
C -1.186024 -4.472136 -2.323632 -4.000923 -3.162278 -3.162278 
C -4.000923 -2.323632 -4.472136 -1.186024 -4.472136 0 
C -4.472136 1.186024 -4.000923 2.323632 -3.162278 3.162278 
C -2.323632 4.000923 -1.186024 4.472136 0 4.472136 
z
" id="C0_0_d28ed14701"/>
    </defs>
    <g clip-path="url(#pc52bdad26b)">
     <use style="fill:#6daea1;stroke:#6daea1;stroke-width:0.3;" x="274.924455" xlink:href="#C0_0_d28ed14701" y="278.839004"/>
    </g>
    <g clip-path="url(#pc52bdad26b)">
     <use style="fill:#578e9b;stroke:#578e9b;stroke-width:0.3;" x="257.017695" xlink:href="#C0_0_d28ed14701" y="271.472149"/>
    </g>
    <g clip-path="url(#pc52bdad26b)">
     <use style="fill:#578e9b;stroke:#578e9b;stroke-width:0.3;" x="437.188919" xlink:href="#C0_0_d28ed14701" y="275.827643"/>
    </g>
    <g clip-path="url(#pc52bdad26b)">
     <use style="fill:#578e9b;stroke:#578e9b;stroke-width:0.3;" x="410.127382" xlink:href="#C0_0_d28ed14701" y="360.936186"/>
    </g>
    <g clip-path="url(#pc52bdad26b)">
     <use style="fill:#578e9b;stroke:#578e9b;stroke-width:0.3;" x="355.046699" xlink:href="#C0_0_d28ed14701" y="429.199822"/>
    </g>
    <g clip-path="url(#pc52bdad26b)">
     <use style="fill:#578e9b;stroke:#578e9b;stroke-width:0.3;" x="392.059482" xlink:href="#C0_0_d28ed14701" y="301.902339"/>
    </g>
    <g clip-path="url(#pc52bdad26b)">
     <use style="fill:#578e9b;stroke:#578e9b;stroke-width:0.3;" x="324.821755" xlink:href="#C0_0_d28ed14701" y="418.082956"/>
    </g>
    <g clip-path="url(#pc52bdad26b)">
     <use style="fill:#578e9b;stroke:#578e9b;stroke-width:0.3;" x="197.529193" xlink:href="#C0_0_d28ed14701" y="205.564355"/>
    </g>
    <g clip-path="url(#pc52bdad26b)">
     <use style="fill:#578e9b;stroke:#578e9b;stroke-width:0.3;" x="396.562646" xlink:href="#C0_0_d28ed14701" y="191.398402"/>
    </g>
    <g clip-path="url(#pc52bdad26b)">
     <use style="fill:#578e9b;stroke:#578e9b;stroke-width:0.3;" x="346.213758" xlink:href="#C0_0_d28ed14701" y="209.227956"/>
    </g>
    <g clip-path="url(#pc52bdad26b)">
     <use style="fill:#578e9b;stroke:#578e9b;stroke-width:0.3;" x="403.989279" xlink:href="#C0_0_d28ed14701" y="228.17699"/>
    </g>
    <g clip-path="url(#pc52bdad26b)">
     <use style="fill:#578e9b;stroke:#578e9b;stroke-width:0.3;" x="137.986331" xlink:href="#C0_0_d28ed14701" y="337.202143"/>
    </g>
    <g clip-path="url(#pc52bdad26b)">
     <use style="fill:#578e9b;stroke:#578e9b;stroke-width:0.3;" x="205.810802" xlink:href="#C0_0_d28ed14701" y="161.339836"/>
    </g>
    <g clip-path="url(#pc52bdad26b)">
     <use style="fill:#578e9b;stroke:#578e9b;stroke-width:0.3;" x="345.737777" xlink:href="#C0_0_d28ed14701" y="164.159857"/>
    </g>
    <g clip-path="url(#pc52bdad26b)">
     <use style="fill:#4b6c8e;stroke:#4b6c8e;stroke-width:0.3;" x="485.521045" xlink:href="#C0_0_d28ed14701" y="408.740424"/>
    </g>
    <g clip-path="url(#pc52bdad26b)">
     <use style="fill:#4b6c8e;stroke:#4b6c8e;stroke-width:0.3;" x="479.798449" xlink:href="#C0_0_d28ed14701" y="339.548349"/>
    </g>
    <g clip-path="url(#pc52bdad26b)">
     <use style="fill:#4b6c8e;stroke:#4b6c8e;stroke-width:0.3;" x="477.916137" xlink:href="#C0_0_d28ed14701" y="259.401266"/>
    </g>
    <g clip-path="url(#pc52bdad26b)">
     <use style="fill:#4b6c8e;stroke:#4b6c8e;stroke-width:0.3;" x="461.107395" xlink:href="#C0_0_d28ed14701" y="375.766743"/>
    </g>
    <g clip-path="url(#pc52bdad26b)">
     <use style="fill:#4b6c8e;stroke:#4b6c8e;stroke-width:0.3;" x="454.29677" xlink:href="#C0_0_d28ed14701" y="234.353995"/>
    </g>
    <g clip-path="url(#pc52bdad26b)">
     <use style="fill:#4b6c8e;stroke:#4b6c8e;stroke-width:0.3;" x="469.850853" xlink:href="#C0_0_d28ed14701" y="362.815211"/>
    </g>
    <g clip-path="url(#pc52bdad26b)">
     <use style="fill:#4b6c8e;stroke:#4b6c8e;stroke-width:0.3;" x="488.661668" xlink:href="#C0_0_d28ed14701" y="343.716177"/>
    </g>
    <g clip-path="url(#pc52bdad26b)">
     <use style="fill:#4b6c8e;stroke:#4b6c8e;stroke-width:0.3;" x="488.918056" xlink:href="#C0_0_d28ed14701" y="410.660149"/>
    </g>
    <g clip-path="url(#pc52bdad26b)">
     <use style="fill:#4b6c8e;stroke:#4b6c8e;stroke-width:0.3;" x="384.294931" xlink:href="#C0_0_d28ed14701" y="112.156158"/>
    </g>
    <g clip-path="url(#pc52bdad26b)">
     <use style="fill:#4b6c8e;stroke:#4b6c8e;stroke-width:0.3;" x="459.353438" xlink:href="#C0_0_d28ed14701" y="110.190951"/>
    </g>
    <g clip-path="url(#pc52bdad26b)">
     <use style="fill:#4b6c8e;stroke:#4b6c8e;stroke-width:0.3;" x="453.986529" xlink:href="#C0_0_d28ed14701" y="177.529"/>
    </g>
    <g clip-path="url(#pc52bdad26b)">
     <use style="fill:#4b6c8e;stroke:#4b6c8e;stroke-width:0.3;" x="421.751872" xlink:href="#C0_0_d28ed14701" y="482.04845"/>
    </g>
    <g clip-path="url(#pc52bdad26b)">
     <use style="fill:#4b6c8e;stroke:#4b6c8e;stroke-width:0.3;" x="275.438978" xlink:href="#C0_0_d28ed14701" y="467.288888"/>
    </g>
    <g clip-path="url(#pc52bdad26b)">
     <use style="fill:#4b6c8e;stroke:#4b6c8e;stroke-width:0.3;" x="372.379463" xlink:href="#C0_0_d28ed14701" y="100.139936"/>
    </g>
    <g clip-path="url(#pc52bdad26b)">
     <use style="fill:#4b6c8e;stroke:#4b6c8e;stroke-width:0.3;" x="121.985628" xlink:href="#C0_0_d28ed14701" y="478.237092"/>
    </g>
    <g clip-path="url(#pc52bdad26b)">
     <use style="fill:#4b6c8e;stroke:#4b6c8e;stroke-width:0.3;" x="125.651205" xlink:href="#C0_0_d28ed14701" y="481.351371"/>
    </g>
   </g>
  </g>
 </g>
 <defs>
  <clipPath id="pc52bdad26b">
   <rect height="443.52" width="446.4" x="72" y="69.12"/>
  </clipPath>
 </defs>
</svg>
