<?xml version="1.0" encoding="utf-8" standalone="no"?>
<!DOCTYPE svg PUBLIC "-//W3C//DTD SVG 1.1//EN"
  "http://www.w3.org/Graphics/SVG/1.1/DTD/svg11.dtd">
<!-- Created with matplotlib (http://matplotlib.org/) -->
<svg height="576pt" version="1.1" viewBox="0 0 576 576" width="576pt" xmlns="http://www.w3.org/2000/svg" xmlns:xlink="http://www.w3.org/1999/xlink">
 <defs>
  <style type="text/css">
*{stroke-linecap:butt;stroke-linejoin:round;}
  </style>
 </defs>
 <g id="figure_1">
  <g id="patch_1">
   <path d="M 0 576 
L 576 576 
L 576 0 
L 0 0 
z
" style="fill:#ffffff;"/>
  </g>
  <g id="axes_1">
   <g id="LineCollection_1">
    <path clip-path="url(#pd4b5b3261e)" d="M 376.49818 300.258032 
L 369.22127 164.235606 
" style="fill:none;stroke:#000000;stroke-opacity:0.4;"/>
    <path clip-path="url(#pd4b5b3261e)" d="M 376.49818 300.258032 
L 228.287326 210.089838 
" style="fill:none;stroke:#000000;stroke-opacity:0.4;"/>
    <path clip-path="url(#pd4b5b3261e)" d="M 376.49818 300.258032 
L 289.311198 409.030584 
" style="fill:none;stroke:#000000;stroke-opacity:0.4;"/>
    <path clip-path="url(#pd4b5b3261e)" d="M 376.49818 300.258032 
L 456.204699 176.492651 
" style="fill:none;stroke:#000000;stroke-opacity:0.4;"/>
    <path clip-path="url(#pd4b5b3261e)" d="M 376.49818 300.258032 
L 244.163216 400.495965 
" style="fill:none;stroke:#000000;stroke-opacity:0.4;"/>
    <path clip-path="url(#pd4b5b3261e)" d="M 376.49818 300.258032 
L 241.023958 360.65364 
" style="fill:none;stroke:#000000;stroke-opacity:0.4;"/>
    <path clip-path="url(#pd4b5b3261e)" d="M 376.49818 300.258032 
L 419.607563 456.490103 
" style="fill:none;stroke:#000000;stroke-opacity:0.4;"/>
    <path clip-path="url(#pd4b5b3261e)" d="M 376.49818 300.258032 
L 333.313187 454.589397 
" style="fill:none;stroke:#000000;stroke-opacity:0.4;"/>
    <path clip-path="url(#pd4b5b3261e)" d="M 376.49818 300.258032 
L 350.548516 327.73728 
" style="fill:none;stroke:#000000;stroke-opacity:0.4;"/>
    <path clip-path="url(#pd4b5b3261e)" d="M 376.49818 300.258032 
L 420.717778 146.526998 
" style="fill:none;stroke:#000000;stroke-opacity:0.4;"/>
    <path clip-path="url(#pd4b5b3261e)" d="M 376.49818 300.258032 
L 397.314805 345.766099 
" style="fill:none;stroke:#000000;stroke-opacity:0.4;"/>
    <path clip-path="url(#pd4b5b3261e)" d="M 376.49818 300.258032 
L 408.670181 191.725283 
" style="fill:none;stroke:#000000;stroke-opacity:0.4;"/>
    <path clip-path="url(#pd4b5b3261e)" d="M 408.670181 191.725283 
L 369.22127 164.235606 
" style="fill:none;stroke:#000000;stroke-opacity:0.4;"/>
    <path clip-path="url(#pd4b5b3261e)" d="M 408.670181 191.725283 
L 456.204699 176.492651 
" style="fill:none;stroke:#000000;stroke-opacity:0.4;"/>
    <path clip-path="url(#pd4b5b3261e)" d="M 408.670181 191.725283 
L 350.548516 327.73728 
" style="fill:none;stroke:#000000;stroke-opacity:0.4;"/>
    <path clip-path="url(#pd4b5b3261e)" d="M 408.670181 191.725283 
L 420.717778 146.526998 
" style="fill:none;stroke:#000000;stroke-opacity:0.4;"/>
    <path clip-path="url(#pd4b5b3261e)" d="M 408.670181 191.725283 
L 397.314805 345.766099 
" style="fill:none;stroke:#000000;stroke-opacity:0.4;"/>
    <path clip-path="url(#pd4b5b3261e)" d="M 190.325608 436.552308 
L 184.514656 319.285202 
" style="fill:none;stroke:#000000;stroke-opacity:0.4;"/>
    <path clip-path="url(#pd4b5b3261e)" d="M 190.325608 436.552308 
L 289.311198 409.030584 
" style="fill:none;stroke:#000000;stroke-opacity:0.4;"/>
    <path clip-path="url(#pd4b5b3261e)" d="M 190.325608 436.552308 
L 185.343481 353.115861 
" style="fill:none;stroke:#000000;stroke-opacity:0.4;"/>
    <path clip-path="url(#pd4b5b3261e)" d="M 190.325608 436.552308 
L 244.163216 400.495965 
" style="fill:none;stroke:#000000;stroke-opacity:0.4;"/>
    <path clip-path="url(#pd4b5b3261e)" d="M 190.325608 436.552308 
L 241.023958 360.65364 
" style="fill:none;stroke:#000000;stroke-opacity:0.4;"/>
    <path clip-path="url(#pd4b5b3261e)" d="M 190.325608 436.552308 
L 166.015501 421.125445 
" style="fill:none;stroke:#000000;stroke-opacity:0.4;"/>
    <path clip-path="url(#pd4b5b3261e)" d="M 190.325608 436.552308 
L 109.517836 348.106311 
" style="fill:none;stroke:#000000;stroke-opacity:0.4;"/>
    <path clip-path="url(#pd4b5b3261e)" d="M 190.325608 436.552308 
L 333.313187 454.589397 
" style="fill:none;stroke:#000000;stroke-opacity:0.4;"/>
    <path clip-path="url(#pd4b5b3261e)" d="M 397.314805 345.766099 
L 289.311198 409.030584 
" style="fill:none;stroke:#000000;stroke-opacity:0.4;"/>
    <path clip-path="url(#pd4b5b3261e)" d="M 397.314805 345.766099 
L 244.163216 400.495965 
" style="fill:none;stroke:#000000;stroke-opacity:0.4;"/>
    <path clip-path="url(#pd4b5b3261e)" d="M 397.314805 345.766099 
L 241.023958 360.65364 
" style="fill:none;stroke:#000000;stroke-opacity:0.4;"/>
    <path clip-path="url(#pd4b5b3261e)" d="M 397.314805 345.766099 
L 419.607563 456.490103 
" style="fill:none;stroke:#000000;stroke-opacity:0.4;"/>
    <path clip-path="url(#pd4b5b3261e)" d="M 397.314805 345.766099 
L 333.313187 454.589397 
" style="fill:none;stroke:#000000;stroke-opacity:0.4;"/>
    <path clip-path="url(#pd4b5b3261e)" d="M 397.314805 345.766099 
L 350.548516 327.73728 
" style="fill:none;stroke:#000000;stroke-opacity:0.4;"/>
    <path clip-path="url(#pd4b5b3261e)" d="M 420.717778 146.526998 
L 369.22127 164.235606 
" style="fill:none;stroke:#000000;stroke-opacity:0.4;"/>
    <path clip-path="url(#pd4b5b3261e)" d="M 420.717778 146.526998 
L 456.204699 176.492651 
" style="fill:none;stroke:#000000;stroke-opacity:0.4;"/>
    <path clip-path="url(#pd4b5b3261e)" d="M 350.548516 327.73728 
L 369.22127 164.235606 
" style="fill:none;stroke:#000000;stroke-opacity:0.4;"/>
    <path clip-path="url(#pd4b5b3261e)" d="M 350.548516 327.73728 
L 228.287326 210.089838 
" style="fill:none;stroke:#000000;stroke-opacity:0.4;"/>
    <path clip-path="url(#pd4b5b3261e)" d="M 350.548516 327.73728 
L 184.514656 319.285202 
" style="fill:none;stroke:#000000;stroke-opacity:0.4;"/>
    <path clip-path="url(#pd4b5b3261e)" d="M 350.548516 327.73728 
L 289.311198 409.030584 
" style="fill:none;stroke:#000000;stroke-opacity:0.4;"/>
    <path clip-path="url(#pd4b5b3261e)" d="M 350.548516 327.73728 
L 185.343481 353.115861 
" style="fill:none;stroke:#000000;stroke-opacity:0.4;"/>
    <path clip-path="url(#pd4b5b3261e)" d="M 350.548516 327.73728 
L 244.163216 400.495965 
" style="fill:none;stroke:#000000;stroke-opacity:0.4;"/>
    <path clip-path="url(#pd4b5b3261e)" d="M 350.548516 327.73728 
L 241.023958 360.65364 
" style="fill:none;stroke:#000000;stroke-opacity:0.4;"/>
    <path clip-path="url(#pd4b5b3261e)" d="M 350.548516 327.73728 
L 419.607563 456.490103 
" style="fill:none;stroke:#000000;stroke-opacity:0.4;"/>
    <path clip-path="url(#pd4b5b3261e)" d="M 350.548516 327.73728 
L 333.313187 454.589397 
" style="fill:none;stroke:#000000;stroke-opacity:0.4;"/>
    <path clip-path="url(#pd4b5b3261e)" d="M 333.313187 454.589397 
L 289.311198 409.030584 
" style="fill:none;stroke:#000000;stroke-opacity:0.4;"/>
    <path clip-path="url(#pd4b5b3261e)" d="M 333.313187 454.589397 
L 244.163216 400.495965 
" style="fill:none;stroke:#000000;stroke-opacity:0.4;"/>
    <path clip-path="url(#pd4b5b3261e)" d="M 333.313187 454.589397 
L 241.023958 360.65364 
" style="fill:none;stroke:#000000;stroke-opacity:0.4;"/>
    <path clip-path="url(#pd4b5b3261e)" d="M 333.313187 454.589397 
L 166.015501 421.125445 
" style="fill:none;stroke:#000000;stroke-opacity:0.4;"/>
    <path clip-path="url(#pd4b5b3261e)" d="M 333.313187 454.589397 
L 419.607563 456.490103 
" style="fill:none;stroke:#000000;stroke-opacity:0.4;"/>
    <path clip-path="url(#pd4b5b3261e)" d="M 193.959453 230.97451 
L 143.498254 105.641296 
" style="fill:none;stroke:#000000;stroke-opacity:0.4;"/>
    <path clip-path="url(#pd4b5b3261e)" d="M 193.959453 230.97451 
L 228.287326 210.089838 
" style="fill:none;stroke:#000000;stroke-opacity:0.4;"/>
    <path clip-path="url(#pd4b5b3261e)" d="M 193.959453 230.97451 
L 184.514656 319.285202 
" style="fill:none;stroke:#000000;stroke-opacity:0.4;"/>
    <path clip-path="url(#pd4b5b3261e)" d="M 193.959453 230.97451 
L 185.343481 353.115861 
" style="fill:none;stroke:#000000;stroke-opacity:0.4;"/>
    <path clip-path="url(#pd4b5b3261e)" d="M 193.959453 230.97451 
L 241.023958 360.65364 
" style="fill:none;stroke:#000000;stroke-opacity:0.4;"/>
    <path clip-path="url(#pd4b5b3261e)" d="M 193.959453 230.97451 
L 109.517836 348.106311 
" style="fill:none;stroke:#000000;stroke-opacity:0.4;"/>
    <path clip-path="url(#pd4b5b3261e)" d="M 419.607563 456.490103 
L 289.311198 409.030584 
" style="fill:none;stroke:#000000;stroke-opacity:0.4;"/>
    <path clip-path="url(#pd4b5b3261e)" d="M 109.517836 348.106311 
L 184.514656 319.285202 
" style="fill:none;stroke:#000000;stroke-opacity:0.4;"/>
    <path clip-path="url(#pd4b5b3261e)" d="M 109.517836 348.106311 
L 185.343481 353.115861 
" style="fill:none;stroke:#000000;stroke-opacity:0.4;"/>
    <path clip-path="url(#pd4b5b3261e)" d="M 109.517836 348.106311 
L 244.163216 400.495965 
" style="fill:none;stroke:#000000;stroke-opacity:0.4;"/>
    <path clip-path="url(#pd4b5b3261e)" d="M 109.517836 348.106311 
L 241.023958 360.65364 
" style="fill:none;stroke:#000000;stroke-opacity:0.4;"/>
    <path clip-path="url(#pd4b5b3261e)" d="M 109.517836 348.106311 
L 166.015501 421.125445 
" style="fill:none;stroke:#000000;stroke-opacity:0.4;"/>
    <path clip-path="url(#pd4b5b3261e)" d="M 166.015501 421.125445 
L 184.514656 319.285202 
" style="fill:none;stroke:#000000;stroke-opacity:0.4;"/>
    <path clip-path="url(#pd4b5b3261e)" d="M 166.015501 421.125445 
L 289.311198 409.030584 
" style="fill:none;stroke:#000000;stroke-opacity:0.4;"/>
    <path clip-path="url(#pd4b5b3261e)" d="M 166.015501 421.125445 
L 185.343481 353.115861 
" style="fill:none;stroke:#000000;stroke-opacity:0.4;"/>
    <path clip-path="url(#pd4b5b3261e)" d="M 166.015501 421.125445 
L 244.163216 400.495965 
" style="fill:none;stroke:#000000;stroke-opacity:0.4;"/>
    <path clip-path="url(#pd4b5b3261e)" d="M 166.015501 421.125445 
L 241.023958 360.65364 
" style="fill:none;stroke:#000000;stroke-opacity:0.4;"/>
    <path clip-path="url(#pd4b5b3261e)" d="M 241.023958 360.65364 
L 228.287326 210.089838 
" style="fill:none;stroke:#000000;stroke-opacity:0.4;"/>
    <path clip-path="url(#pd4b5b3261e)" d="M 241.023958 360.65364 
L 184.514656 319.285202 
" style="fill:none;stroke:#000000;stroke-opacity:0.4;"/>
    <path clip-path="url(#pd4b5b3261e)" d="M 241.023958 360.65364 
L 289.311198 409.030584 
" style="fill:none;stroke:#000000;stroke-opacity:0.4;"/>
    <path clip-path="url(#pd4b5b3261e)" d="M 241.023958 360.65364 
L 185.343481 353.115861 
" style="fill:none;stroke:#000000;stroke-opacity:0.4;"/>
    <path clip-path="url(#pd4b5b3261e)" d="M 241.023958 360.65364 
L 244.163216 400.495965 
" style="fill:none;stroke:#000000;stroke-opacity:0.4;"/>
    <path clip-path="url(#pd4b5b3261e)" d="M 244.163216 400.495965 
L 184.514656 319.285202 
" style="fill:none;stroke:#000000;stroke-opacity:0.4;"/>
    <path clip-path="url(#pd4b5b3261e)" d="M 244.163216 400.495965 
L 289.311198 409.030584 
" style="fill:none;stroke:#000000;stroke-opacity:0.4;"/>
    <path clip-path="url(#pd4b5b3261e)" d="M 244.163216 400.495965 
L 185.343481 353.115861 
" style="fill:none;stroke:#000000;stroke-opacity:0.4;"/>
    <path clip-path="url(#pd4b5b3261e)" d="M 185.343481 353.115861 
L 228.287326 210.089838 
" style="fill:none;stroke:#000000;stroke-opacity:0.4;"/>
    <path clip-path="url(#pd4b5b3261e)" d="M 185.343481 353.115861 
L 184.514656 319.285202 
" style="fill:none;stroke:#000000;stroke-opacity:0.4;"/>
    <path clip-path="url(#pd4b5b3261e)" d="M 185.343481 353.115861 
L 289.311198 409.030584 
" style="fill:none;stroke:#000000;stroke-opacity:0.4;"/>
    <path clip-path="url(#pd4b5b3261e)" d="M 456.204699 176.492651 
L 369.22127 164.235606 
" style="fill:none;stroke:#000000;stroke-opacity:0.4;"/>
    <path clip-path="url(#pd4b5b3261e)" d="M 289.311198 409.030584 
L 184.514656 319.285202 
" style="fill:none;stroke:#000000;stroke-opacity:0.4;"/>
    <path clip-path="url(#pd4b5b3261e)" d="M 184.514656 319.285202 
L 228.287326 210.089838 
" style="fill:none;stroke:#000000;stroke-opacity:0.4;"/>
    <path clip-path="url(#pd4b5b3261e)" d="M 228.287326 210.089838 
L 143.498254 105.641296 
" style="fill:none;stroke:#000000;stroke-opacity:0.4;"/>
    <path clip-path="url(#pd4b5b3261e)" d="M 228.287326 210.089838 
L 369.22127 164.235606 
" style="fill:none;stroke:#000000;stroke-opacity:0.4;"/>
   </g>
   <g id="PathCollection_1">
    <defs>
     <path d="M 0 4.472136 
C 1.186024 4.472136 2.323632 4.000923 3.162278 3.162278 
C 4.000923 2.323632 4.472136 1.186024 4.472136 0 
C 4.472136 -1.186024 4.000923 -2.323632 3.162278 -3.162278 
C 2.323632 -4.000923 1.186024 -4.472136 0 -4.472136 
C -1.186024 -4.472136 -2.323632 -4.000923 -3.162278 -3.162278 
C -4.000923 -2.323632 -4.472136 -1.186024 -4.472136 0 
C -4.472136 1.186024 -4.000923 2.323632 -3.162278 3.162278 
C -2.323632 4.000923 -1.186024 4.472136 0 4.472136 
z
" id="C0_0_6cf2399d74"/>
    </defs>
    <g clip-path="url(#pd4b5b3261e)">
     <use style="fill:#6daea1;stroke:#6daea1;stroke-width:0.3;" x="350.548516" xlink:href="#C0_0_6cf2399d74" y="327.73728"/>
    </g>
    <g clip-path="url(#pd4b5b3261e)">
     <use style="fill:#578e9b;stroke:#578e9b;stroke-width:0.3;" x="369.22127" xlink:href="#C0_0_6cf2399d74" y="164.235606"/>
    </g>
    <g clip-path="url(#pd4b5b3261e)">
     <use style="fill:#578e9b;stroke:#578e9b;stroke-width:0.3;" x="228.287326" xlink:href="#C0_0_6cf2399d74" y="210.089838"/>
    </g>
    <g clip-path="url(#pd4b5b3261e)">
     <use style="fill:#578e9b;stroke:#578e9b;stroke-width:0.3;" x="184.514656" xlink:href="#C0_0_6cf2399d74" y="319.285202"/>
    </g>
    <g clip-path="url(#pd4b5b3261e)">
     <use style="fill:#578e9b;stroke:#578e9b;stroke-width:0.3;" x="289.311198" xlink:href="#C0_0_6cf2399d74" y="409.030584"/>
    </g>
    <g clip-path="url(#pd4b5b3261e)">
     <use style="fill:#578e9b;stroke:#578e9b;stroke-width:0.3;" x="185.343481" xlink:href="#C0_0_6cf2399d74" y="353.115861"/>
    </g>
    <g clip-path="url(#pd4b5b3261e)">
     <use style="fill:#578e9b;stroke:#578e9b;stroke-width:0.3;" x="244.163216" xlink:href="#C0_0_6cf2399d74" y="400.495965"/>
    </g>
    <g clip-path="url(#pd4b5b3261e)">
     <use style="fill:#578e9b;stroke:#578e9b;stroke-width:0.3;" x="241.023958" xlink:href="#C0_0_6cf2399d74" y="360.65364"/>
    </g>
    <g clip-path="url(#pd4b5b3261e)">
     <use style="fill:#578e9b;stroke:#578e9b;stroke-width:0.3;" x="419.607563" xlink:href="#C0_0_6cf2399d74" y="456.490103"/>
    </g>
    <g clip-path="url(#pd4b5b3261e)">
     <use style="fill:#578e9b;stroke:#578e9b;stroke-width:0.3;" x="333.313187" xlink:href="#C0_0_6cf2399d74" y="454.589397"/>
    </g>
    <g clip-path="url(#pd4b5b3261e)">
     <use style="fill:#578e9b;stroke:#578e9b;stroke-width:0.3;" x="376.49818" xlink:href="#C0_0_6cf2399d74" y="300.258032"/>
    </g>
    <g clip-path="url(#pd4b5b3261e)">
     <use style="fill:#578e9b;stroke:#578e9b;stroke-width:0.3;" x="408.670181" xlink:href="#C0_0_6cf2399d74" y="191.725283"/>
    </g>
    <g clip-path="url(#pd4b5b3261e)">
     <use style="fill:#578e9b;stroke:#578e9b;stroke-width:0.3;" x="397.314805" xlink:href="#C0_0_6cf2399d74" y="345.766099"/>
    </g>
    <g clip-path="url(#pd4b5b3261e)">
     <use style="fill:#4b6c8e;stroke:#4b6c8e;stroke-width:0.3;" x="420.717778" xlink:href="#C0_0_6cf2399d74" y="146.526998"/>
    </g>
    <g clip-path="url(#pd4b5b3261e)">
     <use style="fill:#4b6c8e;stroke:#4b6c8e;stroke-width:0.3;" x="456.204699" xlink:href="#C0_0_6cf2399d74" y="176.492651"/>
    </g>
    <g clip-path="url(#pd4b5b3261e)">
     <use style="fill:#4b6c8e;stroke:#4b6c8e;stroke-width:0.3;" x="143.498254" xlink:href="#C0_0_6cf2399d74" y="105.641296"/>
    </g>
    <g clip-path="url(#pd4b5b3261e)">
     <use style="fill:#4b6c8e;stroke:#4b6c8e;stroke-width:0.3;" x="193.959453" xlink:href="#C0_0_6cf2399d74" y="230.97451"/>
    </g>
    <g clip-path="url(#pd4b5b3261e)">
     <use style="fill:#4b6c8e;stroke:#4b6c8e;stroke-width:0.3;" x="190.325608" xlink:href="#C0_0_6cf2399d74" y="436.552308"/>
    </g>
    <g clip-path="url(#pd4b5b3261e)">
     <use style="fill:#4b6c8e;stroke:#4b6c8e;stroke-width:0.3;" x="109.517836" xlink:href="#C0_0_6cf2399d74" y="348.106311"/>
    </g>
    <g clip-path="url(#pd4b5b3261e)">
     <use style="fill:#4b6c8e;stroke:#4b6c8e;stroke-width:0.3;" x="166.015501" xlink:href="#C0_0_6cf2399d74" y="421.125445"/>
    </g>
   </g>
  </g>
 </g>
 <defs>
  <clipPath id="pd4b5b3261e">
   <rect height="443.52" width="446.4" x="72" y="69.12"/>
  </clipPath>
 </defs>
</svg>
