<?xml version="1.0" encoding="utf-8" standalone="no"?>
<!DOCTYPE svg PUBLIC "-//W3C//DTD SVG 1.1//EN"
  "http://www.w3.org/Graphics/SVG/1.1/DTD/svg11.dtd">
<!-- Created with matplotlib (http://matplotlib.org/) -->
<svg height="576pt" version="1.1" viewBox="0 0 576 576" width="576pt" xmlns="http://www.w3.org/2000/svg" xmlns:xlink="http://www.w3.org/1999/xlink">
 <defs>
  <style type="text/css">
*{stroke-linecap:butt;stroke-linejoin:round;}
  </style>
 </defs>
 <g id="figure_1">
  <g id="patch_1">
   <path d="M 0 576 
L 576 576 
L 576 0 
L 0 0 
z
" style="fill:#ffffff;"/>
  </g>
  <g id="axes_1">
   <g id="LineCollection_1">
    <path clip-path="url(#p2e4f2ac7da)" d="M 260.624195 334.044387 
L 263.624715 462.465177 
" style="fill:none;stroke:#000000;stroke-opacity:0.4;"/>
    <path clip-path="url(#p2e4f2ac7da)" d="M 260.624195 334.044387 
L 238.974076 458.367208 
" style="fill:none;stroke:#000000;stroke-opacity:0.4;"/>
    <path clip-path="url(#p2e4f2ac7da)" d="M 260.624195 334.044387 
L 325.862694 438.749663 
" style="fill:none;stroke:#000000;stroke-opacity:0.4;"/>
    <path clip-path="url(#p2e4f2ac7da)" d="M 260.624195 334.044387 
L 361.415202 297.132591 
" style="fill:none;stroke:#000000;stroke-opacity:0.4;"/>
    <path clip-path="url(#p2e4f2ac7da)" d="M 260.624195 334.044387 
L 345.361863 377.169343 
" style="fill:none;stroke:#000000;stroke-opacity:0.4;"/>
    <path clip-path="url(#p2e4f2ac7da)" d="M 260.624195 334.044387 
L 212.625119 226.642654 
" style="fill:none;stroke:#000000;stroke-opacity:0.4;"/>
    <path clip-path="url(#p2e4f2ac7da)" d="M 260.624195 334.044387 
L 316.289367 322.826277 
" style="fill:none;stroke:#000000;stroke-opacity:0.4;"/>
    <path clip-path="url(#p2e4f2ac7da)" d="M 260.624195 334.044387 
L 212.57232 219.78162 
" style="fill:none;stroke:#000000;stroke-opacity:0.4;"/>
    <path clip-path="url(#p2e4f2ac7da)" d="M 260.624195 334.044387 
L 222.854083 301.381516 
" style="fill:none;stroke:#000000;stroke-opacity:0.4;"/>
    <path clip-path="url(#p2e4f2ac7da)" d="M 260.624195 334.044387 
L 129.02235 232.026425 
" style="fill:none;stroke:#000000;stroke-opacity:0.4;"/>
    <path clip-path="url(#p2e4f2ac7da)" d="M 260.624195 334.044387 
L 370.028406 443.384971 
" style="fill:none;stroke:#000000;stroke-opacity:0.4;"/>
    <path clip-path="url(#p2e4f2ac7da)" d="M 260.624195 334.044387 
L 212.911066 373.604715 
" style="fill:none;stroke:#000000;stroke-opacity:0.4;"/>
    <path clip-path="url(#p2e4f2ac7da)" d="M 200.332062 113.759132 
L 179.392272 96.831621 
" style="fill:none;stroke:#000000;stroke-opacity:0.4;"/>
    <path clip-path="url(#p2e4f2ac7da)" d="M 200.332062 113.759132 
L 356.597359 105.354729 
" style="fill:none;stroke:#000000;stroke-opacity:0.4;"/>
    <path clip-path="url(#p2e4f2ac7da)" d="M 200.332062 113.759132 
L 212.625119 226.642654 
" style="fill:none;stroke:#000000;stroke-opacity:0.4;"/>
    <path clip-path="url(#p2e4f2ac7da)" d="M 200.332062 113.759132 
L 250.893824 123.815632 
" style="fill:none;stroke:#000000;stroke-opacity:0.4;"/>
    <path clip-path="url(#p2e4f2ac7da)" d="M 200.332062 113.759132 
L 212.57232 219.78162 
" style="fill:none;stroke:#000000;stroke-opacity:0.4;"/>
    <path clip-path="url(#p2e4f2ac7da)" d="M 200.332062 113.759132 
L 129.02235 232.026425 
" style="fill:none;stroke:#000000;stroke-opacity:0.4;"/>
    <path clip-path="url(#p2e4f2ac7da)" d="M 212.911066 373.604715 
L 263.624715 462.465177 
" style="fill:none;stroke:#000000;stroke-opacity:0.4;"/>
    <path clip-path="url(#p2e4f2ac7da)" d="M 212.911066 373.604715 
L 238.974076 458.367208 
" style="fill:none;stroke:#000000;stroke-opacity:0.4;"/>
    <path clip-path="url(#p2e4f2ac7da)" d="M 212.911066 373.604715 
L 325.862694 438.749663 
" style="fill:none;stroke:#000000;stroke-opacity:0.4;"/>
    <path clip-path="url(#p2e4f2ac7da)" d="M 212.911066 373.604715 
L 361.415202 297.132591 
" style="fill:none;stroke:#000000;stroke-opacity:0.4;"/>
    <path clip-path="url(#p2e4f2ac7da)" d="M 212.911066 373.604715 
L 345.361863 377.169343 
" style="fill:none;stroke:#000000;stroke-opacity:0.4;"/>
    <path clip-path="url(#p2e4f2ac7da)" d="M 212.911066 373.604715 
L 212.625119 226.642654 
" style="fill:none;stroke:#000000;stroke-opacity:0.4;"/>
    <path clip-path="url(#p2e4f2ac7da)" d="M 212.911066 373.604715 
L 316.289367 322.826277 
" style="fill:none;stroke:#000000;stroke-opacity:0.4;"/>
    <path clip-path="url(#p2e4f2ac7da)" d="M 212.911066 373.604715 
L 212.57232 219.78162 
" style="fill:none;stroke:#000000;stroke-opacity:0.4;"/>
    <path clip-path="url(#p2e4f2ac7da)" d="M 212.911066 373.604715 
L 222.854083 301.381516 
" style="fill:none;stroke:#000000;stroke-opacity:0.4;"/>
    <path clip-path="url(#p2e4f2ac7da)" d="M 212.911066 373.604715 
L 129.02235 232.026425 
" style="fill:none;stroke:#000000;stroke-opacity:0.4;"/>
    <path clip-path="url(#p2e4f2ac7da)" d="M 212.911066 373.604715 
L 370.028406 443.384971 
" style="fill:none;stroke:#000000;stroke-opacity:0.4;"/>
    <path clip-path="url(#p2e4f2ac7da)" d="M 445.536471 197.314121 
L 360.616327 188.034278 
" style="fill:none;stroke:#000000;stroke-opacity:0.4;"/>
    <path clip-path="url(#p2e4f2ac7da)" d="M 445.536471 197.314121 
L 356.597359 105.354729 
" style="fill:none;stroke:#000000;stroke-opacity:0.4;"/>
    <path clip-path="url(#p2e4f2ac7da)" d="M 445.536471 197.314121 
L 361.415202 297.132591 
" style="fill:none;stroke:#000000;stroke-opacity:0.4;"/>
    <path clip-path="url(#p2e4f2ac7da)" d="M 370.028406 443.384971 
L 263.624715 462.465177 
" style="fill:none;stroke:#000000;stroke-opacity:0.4;"/>
    <path clip-path="url(#p2e4f2ac7da)" d="M 370.028406 443.384971 
L 238.974076 458.367208 
" style="fill:none;stroke:#000000;stroke-opacity:0.4;"/>
    <path clip-path="url(#p2e4f2ac7da)" d="M 370.028406 443.384971 
L 325.862694 438.749663 
" style="fill:none;stroke:#000000;stroke-opacity:0.4;"/>
    <path clip-path="url(#p2e4f2ac7da)" d="M 370.028406 443.384971 
L 361.415202 297.132591 
" style="fill:none;stroke:#000000;stroke-opacity:0.4;"/>
    <path clip-path="url(#p2e4f2ac7da)" d="M 370.028406 443.384971 
L 453.375093 454.405901 
" style="fill:none;stroke:#000000;stroke-opacity:0.4;"/>
    <path clip-path="url(#p2e4f2ac7da)" d="M 370.028406 443.384971 
L 345.361863 377.169343 
" style="fill:none;stroke:#000000;stroke-opacity:0.4;"/>
    <path clip-path="url(#p2e4f2ac7da)" d="M 370.028406 443.384971 
L 316.289367 322.826277 
" style="fill:none;stroke:#000000;stroke-opacity:0.4;"/>
    <path clip-path="url(#p2e4f2ac7da)" d="M 129.02235 232.026425 
L 179.392272 96.831621 
" style="fill:none;stroke:#000000;stroke-opacity:0.4;"/>
    <path clip-path="url(#p2e4f2ac7da)" d="M 129.02235 232.026425 
L 212.625119 226.642654 
" style="fill:none;stroke:#000000;stroke-opacity:0.4;"/>
    <path clip-path="url(#p2e4f2ac7da)" d="M 129.02235 232.026425 
L 250.893824 123.815632 
" style="fill:none;stroke:#000000;stroke-opacity:0.4;"/>
    <path clip-path="url(#p2e4f2ac7da)" d="M 129.02235 232.026425 
L 212.57232 219.78162 
" style="fill:none;stroke:#000000;stroke-opacity:0.4;"/>
    <path clip-path="url(#p2e4f2ac7da)" d="M 129.02235 232.026425 
L 222.854083 301.381516 
" style="fill:none;stroke:#000000;stroke-opacity:0.4;"/>
    <path clip-path="url(#p2e4f2ac7da)" d="M 222.854083 301.381516 
L 263.624715 462.465177 
" style="fill:none;stroke:#000000;stroke-opacity:0.4;"/>
    <path clip-path="url(#p2e4f2ac7da)" d="M 222.854083 301.381516 
L 238.974076 458.367208 
" style="fill:none;stroke:#000000;stroke-opacity:0.4;"/>
    <path clip-path="url(#p2e4f2ac7da)" d="M 222.854083 301.381516 
L 325.862694 438.749663 
" style="fill:none;stroke:#000000;stroke-opacity:0.4;"/>
    <path clip-path="url(#p2e4f2ac7da)" d="M 222.854083 301.381516 
L 361.415202 297.132591 
" style="fill:none;stroke:#000000;stroke-opacity:0.4;"/>
    <path clip-path="url(#p2e4f2ac7da)" d="M 222.854083 301.381516 
L 345.361863 377.169343 
" style="fill:none;stroke:#000000;stroke-opacity:0.4;"/>
    <path clip-path="url(#p2e4f2ac7da)" d="M 222.854083 301.381516 
L 212.625119 226.642654 
" style="fill:none;stroke:#000000;stroke-opacity:0.4;"/>
    <path clip-path="url(#p2e4f2ac7da)" d="M 222.854083 301.381516 
L 316.289367 322.826277 
" style="fill:none;stroke:#000000;stroke-opacity:0.4;"/>
    <path clip-path="url(#p2e4f2ac7da)" d="M 222.854083 301.381516 
L 212.57232 219.78162 
" style="fill:none;stroke:#000000;stroke-opacity:0.4;"/>
    <path clip-path="url(#p2e4f2ac7da)" d="M 212.57232 219.78162 
L 179.392272 96.831621 
" style="fill:none;stroke:#000000;stroke-opacity:0.4;"/>
    <path clip-path="url(#p2e4f2ac7da)" d="M 212.57232 219.78162 
L 360.616327 188.034278 
" style="fill:none;stroke:#000000;stroke-opacity:0.4;"/>
    <path clip-path="url(#p2e4f2ac7da)" d="M 212.57232 219.78162 
L 361.415202 297.132591 
" style="fill:none;stroke:#000000;stroke-opacity:0.4;"/>
    <path clip-path="url(#p2e4f2ac7da)" d="M 212.57232 219.78162 
L 212.625119 226.642654 
" style="fill:none;stroke:#000000;stroke-opacity:0.4;"/>
    <path clip-path="url(#p2e4f2ac7da)" d="M 212.57232 219.78162 
L 250.893824 123.815632 
" style="fill:none;stroke:#000000;stroke-opacity:0.4;"/>
    <path clip-path="url(#p2e4f2ac7da)" d="M 212.57232 219.78162 
L 316.289367 322.826277 
" style="fill:none;stroke:#000000;stroke-opacity:0.4;"/>
    <path clip-path="url(#p2e4f2ac7da)" d="M 316.289367 322.826277 
L 263.624715 462.465177 
" style="fill:none;stroke:#000000;stroke-opacity:0.4;"/>
    <path clip-path="url(#p2e4f2ac7da)" d="M 316.289367 322.826277 
L 238.974076 458.367208 
" style="fill:none;stroke:#000000;stroke-opacity:0.4;"/>
    <path clip-path="url(#p2e4f2ac7da)" d="M 316.289367 322.826277 
L 325.862694 438.749663 
" style="fill:none;stroke:#000000;stroke-opacity:0.4;"/>
    <path clip-path="url(#p2e4f2ac7da)" d="M 316.289367 322.826277 
L 360.616327 188.034278 
" style="fill:none;stroke:#000000;stroke-opacity:0.4;"/>
    <path clip-path="url(#p2e4f2ac7da)" d="M 316.289367 322.826277 
L 361.415202 297.132591 
" style="fill:none;stroke:#000000;stroke-opacity:0.4;"/>
    <path clip-path="url(#p2e4f2ac7da)" d="M 316.289367 322.826277 
L 345.361863 377.169343 
" style="fill:none;stroke:#000000;stroke-opacity:0.4;"/>
    <path clip-path="url(#p2e4f2ac7da)" d="M 316.289367 322.826277 
L 212.625119 226.642654 
" style="fill:none;stroke:#000000;stroke-opacity:0.4;"/>
    <path clip-path="url(#p2e4f2ac7da)" d="M 250.893824 123.815632 
L 179.392272 96.831621 
" style="fill:none;stroke:#000000;stroke-opacity:0.4;"/>
    <path clip-path="url(#p2e4f2ac7da)" d="M 250.893824 123.815632 
L 360.616327 188.034278 
" style="fill:none;stroke:#000000;stroke-opacity:0.4;"/>
    <path clip-path="url(#p2e4f2ac7da)" d="M 250.893824 123.815632 
L 356.597359 105.354729 
" style="fill:none;stroke:#000000;stroke-opacity:0.4;"/>
    <path clip-path="url(#p2e4f2ac7da)" d="M 250.893824 123.815632 
L 212.625119 226.642654 
" style="fill:none;stroke:#000000;stroke-opacity:0.4;"/>
    <path clip-path="url(#p2e4f2ac7da)" d="M 212.625119 226.642654 
L 179.392272 96.831621 
" style="fill:none;stroke:#000000;stroke-opacity:0.4;"/>
    <path clip-path="url(#p2e4f2ac7da)" d="M 212.625119 226.642654 
L 360.616327 188.034278 
" style="fill:none;stroke:#000000;stroke-opacity:0.4;"/>
    <path clip-path="url(#p2e4f2ac7da)" d="M 212.625119 226.642654 
L 361.415202 297.132591 
" style="fill:none;stroke:#000000;stroke-opacity:0.4;"/>
    <path clip-path="url(#p2e4f2ac7da)" d="M 345.361863 377.169343 
L 263.624715 462.465177 
" style="fill:none;stroke:#000000;stroke-opacity:0.4;"/>
    <path clip-path="url(#p2e4f2ac7da)" d="M 345.361863 377.169343 
L 238.974076 458.367208 
" style="fill:none;stroke:#000000;stroke-opacity:0.4;"/>
    <path clip-path="url(#p2e4f2ac7da)" d="M 345.361863 377.169343 
L 325.862694 438.749663 
" style="fill:none;stroke:#000000;stroke-opacity:0.4;"/>
    <path clip-path="url(#p2e4f2ac7da)" d="M 345.361863 377.169343 
L 361.415202 297.132591 
" style="fill:none;stroke:#000000;stroke-opacity:0.4;"/>
    <path clip-path="url(#p2e4f2ac7da)" d="M 345.361863 377.169343 
L 453.375093 454.405901 
" style="fill:none;stroke:#000000;stroke-opacity:0.4;"/>
    <path clip-path="url(#p2e4f2ac7da)" d="M 453.375093 454.405901 
L 325.862694 438.749663 
" style="fill:none;stroke:#000000;stroke-opacity:0.4;"/>
    <path clip-path="url(#p2e4f2ac7da)" d="M 361.415202 297.132591 
L 325.862694 438.749663 
" style="fill:none;stroke:#000000;stroke-opacity:0.4;"/>
    <path clip-path="url(#p2e4f2ac7da)" d="M 361.415202 297.132591 
L 360.616327 188.034278 
" style="fill:none;stroke:#000000;stroke-opacity:0.4;"/>
    <path clip-path="url(#p2e4f2ac7da)" d="M 356.597359 105.354729 
L 360.616327 188.034278 
" style="fill:none;stroke:#000000;stroke-opacity:0.4;"/>
    <path clip-path="url(#p2e4f2ac7da)" d="M 325.862694 438.749663 
L 263.624715 462.465177 
" style="fill:none;stroke:#000000;stroke-opacity:0.4;"/>
    <path clip-path="url(#p2e4f2ac7da)" d="M 325.862694 438.749663 
L 238.974076 458.367208 
" style="fill:none;stroke:#000000;stroke-opacity:0.4;"/>
    <path clip-path="url(#p2e4f2ac7da)" d="M 238.974076 458.367208 
L 263.624715 462.465177 
" style="fill:none;stroke:#000000;stroke-opacity:0.4;"/>
   </g>
   <g id="PathCollection_1">
    <defs>
     <path d="M 0 4.472136 
C 1.186024 4.472136 2.323632 4.000923 3.162278 3.162278 
C 4.000923 2.323632 4.472136 1.186024 4.472136 0 
C 4.472136 -1.186024 4.000923 -2.323632 3.162278 -3.162278 
C 2.323632 -4.000923 1.186024 -4.472136 0 -4.472136 
C -1.186024 -4.472136 -2.323632 -4.000923 -3.162278 -3.162278 
C -4.000923 -2.323632 -4.472136 -1.186024 -4.472136 0 
C -4.472136 1.186024 -4.000923 2.323632 -3.162278 3.162278 
C -2.323632 4.000923 -1.186024 4.472136 0 4.472136 
z
" id="C0_0_29bf80312f"/>
    </defs>
    <g clip-path="url(#p2e4f2ac7da)">
     <use style="fill:#6daea1;stroke:#6daea1;stroke-width:0.3;" x="316.289367" xlink:href="#C0_0_29bf80312f" y="322.826277"/>
    </g>
    <g clip-path="url(#p2e4f2ac7da)">
     <use style="fill:#578e9b;stroke:#578e9b;stroke-width:0.3;" x="263.624715" xlink:href="#C0_0_29bf80312f" y="462.465177"/>
    </g>
    <g clip-path="url(#p2e4f2ac7da)">
     <use style="fill:#578e9b;stroke:#578e9b;stroke-width:0.3;" x="238.974076" xlink:href="#C0_0_29bf80312f" y="458.367208"/>
    </g>
    <g clip-path="url(#p2e4f2ac7da)">
     <use style="fill:#578e9b;stroke:#578e9b;stroke-width:0.3;" x="325.862694" xlink:href="#C0_0_29bf80312f" y="438.749663"/>
    </g>
    <g clip-path="url(#p2e4f2ac7da)">
     <use style="fill:#578e9b;stroke:#578e9b;stroke-width:0.3;" x="360.616327" xlink:href="#C0_0_29bf80312f" y="188.034278"/>
    </g>
    <g clip-path="url(#p2e4f2ac7da)">
     <use style="fill:#578e9b;stroke:#578e9b;stroke-width:0.3;" x="361.415202" xlink:href="#C0_0_29bf80312f" y="297.132591"/>
    </g>
    <g clip-path="url(#p2e4f2ac7da)">
     <use style="fill:#578e9b;stroke:#578e9b;stroke-width:0.3;" x="345.361863" xlink:href="#C0_0_29bf80312f" y="377.169343"/>
    </g>
    <g clip-path="url(#p2e4f2ac7da)">
     <use style="fill:#578e9b;stroke:#578e9b;stroke-width:0.3;" x="212.625119" xlink:href="#C0_0_29bf80312f" y="226.642654"/>
    </g>
    <g clip-path="url(#p2e4f2ac7da)">
     <use style="fill:#578e9b;stroke:#578e9b;stroke-width:0.3;" x="260.624195" xlink:href="#C0_0_29bf80312f" y="334.044387"/>
    </g>
    <g clip-path="url(#p2e4f2ac7da)">
     <use style="fill:#578e9b;stroke:#578e9b;stroke-width:0.3;" x="212.911066" xlink:href="#C0_0_29bf80312f" y="373.604715"/>
    </g>
    <g clip-path="url(#p2e4f2ac7da)">
     <use style="fill:#578e9b;stroke:#578e9b;stroke-width:0.3;" x="370.028406" xlink:href="#C0_0_29bf80312f" y="443.384971"/>
    </g>
    <g clip-path="url(#p2e4f2ac7da)">
     <use style="fill:#578e9b;stroke:#578e9b;stroke-width:0.3;" x="222.854083" xlink:href="#C0_0_29bf80312f" y="301.381516"/>
    </g>
    <g clip-path="url(#p2e4f2ac7da)">
     <use style="fill:#578e9b;stroke:#578e9b;stroke-width:0.3;" x="212.57232" xlink:href="#C0_0_29bf80312f" y="219.78162"/>
    </g>
    <g clip-path="url(#p2e4f2ac7da)">
     <use style="fill:#4b6c8e;stroke:#4b6c8e;stroke-width:0.3;" x="453.375093" xlink:href="#C0_0_29bf80312f" y="454.405901"/>
    </g>
    <g clip-path="url(#p2e4f2ac7da)">
     <use style="fill:#4b6c8e;stroke:#4b6c8e;stroke-width:0.3;" x="445.536471" xlink:href="#C0_0_29bf80312f" y="197.314121"/>
    </g>
    <g clip-path="url(#p2e4f2ac7da)">
     <use style="fill:#4b6c8e;stroke:#4b6c8e;stroke-width:0.3;" x="250.893824" xlink:href="#C0_0_29bf80312f" y="123.815632"/>
    </g>
    <g clip-path="url(#p2e4f2ac7da)">
     <use style="fill:#4b6c8e;stroke:#4b6c8e;stroke-width:0.3;" x="356.597359" xlink:href="#C0_0_29bf80312f" y="105.354729"/>
    </g>
    <g clip-path="url(#p2e4f2ac7da)">
     <use style="fill:#4b6c8e;stroke:#4b6c8e;stroke-width:0.3;" x="179.392272" xlink:href="#C0_0_29bf80312f" y="96.831621"/>
    </g>
    <g clip-path="url(#p2e4f2ac7da)">
     <use style="fill:#4b6c8e;stroke:#4b6c8e;stroke-width:0.3;" x="200.332062" xlink:href="#C0_0_29bf80312f" y="113.759132"/>
    </g>
    <g clip-path="url(#p2e4f2ac7da)">
     <use style="fill:#4b6c8e;stroke:#4b6c8e;stroke-width:0.3;" x="129.02235" xlink:href="#C0_0_29bf80312f" y="232.026425"/>
    </g>
   </g>
  </g>
 </g>
 <defs>
  <clipPath id="p2e4f2ac7da">
   <rect height="443.52" width="446.4" x="72" y="69.12"/>
  </clipPath>
 </defs>
</svg>
