<?xml version="1.0" encoding="utf-8" standalone="no"?>
<!DOCTYPE svg PUBLIC "-//W3C//DTD SVG 1.1//EN"
  "http://www.w3.org/Graphics/SVG/1.1/DTD/svg11.dtd">
<!-- Created with matplotlib (http://matplotlib.org/) -->
<svg height="396pt" version="1.1" viewBox="0 0 576 396" width="576pt" xmlns="http://www.w3.org/2000/svg" xmlns:xlink="http://www.w3.org/1999/xlink">
 <defs>
  <style type="text/css">
*{stroke-linecap:butt;stroke-linejoin:round;}
  </style>
 </defs>
 <g id="figure_1">
  <g id="patch_1">
   <path d="M 0 396 
L 576 396 
L 576 0 
L 0 0 
z
" style="fill:#ffffff;"/>
  </g>
  <g id="axes_1">
   <g id="patch_2">
    <path d="M 72 352.44 
L 518.4 352.44 
L 518.4 47.52 
L 72 47.52 
z
" style="fill:#eaeaf2;"/>
   </g>
   <g id="matplotlib.axis_1">
    <g id="xtick_1">
     <g id="line2d_1">
      <path clip-path="url(#pfd4f54ce9e)" d="M 87.15397 352.44 
L 87.15397 47.52 
" style="fill:none;stroke:#ffffff;stroke-linecap:round;"/>
     </g>
     <g id="line2d_2"/>
     <g id="text_1">
      <!-- $0$ -->
      <defs>
       <path d="M 42 31.640625 
C 42 37.75 41.90625 48.125 37.703125 56.109375 
C 34 63.109375 28.09375 65.59375 22.90625 65.59375 
C 18.09375 65.59375 12 63.40625 8.203125 56.203125 
C 4.203125 48.71875 3.796875 39.4375 3.796875 31.640625 
C 3.796875 25.953125 3.90625 17.28125 7 9.671875 
C 11.296875 -0.609375 19 -2 22.90625 -2 
C 27.5 -2 34.5 -0.109375 38.59375 9.375 
C 41.59375 16.28125 42 24.359375 42 31.640625 
z
M 22.90625 -0.40625 
C 16.5 -0.40625 12.703125 5.078125 11.296875 12.6875 
C 10.203125 18.5625 10.203125 27.15625 10.203125 32.75 
C 10.203125 40.4375 10.203125 46.828125 11.5 52.921875 
C 13.40625 61.390625 19 64 22.90625 64 
C 27 64 32.296875 61.296875 34.203125 53.125 
C 35.5 47.4375 35.59375 40.734375 35.59375 32.75 
C 35.59375 26.25 35.59375 18.265625 34.40625 12.375 
C 32.296875 1.484375 26.40625 -0.40625 22.90625 -0.40625 
z
" id="CMR17-48"/>
      </defs>
      <g style="fill:#262626;" transform="translate(84.663302 366.358498)scale(0.1 -0.1)">
       <use transform="scale(0.996264)" xlink:href="#CMR17-48"/>
      </g>
     </g>
    </g>
    <g id="xtick_2">
     <g id="line2d_3">
      <path clip-path="url(#pfd4f54ce9e)" d="M 138.52336 352.44 
L 138.52336 47.52 
" style="fill:none;stroke:#ffffff;stroke-linecap:round;"/>
     </g>
     <g id="line2d_4"/>
     <g id="text_2">
      <!-- $50$ -->
      <defs>
       <path d="M 11.40625 57.6875 
C 12.40625 57.28125 16.5 56 20.703125 56 
C 30 56 35.09375 61.109375 38 64.0625 
C 38 64.953125 38 65.5 37.40625 65.5 
C 37.296875 65.5 37.09375 65.5 36.296875 65.046875 
C 32.796875 63.40625 28.703125 62.078125 23.703125 62.078125 
C 20.703125 62.078125 16.203125 62.484375 11.296875 64.671875 
C 10.203125 65.171875 10 65.171875 9.90625 65.171875 
C 9.40625 65.171875 9.296875 65.0625 9.296875 63.078125 
L 9.296875 34.421875 
C 9.296875 32.640625 9.296875 32.140625 10.296875 32.140625 
C 10.796875 32.140625 11 32.34375 11.5 33.03125 
C 14.703125 37.515625 19.09375 39.40625 24.09375 39.40625 
C 27.59375 39.40625 35.09375 37.21875 35.09375 20.140625 
C 35.09375 16.953125 35.09375 11.171875 32.09375 6.578125 
C 29.59375 2.484375 25.703125 0.390625 21.40625 0.390625 
C 14.796875 0.390625 8.09375 5 6.296875 12.71875 
C 6.703125 12.609375 7.5 12.421875 7.90625 12.421875 
C 9.203125 12.421875 11.703125 13.125 11.703125 16.21875 
C 11.703125 18.90625 9.796875 20 7.90625 20 
C 5.59375 20 4.09375 18.59375 4.09375 15.796875 
C 4.09375 7.09375 11 -2 21.59375 -2 
C 31.90625 -2 41.703125 6.875 41.703125 19.75 
C 41.703125 31.71875 33.90625 41 24.203125 41 
C 19.09375 41 14.796875 39.109375 11.40625 35.53125 
z
" id="CMR17-53"/>
      </defs>
      <g style="fill:#262626;" transform="translate(133.542025 366.358498)scale(0.1 -0.1)">
       <use transform="scale(0.996264)" xlink:href="#CMR17-53"/>
       <use transform="translate(45.690477 0)scale(0.996264)" xlink:href="#CMR17-48"/>
      </g>
     </g>
    </g>
    <g id="xtick_3">
     <g id="line2d_5">
      <path clip-path="url(#pfd4f54ce9e)" d="M 189.89275 352.44 
L 189.89275 47.52 
" style="fill:none;stroke:#ffffff;stroke-linecap:round;"/>
     </g>
     <g id="line2d_6"/>
     <g id="text_3">
      <!-- $100$ -->
      <defs>
       <path d="M 26.59375 63.40625 
C 26.59375 65.5 26.5 65.5 25.09375 65.5 
C 21.203125 61.1875 15.296875 59.796875 9.703125 59.796875 
C 9.40625 59.796875 8.90625 59.796875 8.796875 59.5 
C 8.703125 59.296875 8.703125 59.09375 8.703125 57 
C 11.796875 57 17 57.59375 21 59.984375 
L 21 7.203125 
C 21 3.6875 20.796875 2.5 12.203125 2.5 
L 9.203125 2.5 
L 9.203125 0 
C 14 0 19 0 23.796875 0 
C 28.59375 0 33.59375 0 38.40625 0 
L 38.40625 2.5 
L 35.40625 2.5 
C 26.796875 2.5 26.59375 3.59375 26.59375 7.15625 
z
" id="CMR17-49"/>
      </defs>
      <g style="fill:#262626;" transform="translate(182.420747 366.358498)scale(0.1 -0.1)">
       <use transform="scale(0.996264)" xlink:href="#CMR17-49"/>
       <use transform="translate(45.690477 0)scale(0.996264)" xlink:href="#CMR17-48"/>
       <use transform="translate(91.380954 0)scale(0.996264)" xlink:href="#CMR17-48"/>
      </g>
     </g>
    </g>
    <g id="xtick_4">
     <g id="line2d_7">
      <path clip-path="url(#pfd4f54ce9e)" d="M 241.26214 352.44 
L 241.26214 47.52 
" style="fill:none;stroke:#ffffff;stroke-linecap:round;"/>
     </g>
     <g id="line2d_8"/>
     <g id="text_4">
      <!-- $150$ -->
      <g style="fill:#262626;" transform="translate(233.790138 366.358498)scale(0.1 -0.1)">
       <use transform="scale(0.996264)" xlink:href="#CMR17-49"/>
       <use transform="translate(45.690477 0)scale(0.996264)" xlink:href="#CMR17-53"/>
       <use transform="translate(91.380954 0)scale(0.996264)" xlink:href="#CMR17-48"/>
      </g>
     </g>
    </g>
    <g id="xtick_5">
     <g id="line2d_9">
      <path clip-path="url(#pfd4f54ce9e)" d="M 292.63153 352.44 
L 292.63153 47.52 
" style="fill:none;stroke:#ffffff;stroke-linecap:round;"/>
     </g>
     <g id="line2d_10"/>
     <g id="text_5">
      <!-- $200$ -->
      <defs>
       <path d="M 41.703125 15.453125 
L 39.90625 15.453125 
C 38.90625 8.375 38.09375 7.171875 37.703125 6.5625 
C 37.203125 5.765625 30 5.765625 28.59375 5.765625 
L 9.40625 5.765625 
C 13 9.671875 20 16.75 28.5 24.953125 
C 34.59375 30.734375 41.703125 37.53125 41.703125 47.421875 
C 41.703125 59.21875 32.296875 66 21.796875 66 
C 10.796875 66 4.09375 56.3125 4.09375 47.34375 
C 4.09375 43.4375 7 42.9375 8.203125 42.9375 
C 9.203125 42.9375 12.203125 43.546875 12.203125 47.03125 
C 12.203125 50.109375 9.59375 51 8.203125 51 
C 7.59375 51 7 50.90625 6.59375 50.703125 
C 8.5 59.21875 14.296875 63.40625 20.40625 63.40625 
C 29.09375 63.40625 34.796875 56.515625 34.796875 47.421875 
C 34.796875 38.734375 29.703125 31.25 24 24.75 
L 4.09375 2.28125 
L 4.09375 0 
L 39.296875 0 
z
" id="CMR17-50"/>
      </defs>
      <g style="fill:#262626;" transform="translate(285.159528 366.358498)scale(0.1 -0.1)">
       <use transform="scale(0.996264)" xlink:href="#CMR17-50"/>
       <use transform="translate(45.690477 0)scale(0.996264)" xlink:href="#CMR17-48"/>
       <use transform="translate(91.380954 0)scale(0.996264)" xlink:href="#CMR17-48"/>
      </g>
     </g>
    </g>
    <g id="xtick_6">
     <g id="line2d_11">
      <path clip-path="url(#pfd4f54ce9e)" d="M 344.000921 352.44 
L 344.000921 47.52 
" style="fill:none;stroke:#ffffff;stroke-linecap:round;"/>
     </g>
     <g id="line2d_12"/>
     <g id="text_6">
      <!-- $250$ -->
      <g style="fill:#262626;" transform="translate(336.528918 366.358498)scale(0.1 -0.1)">
       <use transform="scale(0.996264)" xlink:href="#CMR17-50"/>
       <use transform="translate(45.690477 0)scale(0.996264)" xlink:href="#CMR17-53"/>
       <use transform="translate(91.380954 0)scale(0.996264)" xlink:href="#CMR17-48"/>
      </g>
     </g>
    </g>
    <g id="xtick_7">
     <g id="line2d_13">
      <path clip-path="url(#pfd4f54ce9e)" d="M 395.370311 352.44 
L 395.370311 47.52 
" style="fill:none;stroke:#ffffff;stroke-linecap:round;"/>
     </g>
     <g id="line2d_14"/>
     <g id="text_7">
      <!-- $300$ -->
      <defs>
       <path d="M 22.09375 33.703125 
C 31 33.703125 34.90625 25.96875 34.90625 17.03125 
C 34.90625 5 28.5 0.390625 22.703125 0.390625 
C 17.40625 0.390625 8.796875 3.03125 6.09375 10.828125 
C 6.59375 10.625 7.09375 10.625 7.59375 10.625 
C 10 10.625 11.796875 12.21875 11.796875 14.8125 
C 11.796875 17.703125 9.59375 19 7.59375 19 
C 5.90625 19 3.296875 18.203125 3.296875 14.46875 
C 3.296875 5.234375 12.296875 -2 22.90625 -2 
C 34 -2 42.5 6.71875 42.5 16.953125 
C 42.5 26.671875 34.5 33.703125 25 34.796875 
C 32.59375 36.375 39.90625 43.0625 39.90625 52.015625 
C 39.90625 59.6875 32 65.296875 23 65.296875 
C 13.90625 65.296875 5.90625 59.828125 5.90625 52.015625 
C 5.90625 48.59375 8.5 48 9.796875 48 
C 11.90625 48 13.703125 49.296875 13.703125 51.890625 
C 13.703125 54.46875 11.90625 55.765625 9.796875 55.765625 
C 9.40625 55.765625 8.90625 55.765625 8.5 55.578125 
C 11.40625 61.859375 19.296875 63 22.796875 63 
C 26.296875 63 32.90625 61.328125 32.90625 51.875 
C 32.90625 49.109375 32.5 44.1875 29.09375 39.84375 
C 26.09375 36 22.703125 36 19.40625 35.6875 
C 18.90625 35.6875 16.59375 35.453125 16.203125 35.453125 
C 15.5 35.359375 15.09375 35.265625 15.09375 34.5 
C 15.09375 33.796875 15.203125 33.703125 17.203125 33.703125 
z
" id="CMR17-51"/>
      </defs>
      <g style="fill:#262626;" transform="translate(387.898308 366.358498)scale(0.1 -0.1)">
       <use transform="scale(0.996264)" xlink:href="#CMR17-51"/>
       <use transform="translate(45.690477 0)scale(0.996264)" xlink:href="#CMR17-48"/>
       <use transform="translate(91.380954 0)scale(0.996264)" xlink:href="#CMR17-48"/>
      </g>
     </g>
    </g>
    <g id="xtick_8">
     <g id="line2d_15">
      <path clip-path="url(#pfd4f54ce9e)" d="M 446.739701 352.44 
L 446.739701 47.52 
" style="fill:none;stroke:#ffffff;stroke-linecap:round;"/>
     </g>
     <g id="line2d_16"/>
     <g id="text_8">
      <!-- $350$ -->
      <g style="fill:#262626;" transform="translate(439.267698 366.358498)scale(0.1 -0.1)">
       <use transform="scale(0.996264)" xlink:href="#CMR17-51"/>
       <use transform="translate(45.690477 0)scale(0.996264)" xlink:href="#CMR17-53"/>
       <use transform="translate(91.380954 0)scale(0.996264)" xlink:href="#CMR17-48"/>
      </g>
     </g>
    </g>
    <g id="xtick_9">
     <g id="line2d_17">
      <path clip-path="url(#pfd4f54ce9e)" d="M 498.109091 352.44 
L 498.109091 47.52 
" style="fill:none;stroke:#ffffff;stroke-linecap:round;"/>
     </g>
     <g id="line2d_18"/>
     <g id="text_9">
      <!-- $400$ -->
      <defs>
       <path d="M 33.59375 64.40625 
C 33.59375 66.5 33.5 66.5 31.703125 66.5 
L 2 19.59375 
L 2 17 
L 27.796875 17 
L 27.796875 7.140625 
C 27.796875 3.5 27.59375 2.5 20.59375 2.5 
L 18.703125 2.5 
L 18.703125 0 
C 21.90625 0 27.296875 0 30.703125 0 
C 34.09375 0 39.5 0 42.703125 0 
L 42.703125 2.5 
L 40.796875 2.5 
C 33.796875 2.5 33.59375 3.5 33.59375 7.140625 
L 33.59375 17 
L 43.796875 17 
L 43.796875 19.59375 
L 33.59375 19.59375 
z
M 28.09375 57.859375 
L 28.09375 19.59375 
L 4 19.59375 
z
" id="CMR17-52"/>
      </defs>
      <g style="fill:#262626;" transform="translate(490.637088 366.358498)scale(0.1 -0.1)">
       <use transform="scale(0.996264)" xlink:href="#CMR17-52"/>
       <use transform="translate(45.690477 0)scale(0.996264)" xlink:href="#CMR17-48"/>
       <use transform="translate(91.380954 0)scale(0.996264)" xlink:href="#CMR17-48"/>
      </g>
     </g>
    </g>
    <g id="text_10">
     <!-- Iterações -->
     <defs>
      <path d="M 17.09375 69 
L 8.703125 69 
L 8.703125 0 
L 17.09375 0 
z
" id="CMSS17-73"/>
      <path d="M 16.703125 37 
L 29.703125 37 
L 29.703125 42.765625 
L 16.703125 42.765625 
L 16.703125 55 
L 9.59375 55 
L 9.59375 42.765625 
L 1.703125 42.765625 
L 1.703125 37 
L 9.40625 37 
L 9.40625 11.703125 
C 9.40625 6 10.703125 -1 17.296875 -1 
C 22.296875 -1 26.90625 0.390625 31.296875 2.6875 
L 29.703125 8.5625 
C 27.296875 6.46875 24.40625 5.265625 21.296875 5.265625 
C 16.90625 5.265625 16.703125 10.875 16.703125 13.375 
z
" id="CMSS17-116"/>
      <path d="M 39.09375 21.515625 
C 39.09375 24.84375 38.90625 31.296875 35.703125 36.640625 
C 32.203125 42.390625 26.5 44 22.203125 44 
C 11.796875 44 3 34.1875 3 21.484375 
C 3 9.09375 12.09375 -1 23.59375 -1 
C 28.09375 -1 33.59375 0.296875 38.59375 3.875 
C 38.59375 4.28125 38.40625 6.46875 38.296875 6.5625 
C 38.296875 6.765625 38 9.84375 38 10.25 
C 33.203125 6.359375 27.703125 5.078125 23.703125 5.078125 
C 17.296875 5.078125 10.40625 10.421875 10.09375 21.515625 
z
M 10.90625 27 
C 12.203125 32.5625 16.59375 37.828125 22.203125 37.828125 
C 23.703125 37.828125 30.703125 37.828125 32.5 27 
z
" id="CMSS17-101"/>
      <path d="M 14.90625 21.296875 
C 14.90625 30.703125 21.796875 37 30.59375 37 
L 30.59375 43.578125 
C 24.203125 43.578125 18.203125 40.390625 14.59375 35.203125 
L 14.59375 43.09375 
L 7.5 43.09375 
L 7.5 0 
L 14.90625 0 
z
" id="CMSS17-114"/>
      <path d="M 37.59375 27.984375 
C 37.59375 37.375 30.90625 43.875 21.90625 43.875 
C 17.5 43.875 12.703125 43.078125 7.203125 39.890625 
L 7.796875 33.359375 
C 10.296875 35.125 14.59375 38 21.796875 38 
C 26.90625 38 30 34.0625 30 27.84375 
L 30 24 
C 14 24 4 19.34375 4 11.34375 
C 4 7.203125 6.5 -1 14.796875 -1 
C 16.296875 -1 24.40625 -1 30.203125 3.390625 
L 30.203125 -0.296875 
L 37.59375 -0.296875 
z
M 30 12.75 
C 30 10.953125 30 8.5625 27 6.78125 
C 24.40625 5.078125 21.09375 5.078125 19.703125 5.078125 
C 14.703125 5.078125 11.296875 7.984375 11.296875 11.625 
C 11.296875 18.921875 26.90625 18.921875 30 18.921875 
z
" id="CMSS17-97"/>
      <path d="M 26.5 -2.5 
L 20.40625 -2.5 
L 13.5 -19 
L 20.296875 -19 
z
" id="CMSS17-24"/>
      <path d="M 38.5 39.703125 
C 38.5 40.390625 33.90625 42.40625 32.703125 42.796875 
C 29.40625 44 25.203125 44 24.09375 44 
C 11.09375 44 3.296875 32.703125 3.296875 21.296875 
C 3.296875 9.296875 12 -1 23.703125 -1 
C 30.40625 -1 35.203125 1.1875 39.09375 3.78125 
L 38.5 10.375 
C 34.203125 7.078125 29.203125 5.265625 23.796875 5.265625 
C 16 5.265625 10.90625 12.09375 10.90625 21.390625 
C 10.90625 28.609375 14.203125 37.71875 24.203125 37.71875 
C 29.703125 37.71875 32.796875 36.609375 37.40625 33.515625 
z
" id="CMSS17-99"/>
      <path d="M 33 66 
C 33 63.46875 32.40625 60.078125 29.59375 60.078125 
C 28.09375 60.078125 26.296875 60.921875 24.296875 62.515625 
C 21.59375 64.53125 19.703125 66 17 66 
C 12.90625 66 8 62.109375 7.796875 54 
L 13.90625 54 
C 13.90625 56.53125 14.5 59.921875 17.296875 59.921875 
C 18.796875 59.921875 20.59375 59.078125 22.59375 57.5 
C 25.296875 55.5 27.203125 54 29.90625 54 
C 34 54 38.90625 57.890625 39.09375 66 
z
" id="CMSS17-126"/>
      <path d="M 44.203125 21.1875 
C 44.203125 34 34.703125 44 23.5 44 
C 12 44 2.703125 33.703125 2.703125 21.1875 
C 2.703125 8.5 12.296875 -1 23.40625 -1 
C 34.796875 -1 44.203125 8.796875 44.203125 21.1875 
z
M 23.5 5.265625 
C 16.40625 5.265625 10.296875 11.078125 10.296875 22 
C 10.296875 33.609375 17.40625 37.921875 23.40625 37.921875 
C 29.90625 37.921875 36.59375 33.21875 36.59375 22 
C 36.59375 10.671875 30.09375 5.265625 23.5 5.265625 
z
" id="CMSS17-111"/>
      <path d="M 32.203125 41.046875 
C 26.296875 43.859375 21.703125 43.859375 18.703125 43.859375 
C 11.59375 43.859375 3.09375 41.375 3.09375 31.296875 
C 3.09375 21.234375 14.09375 19.03125 17.09375 18.421875 
C 21.703125 17.53125 26.796875 16.53125 26.796875 11.5625 
C 26.796875 5.265625 19.59375 5.265625 18.296875 5.265625 
C 14.296875 5.265625 8.796875 6.359375 3.796875 9.96875 
L 2.59375 3.28125 
C 8.296875 0 13.796875 -1 18.40625 -1 
C 30.703125 -1 33.796875 6.5 33.796875 12.203125 
C 33.796875 17.09375 31 20.390625 29.09375 21.890625 
C 25.796875 24.5 24.59375 24.796875 16.40625 26.5 
C 15 26.703125 10.09375 27.796875 10.09375 32.28125 
C 10.09375 38 16.40625 38 17.796875 38 
C 24.296875 38 28.296875 35.984375 31 34.5 
z
" id="CMSS17-115"/>
     </defs>
     <g style="fill:#262626;" transform="translate(275.04775 379.906023)scale(0.11 -0.11)">
      <use transform="scale(0.996264)" xlink:href="#CMSS17-73"/>
      <use transform="translate(25.783926 0)scale(0.996264)" xlink:href="#CMSS17-116"/>
      <use transform="translate(59.615492 0)scale(0.996264)" xlink:href="#CMSS17-101"/>
      <use transform="translate(101.254314 0)scale(0.996264)" xlink:href="#CMSS17-114"/>
      <use transform="translate(133.164087 0)scale(0.996264)" xlink:href="#CMSS17-97"/>
      <use transform="translate(178.086007 0)scale(0.996264)" xlink:href="#CMSS17-24"/>
      <use transform="translate(178.086007 0)scale(0.996264)" xlink:href="#CMSS17-99"/>
      <use transform="translate(219.724829 0)scale(0.996264)" xlink:href="#CMSS17-126"/>
      <use transform="translate(219.724829 0)scale(0.996264)" xlink:href="#CMSS17-111"/>
      <use transform="translate(266.568453 0)scale(0.996264)" xlink:href="#CMSS17-101"/>
      <use transform="translate(308.207275 0)scale(0.996264)" xlink:href="#CMSS17-115"/>
     </g>
    </g>
   </g>
   <g id="matplotlib.axis_2">
    <g id="ytick_1">
     <g id="line2d_19">
      <path clip-path="url(#pfd4f54ce9e)" d="M 72 295.867634 
L 518.4 295.867634 
" style="fill:none;stroke:#ffffff;stroke-linecap:round;"/>
     </g>
     <g id="line2d_20"/>
     <g id="text_11">
      <!-- $0.2$ -->
      <defs>
       <path d="M 18.40625 4.796875 
C 18.40625 7.6875 16 9.671875 13.59375 9.671875 
C 10.703125 9.671875 8.703125 7.28125 8.703125 4.890625 
C 8.703125 2 11.09375 0 13.5 0 
C 16.40625 0 18.40625 2.390625 18.40625 4.796875 
z
" id="CMMI12-58"/>
      </defs>
      <g style="fill:#262626;" transform="translate(52.269921 299.326883)scale(0.1 -0.1)">
       <use transform="scale(0.996264)" xlink:href="#CMR17-48"/>
       <use transform="translate(45.690477 0)scale(0.996264)" xlink:href="#CMMI12-58"/>
       <use transform="translate(72.787654 0)scale(0.996264)" xlink:href="#CMR17-50"/>
      </g>
     </g>
    </g>
    <g id="ytick_2">
     <g id="line2d_21">
      <path clip-path="url(#pfd4f54ce9e)" d="M 72 231.942545 
L 518.4 231.942545 
" style="fill:none;stroke:#ffffff;stroke-linecap:round;"/>
     </g>
     <g id="line2d_22"/>
     <g id="text_12">
      <!-- $0.4$ -->
      <g style="fill:#262626;" transform="translate(52.269921 235.401794)scale(0.1 -0.1)">
       <use transform="scale(0.996264)" xlink:href="#CMR17-48"/>
       <use transform="translate(45.690477 0)scale(0.996264)" xlink:href="#CMMI12-58"/>
       <use transform="translate(72.787654 0)scale(0.996264)" xlink:href="#CMR17-52"/>
      </g>
     </g>
    </g>
    <g id="ytick_3">
     <g id="line2d_23">
      <path clip-path="url(#pfd4f54ce9e)" d="M 72 168.017455 
L 518.4 168.017455 
" style="fill:none;stroke:#ffffff;stroke-linecap:round;"/>
     </g>
     <g id="line2d_24"/>
     <g id="text_13">
      <!-- $0.6$ -->
      <defs>
       <path d="M 10.59375 34 
C 10.59375 57.65625 21.796875 63 28.296875 63 
C 30.40625 63 35.5 62.640625 37.5 59 
C 35.90625 59 32.90625 59 32.90625 55.515625 
C 32.90625 52.828125 35.09375 51.921875 36.5 51.921875 
C 37.40625 51.921875 40.09375 52.3125 40.09375 55.625 
C 40.09375 61.78125 35.09375 65.296875 28.203125 65.296875 
C 16.296875 65.296875 3.796875 52.96875 3.796875 31 
C 3.796875 3.953125 15.09375 -2 23.09375 -2 
C 32.796875 -2 42 6.671875 42 20.046875 
C 42 32.515625 33.90625 41.59375 23.703125 41.59375 
C 17.59375 41.59375 13.09375 37.609375 10.59375 30.625 
z
M 23.09375 0.390625 
C 10.796875 0.390625 10.796875 18.75 10.796875 22.4375 
C 10.796875 29.625 14.203125 40 23.5 40 
C 25.203125 40 30.09375 40 33.40625 33.125 
C 35.203125 29.21875 35.203125 25.140625 35.203125 20.140625 
C 35.203125 14.75 35.203125 10.78125 33.09375 6.78125 
C 30.90625 2.671875 27.703125 0.390625 23.09375 0.390625 
z
" id="CMR17-54"/>
      </defs>
      <g style="fill:#262626;" transform="translate(52.269921 171.476704)scale(0.1 -0.1)">
       <use transform="scale(0.996264)" xlink:href="#CMR17-48"/>
       <use transform="translate(45.690477 0)scale(0.996264)" xlink:href="#CMMI12-58"/>
       <use transform="translate(72.787654 0)scale(0.996264)" xlink:href="#CMR17-54"/>
      </g>
     </g>
    </g>
    <g id="ytick_4">
     <g id="line2d_25">
      <path clip-path="url(#pfd4f54ce9e)" d="M 72 104.092366 
L 518.4 104.092366 
" style="fill:none;stroke:#ffffff;stroke-linecap:round;"/>
     </g>
     <g id="line2d_26"/>
     <g id="text_14">
      <!-- $0.8$ -->
      <defs>
       <path d="M 27.203125 35.375 
C 33.5 38.546875 39.90625 43.328125 39.90625 50.984375 
C 39.90625 60.015625 31.09375 65.296875 23 65.296875 
C 13.90625 65.296875 5.90625 58.734375 5.90625 49.6875 
C 5.90625 47.203125 6.5 42.921875 10.40625 39.140625 
C 11.40625 38.15625 15.59375 35.171875 18.296875 33.28125 
C 13.796875 30.984375 3.296875 25.53125 3.296875 14.59375 
C 3.296875 4.359375 13.09375 -2 22.796875 -2 
C 33.5 -2 42.5 5.65625 42.5 15.78125 
C 42.5 24.84375 36.40625 29.015625 32.40625 31.703125 
z
M 14.09375 44.09375 
C 13.296875 44.59375 9.296875 47.671875 9.296875 52.359375 
C 9.296875 58.421875 15.59375 63 22.796875 63 
C 30.703125 63 36.5 57.4375 36.5 50.96875 
C 36.5 41.703125 26.09375 36.421875 25.59375 36.421875 
C 25.5 36.421875 25.40625 36.421875 24.59375 37.03125 
z
M 32.5 23.734375 
C 34 22.640625 38.796875 19.375 38.796875 13.296875 
C 38.796875 5.953125 31.40625 0.390625 23 0.390625 
C 13.90625 0.390625 7 6.84375 7 14.6875 
C 7 22.546875 13.09375 29.09375 20 32.1875 
z
" id="CMR17-56"/>
      </defs>
      <g style="fill:#262626;" transform="translate(52.269921 107.551615)scale(0.1 -0.1)">
       <use transform="scale(0.996264)" xlink:href="#CMR17-48"/>
       <use transform="translate(45.690477 0)scale(0.996264)" xlink:href="#CMMI12-58"/>
       <use transform="translate(72.787654 0)scale(0.996264)" xlink:href="#CMR17-56"/>
      </g>
     </g>
    </g>
    <g id="text_15">
     <!-- Risco -->
     <defs>
      <path d="M 39.40625 32.953125 
L 39.59375 33.046875 
C 55.203125 38.421875 55.296875 49.171875 55.296875 51.0625 
C 55.296875 60.515625 45.703125 69.578125 31.296875 69.578125 
L 8.90625 69.578125 
L 8.90625 0.5 
L 17.09375 0.5 
L 17.09375 32 
L 31.796875 32 
L 49.5 0.5 
L 57.90625 0.5 
z
M 17.09375 38.078125 
L 17.09375 64 
L 30.203125 64 
C 42.90625 64 47.40625 56.828125 47.40625 51.046875 
C 47.40625 45.65625 43.40625 38.078125 30.203125 38.078125 
z
" id="CMSS17-82"/>
      <path d="M 15.296875 65.359375 
L 6.90625 65.359375 
L 6.90625 57 
L 15.296875 57 
z
M 14.796875 42.796875 
L 7.40625 42.796875 
L 7.40625 0 
L 14.796875 0 
z
" id="CMSS17-105"/>
     </defs>
     <g style="fill:#262626;" transform="translate(46.139026 212.103315)rotate(-90)scale(0.11 -0.11)">
      <use transform="scale(0.996264)" xlink:href="#CMSS17-82"/>
      <use transform="translate(60.416155 0)scale(0.996264)" xlink:href="#CMSS17-105"/>
      <use transform="translate(82.596878 0)scale(0.996264)" xlink:href="#CMSS17-115"/>
      <use transform="translate(118.51042 0)scale(0.996264)" xlink:href="#CMSS17-99"/>
      <use transform="translate(160.149242 0)scale(0.996264)" xlink:href="#CMSS17-111"/>
     </g>
    </g>
   </g>
   <g id="line2d_27">
    <path clip-path="url(#pfd4f54ce9e)" d="M 92.290909 302.909139 
L 97.427848 290.189794 
L 102.564787 259.126909 
L 107.701726 224.662685 
L 112.838665 245.904343 
L 117.975604 237.563846 
L 123.112543 242.514733 
L 128.249482 242.76302 
L 133.386421 232.755285 
L 138.52336 235.409026 
L 143.660299 239.484846 
L 148.797238 244.18119 
L 153.934177 250.714859 
L 159.071116 260.310477 
L 164.208055 271.325046 
L 169.344994 282.342744 
L 174.481933 294.167473 
L 179.618872 302.724976 
L 184.755811 311.689123 
L 189.89275 319.838419 
L 195.029689 328.190645 
L 200.166628 333.690892 
L 205.303567 336.542872 
L 210.440506 336.950297 
L 215.577445 337.357723 
L 220.714384 337.357723 
L 225.851323 337.357723 
L 230.988262 336.746584 
L 236.125201 336.542872 
L 241.26214 336.135446 
L 246.399079 336.135446 
L 251.536018 335.931733 
L 256.672957 335.931733 
L 261.809896 335.931733 
L 266.946835 335.72802 
L 272.083774 335.72802 
L 277.220713 335.524307 
L 282.357652 335.524307 
L 287.494591 335.524307 
L 292.63153 335.524307 
L 297.76847 335.524307 
L 302.905409 335.524307 
L 308.042348 335.524307 
L 313.179287 335.524307 
L 318.316226 335.524307 
L 323.453165 335.524307 
L 328.590104 335.524307 
L 333.727043 335.524307 
L 338.863982 335.524307 
L 344.000921 335.524307 
L 349.13786 335.524307 
L 354.274799 335.524307 
L 359.411738 335.524307 
L 364.548677 335.524307 
L 369.685616 335.524307 
L 374.822555 335.524307 
L 379.959494 335.524307 
L 385.096433 335.524307 
L 390.233372 335.524307 
L 395.370311 335.524307 
L 400.50725 335.524307 
L 405.644189 335.524307 
L 410.781128 335.524307 
L 415.918067 335.524307 
L 421.055006 335.524307 
L 426.191945 335.524307 
L 431.328884 335.524307 
L 436.465823 335.524307 
L 441.602762 335.524307 
L 446.739701 335.524307 
L 451.87664 335.524307 
L 457.013579 335.524307 
L 462.150518 335.524307 
L 467.287457 335.524307 
L 472.424396 335.524307 
L 477.561335 335.524307 
L 482.698274 335.524307 
L 487.835213 335.524307 
L 492.972152 335.524307 
L 498.109091 335.524307 
" style="fill:none;stroke:#66c2a5;stroke-linecap:round;stroke-width:1.7;"/>
   </g>
   <g id="line2d_28">
    <path clip-path="url(#pfd4f54ce9e)" d="M 92.290909 61.38 
L 97.427848 101.159526 
L 102.564787 265.14328 
L 107.701726 302.884896 
L 112.838665 314.922722 
L 117.975604 319.412225 
L 123.112543 319.820432 
L 128.249482 321.655412 
L 133.386421 322.266551 
L 138.52336 322.062838 
L 143.660299 322.470263 
L 148.797238 322.264987 
L 153.934177 322.263423 
L 159.071116 321.648374 
L 164.208055 321.239384 
L 169.344994 321.034889 
L 174.481933 320.218474 
L 179.618872 319.808702 
L 184.755811 320.624336 
L 189.89275 320.420623 
L 195.029689 319.80792 
L 200.166628 317.3532 
L 205.303567 316.538349 
L 210.440506 315.107667 
L 215.577445 316.539131 
L 220.714384 314.903172 
L 225.851323 314.29438 
L 230.988262 313.272687 
L 236.125201 312.659985 
L 241.26214 313.066628 
L 246.399079 311.024026 
L 251.536018 315.108449 
L 256.672957 313.268777 
L 261.809896 313.064282 
L 266.946835 313.268777 
L 272.083774 314.085193 
L 277.220713 315.309034 
L 282.357652 313.674639 
L 287.494591 314.288123 
L 292.63153 314.492618 
L 297.76847 314.288123 
L 302.905409 314.491054 
L 308.042348 314.900826 
L 313.179287 315.512747 
L 318.316226 315.514311 
L 323.453165 315.717241 
L 328.590104 315.718023 
L 333.727043 315.720369 
L 338.863982 315.925646 
L 344.000921 316.944992 
L 349.13786 317.150269 
L 354.274799 317.760626 
L 359.411738 318.575477 
L 364.548677 318.16727 
L 369.685616 318.370982 
L 374.822555 319.392675 
L 379.959494 319.393457 
L 385.096433 319.598733 
L 390.233372 320.211436 
L 395.370311 320.822575 
L 400.50725 321.027851 
L 405.644189 321.231564 
L 410.781128 319.802446 
L 415.918067 321.233128 
L 421.055006 321.439969 
L 426.191945 321.237038 
L 431.328884 321.236256 
L 436.465823 321.848177 
L 441.602762 322.66381 
L 446.739701 323.479444 
L 451.87664 323.889997 
L 457.013579 324.501918 
L 462.150518 324.706413 
L 467.287457 324.504264 
L 472.424396 325.115402 
L 477.561335 325.931818 
L 482.698274 326.545302 
L 487.835213 326.954292 
L 492.972152 327.361718 
L 498.109091 328.177351 
" style="fill:none;stroke:#fc8d62;stroke-linecap:round;stroke-width:1.7;"/>
   </g>
   <g id="line2d_29">
    <path clip-path="url(#pfd4f54ce9e)" d="M 92.290909 176.392907 
L 97.427848 288.383748 
L 102.564787 312.666241 
L 107.701726 304.714402 
L 112.838665 297.794421 
L 117.975604 288.591371 
L 123.112543 287.368312 
L 128.249482 284.705969 
L 133.386421 283.681149 
L 138.52336 283.271377 
L 143.660299 284.699713 
L 148.797238 287.152087 
L 153.934177 291.233382 
L 159.071116 296.739885 
L 164.208055 302.248734 
L 169.344994 308.986898 
L 174.481933 313.882262 
L 179.618872 323.277295 
L 184.755811 328.386538 
L 189.89275 332.059625 
L 195.029689 335.116882 
L 200.166628 335.320595 
L 205.303567 335.524307 
L 210.440506 335.72802 
L 215.577445 335.524307 
L 220.714384 335.524307 
L 225.851323 335.320595 
L 230.988262 335.116882 
L 236.125201 335.116882 
L 241.26214 335.524307 
L 246.399079 335.320595 
L 251.536018 335.320595 
L 256.672957 335.524307 
L 261.809896 335.524307 
L 266.946835 335.524307 
L 272.083774 335.524307 
L 277.220713 335.524307 
L 282.357652 335.524307 
L 287.494591 335.524307 
L 292.63153 335.524307 
L 297.76847 335.524307 
L 302.905409 335.524307 
L 308.042348 335.524307 
L 313.179287 335.524307 
L 318.316226 335.524307 
L 323.453165 335.524307 
L 328.590104 335.524307 
L 333.727043 335.524307 
L 338.863982 335.524307 
L 344.000921 335.524307 
L 349.13786 335.524307 
L 354.274799 335.524307 
L 359.411738 335.524307 
L 364.548677 335.524307 
L 369.685616 335.524307 
L 374.822555 335.524307 
L 379.959494 335.524307 
L 385.096433 335.524307 
L 390.233372 335.524307 
L 395.370311 335.524307 
L 400.50725 335.524307 
L 405.644189 335.524307 
L 410.781128 335.524307 
L 415.918067 335.524307 
L 421.055006 335.524307 
L 426.191945 335.524307 
L 431.328884 335.524307 
L 436.465823 335.524307 
L 441.602762 335.524307 
L 446.739701 335.524307 
L 451.87664 335.524307 
L 457.013579 335.524307 
L 462.150518 335.524307 
L 467.287457 335.524307 
L 472.424396 335.524307 
L 477.561335 335.524307 
L 482.698274 335.524307 
L 487.835213 335.524307 
L 492.972152 335.524307 
L 498.109091 335.524307 
" style="fill:none;stroke:#8da0cb;stroke-linecap:round;stroke-width:1.7;"/>
   </g>
   <g id="line2d_30">
    <path clip-path="url(#pfd4f54ce9e)" d="M 92.290909 191.273329 
L 97.427848 305.119482 
L 102.564787 317.361802 
L 107.701726 317.772356 
L 112.838665 318.999325 
L 117.975604 320.021017 
L 123.112543 321.653066 
L 128.249482 321.041146 
L 133.386421 320.632938 
L 138.52336 320.632938 
L 143.660299 320.630592 
L 148.797238 321.038799 
L 153.934177 320.834305 
L 159.071116 321.036453 
L 164.208055 320.629028 
L 169.344994 321.038017 
L 174.481933 321.242512 
L 179.618872 320.426879 
L 184.755811 320.426879 
L 189.89275 320.630592 
L 195.029689 320.631374 
L 200.166628 320.426879 
L 205.303567 320.223166 
L 210.440506 319.81574 
L 215.577445 320.019453 
L 220.714384 319.81574 
L 225.851323 319.81574 
L 230.988262 319.612028 
L 236.125201 319.407533 
L 241.26214 319.20382 
L 246.399079 319.204602 
L 251.536018 319.409097 
L 256.672957 319.205384 
L 261.809896 319.206166 
L 266.946835 319.409879 
L 272.083774 319.409097 
L 277.220713 319.408315 
L 282.357652 319.408315 
L 287.494591 319.612028 
L 292.63153 319.612028 
L 297.76847 319.612028 
L 302.905409 320.020235 
L 308.042348 319.816522 
L 313.179287 319.816522 
L 318.316226 319.816522 
L 323.453165 320.430007 
L 328.590104 320.226294 
L 333.727043 320.634502 
L 338.863982 320.634502 
L 344.000921 320.634502 
L 349.13786 320.430789 
L 354.274799 320.227076 
L 359.411738 320.227076 
L 364.548677 320.839779 
L 369.685616 321.043492 
L 374.822555 321.043492 
L 379.959494 321.247986 
L 385.096433 321.044274 
L 390.233372 321.859125 
L 395.370311 322.266551 
L 400.50725 322.674758 
L 405.644189 322.878471 
L 410.781128 322.878471 
L 415.918067 323.082966 
L 421.055006 323.491174 
L 426.191945 324.102312 
L 431.328884 324.102312 
L 436.465823 324.509738 
L 441.602762 324.306807 
L 446.739701 326.141787 
L 451.87664 326.549212 
L 457.013579 327.56934 
L 462.150518 328.384974 
L 467.287457 328.384974 
L 472.424396 328.793964 
L 477.561335 328.997676 
L 482.698274 329.201389 
L 487.835213 329.201389 
L 492.972152 329.201389 
L 498.109091 329.201389 
" style="fill:none;stroke:#e78ac3;stroke-linecap:round;stroke-width:1.7;"/>
   </g>
   <g id="line2d_31">
    <path clip-path="url(#pfd4f54ce9e)" d="M 92.290909 315.153023 
L 97.427848 315.153023 
L 102.564787 315.153023 
L 107.701726 315.153023 
L 112.838665 315.153023 
L 117.975604 315.153023 
L 123.112543 315.153023 
L 128.249482 315.153023 
L 133.386421 315.153023 
L 138.52336 315.153023 
L 143.660299 315.153023 
L 148.797238 315.153023 
L 153.934177 315.153023 
L 159.071116 315.153023 
L 164.208055 315.153023 
L 169.344994 315.153023 
L 174.481933 315.153023 
L 179.618872 315.153023 
L 184.755811 315.153023 
L 189.89275 315.153023 
L 195.029689 315.153023 
L 200.166628 315.153023 
L 205.303567 315.153023 
L 210.440506 315.153023 
L 215.577445 315.153023 
L 220.714384 315.153023 
L 225.851323 315.153023 
L 230.988262 315.153023 
L 236.125201 315.153023 
L 241.26214 315.153023 
L 246.399079 315.153023 
L 251.536018 315.153023 
L 256.672957 315.153023 
L 261.809896 315.153023 
L 266.946835 315.153023 
L 272.083774 315.153023 
L 277.220713 315.153023 
L 282.357652 315.153023 
L 287.494591 315.153023 
L 292.63153 315.153023 
L 297.76847 315.153023 
L 302.905409 315.153023 
L 308.042348 315.153023 
L 313.179287 315.153023 
L 318.316226 315.153023 
L 323.453165 315.153023 
L 328.590104 315.153023 
L 333.727043 315.153023 
L 338.863982 315.153023 
L 344.000921 315.153023 
L 349.13786 315.153023 
L 354.274799 315.153023 
L 359.411738 315.153023 
L 364.548677 315.153023 
L 369.685616 315.153023 
L 374.822555 315.153023 
L 379.959494 315.153023 
L 385.096433 315.153023 
L 390.233372 315.153023 
L 395.370311 315.153023 
L 400.50725 315.153023 
L 405.644189 315.153023 
L 410.781128 315.153023 
L 415.918067 315.153023 
L 421.055006 315.153023 
L 426.191945 315.153023 
L 431.328884 315.153023 
L 436.465823 315.153023 
L 441.602762 315.153023 
L 446.739701 315.153023 
L 451.87664 315.153023 
L 457.013579 315.153023 
L 462.150518 315.153023 
L 467.287457 315.153023 
L 472.424396 315.153023 
L 477.561335 315.153023 
L 482.698274 315.153023 
L 487.835213 315.153023 
L 492.972152 315.153023 
L 498.109091 315.153023 
" style="fill:none;stroke:#a6d854;stroke-dasharray:6.29,2.72;stroke-dashoffset:0;stroke-width:1.7;"/>
   </g>
   <g id="line2d_32">
    <path clip-path="url(#pfd4f54ce9e)" d="M 92.290909 338.58 
L 97.427848 338.58 
L 102.564787 338.58 
L 107.701726 338.58 
L 112.838665 338.58 
L 117.975604 338.58 
L 123.112543 338.58 
L 128.249482 338.58 
L 133.386421 338.58 
L 138.52336 338.58 
L 143.660299 338.58 
L 148.797238 338.58 
L 153.934177 338.58 
L 159.071116 338.58 
L 164.208055 338.58 
L 169.344994 338.58 
L 174.481933 338.58 
L 179.618872 338.58 
L 184.755811 338.58 
L 189.89275 338.58 
L 195.029689 338.58 
L 200.166628 338.58 
L 205.303567 338.58 
L 210.440506 338.58 
L 215.577445 338.58 
L 220.714384 338.58 
L 225.851323 338.58 
L 230.988262 338.58 
L 236.125201 338.58 
L 241.26214 338.58 
L 246.399079 338.58 
L 251.536018 338.58 
L 256.672957 338.58 
L 261.809896 338.58 
L 266.946835 338.58 
L 272.083774 338.58 
L 277.220713 338.58 
L 282.357652 338.58 
L 287.494591 338.58 
L 292.63153 338.58 
L 297.76847 338.58 
L 302.905409 338.58 
L 308.042348 338.58 
L 313.179287 338.58 
L 318.316226 338.58 
L 323.453165 338.58 
L 328.590104 338.58 
L 333.727043 338.58 
L 338.863982 338.58 
L 344.000921 338.58 
L 349.13786 338.58 
L 354.274799 338.58 
L 359.411738 338.58 
L 364.548677 338.58 
L 369.685616 338.58 
L 374.822555 338.58 
L 379.959494 338.58 
L 385.096433 338.58 
L 390.233372 338.58 
L 395.370311 338.58 
L 400.50725 338.58 
L 405.644189 338.58 
L 410.781128 338.58 
L 415.918067 338.58 
L 421.055006 338.58 
L 426.191945 338.58 
L 431.328884 338.58 
L 436.465823 338.58 
L 441.602762 338.58 
L 446.739701 338.58 
L 451.87664 338.58 
L 457.013579 338.58 
L 462.150518 338.58 
L 467.287457 338.58 
L 472.424396 338.58 
L 477.561335 338.58 
L 482.698274 338.58 
L 487.835213 338.58 
L 492.972152 338.58 
L 498.109091 338.58 
" style="fill:none;stroke:#ffd92f;stroke-dasharray:6.29,2.72;stroke-dashoffset:0;stroke-width:1.7;"/>
   </g>
   <g id="patch_3">
    <path d="M 72 352.44 
L 72 47.52 
" style="fill:none;"/>
   </g>
   <g id="patch_4">
    <path d="M 518.4 352.44 
L 518.4 47.52 
" style="fill:none;"/>
   </g>
   <g id="patch_5">
    <path d="M 72 352.44 
L 518.4 352.44 
" style="fill:none;"/>
   </g>
   <g id="patch_6">
    <path d="M 72 47.52 
L 518.4 47.52 
" style="fill:none;"/>
   </g>
   <g id="legend_1">
    <g id="line2d_33">
     <path d="M 305.868454 60.02 
L 325.868454 60.02 
" style="fill:none;stroke:#66c2a5;stroke-linecap:round;stroke-width:1.7;"/>
    </g>
    <g id="line2d_34"/>
    <g id="text_16">
     <!-- SVM distribuído com $C = 2^{-15}\;\;\mathrm{e}\;\;c = 1$ -->
     <defs>
      <path d="M 43.703125 65.140625 
C 39.296875 67.71875 34.5 70 26.40625 70 
C 13.5 70 5.203125 60.609375 5.203125 51.03125 
C 5.203125 47.265625 6.296875 43.015625 10.203125 38.671875 
C 14.09375 34.3125 18.5 33.140625 24.09375 31.765625 
C 26.40625 31.15625 30.296875 30.0625 31 29.78125 
C 36.59375 27.609375 39.296875 22.5625 39.296875 17.8125 
C 39.296875 11.59375 34.40625 4.96875 25.703125 4.96875 
C 22.703125 4.96875 13.90625 4.96875 5.59375 12.796875 
L 4.203125 4.96875 
C 12.40625 -1 21.296875 -2 25.796875 -2 
C 38.09375 -2 46.90625 7.625 46.90625 18.53125 
C 46.90625 22.5 45.703125 27.546875 41.5 32.203125 
C 37.40625 36.671875 33.796875 37.65625 25.59375 39.828125 
C 20.90625 41.03125 17.90625 41.828125 15.40625 44.890625 
C 13.703125 47.078125 12.796875 49.15625 12.796875 51.828125 
C 12.796875 57.390625 17.59375 63.4375 26.40625 63.4375 
C 30.796875 63.4375 36.5 62.53125 42.296875 57.1875 
z
" id="CMSS17-83"/>
      <path d="M 61.09375 69 
L 53.296875 69 
L 36 21.28125 
C 35.5 19.890625 32.40625 10.75 31.796875 7.5625 
L 31.703125 7.5625 
C 30.90625 11.34375 27.703125 20.1875 26 25.0625 
L 14.40625 57.375 
L 10.09375 69 
L 1.296875 69 
L 26.796875 0 
L 35.59375 0 
z
" id="CMSS17-86"/>
      <path d="M 49.90625 37.046875 
L 45.09375 23.015625 
C 44.296875 20.421875 41.59375 12.359375 41 9.171875 
L 40.90625 9.171875 
C 40.59375 11.171875 40 13.265625 38.40625 18.34375 
C 37.5 21.328125 36.5 24.40625 35.5 27.203125 
L 20.703125 69 
L 9 69 
L 9 0 
L 16.796875 0 
L 16.796875 60.9375 
L 16.90625 60.9375 
C 16.90625 60.84375 17.796875 56.453125 23.90625 39.046875 
L 37.09375 1.5 
L 44.5 1.5 
L 56.40625 34.859375 
C 57.203125 37.15625 59.703125 44.421875 60.796875 47.90625 
C 61.796875 50.890625 64.296875 58.25 64.90625 61.140625 
L 65 61.140625 
L 65 0 
L 72.90625 0 
L 72.90625 69 
L 61.296875 69 
z
" id="CMSS17-77"/>
      <path d="M 40.796875 69 
L 33.40625 69 
L 33.40625 38.09375 
C 30.296875 40.671875 25.203125 43.0625 19.59375 43.0625 
C 10.5 43.0625 3.296875 33.296875 3.296875 21.046875 
C 3.296875 8.78125 10.40625 -1 19.296875 -1 
C 26.203125 -1 30.796875 2.6875 33.203125 4.78125 
L 33.203125 -0.203125 
L 40.796875 -0.203125 
z
M 33.203125 13.0625 
C 33.203125 11.671875 33.203125 10.203125 30.09375 7.53125 
C 28.09375 5.859375 25.703125 5.078125 23.40625 5.078125 
C 18 5.078125 10.90625 9 10.90625 20.9375 
C 10.90625 33.34375 18.90625 37 24.40625 37 
C 28.09375 37 31.09375 35.21875 33.203125 32.265625 
z
" id="CMSS17-100"/>
      <path d="M 14.90625 69 
L 7.5 69 
L 7.5 -0.203125 
L 15.09375 -0.203125 
L 15.09375 4.28125 
C 18.90625 0.59375 23.5 -1 27.59375 -1 
C 37.203125 -1 45 8.578125 45 21.125 
C 45 32.59375 39 43.0625 30.09375 43.0625 
C 23.796875 43.0625 18.203125 40.484375 14.90625 37.796875 
z
M 15.09375 31.96875 
C 17.296875 34.71875 20.40625 37 24.796875 37 
C 30.703125 37 37.40625 32.765625 37.40625 21.125 
C 37.40625 8.71875 29.40625 5.078125 23.90625 5.078125 
C 21.90625 5.078125 19.796875 5.5625 17.796875 7.25 
C 15.09375 9.609375 15.09375 11.078125 15.09375 12.453125 
z
" id="CMSS17-98"/>
      <path d="M 40.90625 42.796875 
L 33.296875 42.796875 
L 33.296875 15.1875 
C 33.296875 7.78125 27.90625 4.78125 22.203125 4.78125 
C 15.59375 4.78125 15 6.984375 15 11.078125 
L 15 42.796875 
L 7.40625 42.796875 
L 7.40625 10.59375 
C 7.40625 2.796875 10.09375 -1 17 -1 
C 20.40625 -1 28.09375 -0.203125 33.5 4.78125 
L 33.5 0 
L 40.90625 0 
z
" id="CMSS17-117"/>
      <path d="M 39.09375 69.5 
L 31.5 69.5 
L 19.09375 52 
L 25.203125 52 
z
" id="CMSS17-19"/>
      <path d="M 14.796875 42.796875 
L 7.40625 42.796875 
L 7.40625 0 
L 14.796875 0 
z
" id="CMSS17-16"/>
      <path d="M 67 29.328125 
C 67 36.0625 65.296875 44 54.09375 44 
C 46.59375 44 42.09375 39.3125 40.09375 36.421875 
C 38.296875 41.71875 34.09375 44 28.09375 44 
C 21.296875 44 17 40.125 14.703125 37.328125 
L 14.703125 43.09375 
L 7.40625 43.09375 
L 7.40625 0 
L 15 0 
L 15 24.359375 
C 15 30.296875 17.203125 37.9375 24.296875 37.9375 
C 33.40625 37.9375 33.40625 31.5 33.40625 28.578125 
L 33.40625 0 
L 41 0 
L 41 24.359375 
C 41 30.296875 43.203125 37.9375 50.296875 37.9375 
C 59.40625 37.9375 59.40625 31.5 59.40625 28.578125 
L 59.40625 0 
L 67 0 
z
" id="CMSS17-109"/>
      <path d="M 74.703125 69.109375 
C 74.703125 70 74 70 73.796875 70 
C 73.59375 70 73.203125 70 72.40625 69 
L 65.5 60.65625 
C 62 66.625 56.5 70 49 70 
C 27.40625 70 5 48.25 5 24.921875 
C 5 8.328125 16.703125 -2 31.296875 -2 
C 39.296875 -2 46.296875 1.375 52.09375 6.25 
C 60.796875 13.484375 63.40625 23.140625 63.40625 23.921875 
C 63.40625 24.8125 62.59375 24.8125 62.296875 24.8125 
C 61.40625 24.8125 61.296875 24.21875 61.09375 23.8125 
C 56.5 8.34375 43 0.890625 33 0.890625 
C 22.40625 0.890625 13.203125 7.640625 13.203125 21.734375 
C 13.203125 24.921875 14.203125 42.1875 25.5 55.1875 
C 31 61.546875 40.40625 67.109375 49.90625 67.109375 
C 60.90625 67.109375 65.796875 58.078125 65.796875 47.9375 
C 65.796875 45.359375 65.5 43.1875 65.5 42.78125 
C 65.5 41.890625 66.5 41.890625 66.796875 41.890625 
C 67.90625 41.890625 68 41.984375 68.40625 43.765625 
z
" id="CMMI12-67"/>
      <path d="M 64.296875 31.515625 
C 65.796875 31.515625 67.296875 31.515625 67.296875 33.203125 
C 67.296875 35 65.59375 35 63.90625 35 
L 8 35 
C 6.296875 35 4.59375 35 4.59375 33.203125 
C 4.59375 31.515625 6.09375 31.515625 7.59375 31.515625 
z
M 63.90625 14 
C 65.59375 14 67.296875 14 67.296875 15.796875 
C 67.296875 17.484375 65.796875 17.484375 64.296875 17.484375 
L 7.59375 17.484375 
C 6.09375 17.484375 4.59375 17.484375 4.59375 15.796875 
C 4.59375 14 6.296875 14 8 14 
z
" id="CMR17-61"/>
      <path d="M 65.90625 23 
C 67.59375 23 69.40625 23 69.40625 25 
C 69.40625 27 67.59375 27 65.90625 27 
L 11.796875 27 
C 10.09375 27 8.296875 27 8.296875 25 
C 8.296875 23 10.09375 23 11.796875 23 
z
" id="CMSY10-0"/>
      <path d="M 38.09375 23 
C 38.5 23.40625 38.5 23.609375 38.5 24.625 
C 38.5 34.96875 33.09375 44 21.703125 44 
C 11.09375 44 2.703125 33.890625 2.703125 21.609375 
C 2.703125 8.609375 12.203125 -1 22.796875 -1 
C 34 -1 38.40625 9.484375 38.40625 11.5625 
C 38.40625 12.25 37.796875 12.25 37.59375 12.25 
C 36.90625 12.25 36.796875 12.046875 36.40625 10.875 
C 34.203125 4.140625 28.703125 0.796875 23.5 0.796875 
C 19.203125 0.796875 14.90625 3.171875 12.203125 7.5 
C 9.09375 12.546875 9.09375 18.375 9.09375 23 
z
M 9.203125 24.5 
C 9.90625 39.140625 17.59375 42.40625 21.59375 42.40625 
C 28.40625 42.40625 33 35.890625 33.09375 24.5 
z
" id="CMR17-101"/>
      <path d="M 39.09375 37.984375 
C 37.203125 37.984375 36.296875 37.984375 34.90625 36.796875 
C 34.296875 36.296875 33.203125 34.796875 33.203125 33.203125 
C 33.203125 31.203125 34.703125 30 36.59375 30 
C 39 30 41.703125 31.9375 41.703125 35.8125 
C 41.703125 40.4375 37.09375 44 30.203125 44 
C 17.09375 44 4 29.734375 4 15.5625 
C 4 6.890625 9.40625 -1 19.59375 -1 
C 33.203125 -1 41.796875 9.71875 41.796875 11.03125 
C 41.796875 11.625 41.203125 12.125 40.796875 12.125 
C 40.5 12.125 40.40625 12.03125 39.5 11.140625 
C 33.09375 2.53125 23.59375 1 19.796875 1 
C 12.90625 1 10.703125 6.96875 10.703125 11.9375 
C 10.703125 15.4375 12.40625 25.078125 16 31.859375 
C 18.59375 36.53125 24 41.90625 30.296875 41.90625 
C 31.59375 41.90625 37.09375 41.90625 39.09375 37.984375 
z
" id="CMMI12-99"/>
     </defs>
     <g style="fill:#262626;" transform="translate(333.868454 63.52)scale(0.1 -0.1)">
      <use transform="scale(0.996264)" xlink:href="#CMSS17-83"/>
      <use transform="translate(52.048516 0)scale(0.996264)" xlink:href="#CMSS17-86"/>
      <use transform="translate(114.266371 0)scale(0.996264)" xlink:href="#CMSS17-77"/>
      <use transform="translate(227.171514 0)scale(0.996264)" xlink:href="#CMSS17-100"/>
      <use transform="translate(275.376457 0)scale(0.996264)" xlink:href="#CMSS17-105"/>
      <use transform="translate(297.55718 0)scale(0.996264)" xlink:href="#CMSS17-115"/>
      <use transform="translate(333.470722 0)scale(0.996264)" xlink:href="#CMSS17-116"/>
      <use transform="translate(367.302289 0)scale(0.996264)" xlink:href="#CMSS17-114"/>
      <use transform="translate(399.212061 0)scale(0.996264)" xlink:href="#CMSS17-105"/>
      <use transform="translate(421.392784 0)scale(0.996264)" xlink:href="#CMSS17-98"/>
      <use transform="translate(469.597727 0)scale(0.996264)" xlink:href="#CMSS17-117"/>
      <use transform="translate(505.471213 0)scale(0.996264)" xlink:href="#CMSS17-19"/>
      <use transform="translate(517.802671 0)scale(0.996264)" xlink:href="#CMSS17-16"/>
      <use transform="translate(539.983394 0)scale(0.996264)" xlink:href="#CMSS17-100"/>
      <use transform="translate(588.188337 0)scale(0.996264)" xlink:href="#CMSS17-111"/>
      <use transform="translate(666.261073 0)scale(0.996264)" xlink:href="#CMSS17-99"/>
      <use transform="translate(707.899895 0)scale(0.996264)" xlink:href="#CMSS17-111"/>
      <use transform="translate(754.743519 0)scale(0.996264)" xlink:href="#CMSS17-109"/>
      <use transform="translate(860.201886 0)scale(0.996264)" xlink:href="#CMMI12-67"/>
      <use transform="translate(964.822741 0)scale(0.996264)" xlink:href="#CMR17-61"/>
      <use transform="translate(1064.211538 0)scale(0.996264)" xlink:href="#CMR17-50"/>
      <use transform="translate(1109.902015 36.153639)scale(0.697382)" xlink:href="#CMSY10-0"/>
      <use transform="translate(1164.143009 36.153639)scale(0.697382)" xlink:href="#CMR17-49"/>
      <use transform="translate(1196.126191 36.153639)scale(0.697382)" xlink:href="#CMR17-53"/>
      <use transform="translate(1283.955522 0)scale(0.996264)" xlink:href="#CMR17-101"/>
      <use transform="translate(1379.7892 0)scale(0.996264)" xlink:href="#CMMI12-99"/>
      <use transform="translate(1449.446442 0)scale(0.996264)" xlink:href="#CMR17-61"/>
      <use transform="translate(1548.835239 0)scale(0.996264)" xlink:href="#CMR17-49"/>
     </g>
    </g>
    <g id="line2d_35">
     <path d="M 305.868454 73.957178 
L 325.868454 73.957178 
" style="fill:none;stroke:#fc8d62;stroke-linecap:round;stroke-width:1.7;"/>
    </g>
    <g id="line2d_36"/>
    <g id="text_17">
     <!-- SVM distribuído com $C = 2^{-15}\;\;\mathrm{e}\;\;c = 10$ -->
     <g style="fill:#262626;" transform="translate(333.868454 77.457178)scale(0.1 -0.1)">
      <use transform="scale(0.996264)" xlink:href="#CMSS17-83"/>
      <use transform="translate(52.048516 0)scale(0.996264)" xlink:href="#CMSS17-86"/>
      <use transform="translate(114.266371 0)scale(0.996264)" xlink:href="#CMSS17-77"/>
      <use transform="translate(227.171514 0)scale(0.996264)" xlink:href="#CMSS17-100"/>
      <use transform="translate(275.376457 0)scale(0.996264)" xlink:href="#CMSS17-105"/>
      <use transform="translate(297.55718 0)scale(0.996264)" xlink:href="#CMSS17-115"/>
      <use transform="translate(333.470722 0)scale(0.996264)" xlink:href="#CMSS17-116"/>
      <use transform="translate(367.302289 0)scale(0.996264)" xlink:href="#CMSS17-114"/>
      <use transform="translate(399.212061 0)scale(0.996264)" xlink:href="#CMSS17-105"/>
      <use transform="translate(421.392784 0)scale(0.996264)" xlink:href="#CMSS17-98"/>
      <use transform="translate(469.597727 0)scale(0.996264)" xlink:href="#CMSS17-117"/>
      <use transform="translate(505.471213 0)scale(0.996264)" xlink:href="#CMSS17-19"/>
      <use transform="translate(517.802671 0)scale(0.996264)" xlink:href="#CMSS17-16"/>
      <use transform="translate(539.983394 0)scale(0.996264)" xlink:href="#CMSS17-100"/>
      <use transform="translate(588.188337 0)scale(0.996264)" xlink:href="#CMSS17-111"/>
      <use transform="translate(666.261073 0)scale(0.996264)" xlink:href="#CMSS17-99"/>
      <use transform="translate(707.899895 0)scale(0.996264)" xlink:href="#CMSS17-111"/>
      <use transform="translate(754.743519 0)scale(0.996264)" xlink:href="#CMSS17-109"/>
      <use transform="translate(860.201886 0)scale(0.996264)" xlink:href="#CMMI12-67"/>
      <use transform="translate(964.822741 0)scale(0.996264)" xlink:href="#CMR17-61"/>
      <use transform="translate(1064.211538 0)scale(0.996264)" xlink:href="#CMR17-50"/>
      <use transform="translate(1109.902015 36.153639)scale(0.697382)" xlink:href="#CMSY10-0"/>
      <use transform="translate(1164.143009 36.153639)scale(0.697382)" xlink:href="#CMR17-49"/>
      <use transform="translate(1196.126191 36.153639)scale(0.697382)" xlink:href="#CMR17-53"/>
      <use transform="translate(1283.955522 0)scale(0.996264)" xlink:href="#CMR17-101"/>
      <use transform="translate(1379.7892 0)scale(0.996264)" xlink:href="#CMMI12-99"/>
      <use transform="translate(1449.446442 0)scale(0.996264)" xlink:href="#CMR17-61"/>
      <use transform="translate(1548.835239 0)scale(0.996264)" xlink:href="#CMR17-49"/>
      <use transform="translate(1594.525717 0)scale(0.996264)" xlink:href="#CMR17-48"/>
     </g>
    </g>
    <g id="line2d_37">
     <path d="M 305.868454 87.894357 
L 325.868454 87.894357 
" style="fill:none;stroke:#8da0cb;stroke-linecap:round;stroke-width:1.7;"/>
    </g>
    <g id="line2d_38"/>
    <g id="text_18">
     <!-- SVM distribuído com $C = 2^{-5}\;\;\mathrm{e}\;\;c = 1$ -->
     <g style="fill:#262626;" transform="translate(333.868454 91.394357)scale(0.1 -0.1)">
      <use transform="scale(0.996264)" xlink:href="#CMSS17-83"/>
      <use transform="translate(52.048516 0)scale(0.996264)" xlink:href="#CMSS17-86"/>
      <use transform="translate(114.266371 0)scale(0.996264)" xlink:href="#CMSS17-77"/>
      <use transform="translate(227.171514 0)scale(0.996264)" xlink:href="#CMSS17-100"/>
      <use transform="translate(275.376457 0)scale(0.996264)" xlink:href="#CMSS17-105"/>
      <use transform="translate(297.55718 0)scale(0.996264)" xlink:href="#CMSS17-115"/>
      <use transform="translate(333.470722 0)scale(0.996264)" xlink:href="#CMSS17-116"/>
      <use transform="translate(367.302289 0)scale(0.996264)" xlink:href="#CMSS17-114"/>
      <use transform="translate(399.212061 0)scale(0.996264)" xlink:href="#CMSS17-105"/>
      <use transform="translate(421.392784 0)scale(0.996264)" xlink:href="#CMSS17-98"/>
      <use transform="translate(469.597727 0)scale(0.996264)" xlink:href="#CMSS17-117"/>
      <use transform="translate(505.471213 0)scale(0.996264)" xlink:href="#CMSS17-19"/>
      <use transform="translate(517.802671 0)scale(0.996264)" xlink:href="#CMSS17-16"/>
      <use transform="translate(539.983394 0)scale(0.996264)" xlink:href="#CMSS17-100"/>
      <use transform="translate(588.188337 0)scale(0.996264)" xlink:href="#CMSS17-111"/>
      <use transform="translate(666.261073 0)scale(0.996264)" xlink:href="#CMSS17-99"/>
      <use transform="translate(707.899895 0)scale(0.996264)" xlink:href="#CMSS17-111"/>
      <use transform="translate(754.743519 0)scale(0.996264)" xlink:href="#CMSS17-109"/>
      <use transform="translate(860.201886 0)scale(0.996264)" xlink:href="#CMMI12-67"/>
      <use transform="translate(964.822741 0)scale(0.996264)" xlink:href="#CMR17-61"/>
      <use transform="translate(1064.211538 0)scale(0.996264)" xlink:href="#CMR17-50"/>
      <use transform="translate(1109.902015 36.153639)scale(0.697382)" xlink:href="#CMSY10-0"/>
      <use transform="translate(1164.143009 36.153639)scale(0.697382)" xlink:href="#CMR17-53"/>
      <use transform="translate(1251.97234 0)scale(0.996264)" xlink:href="#CMR17-101"/>
      <use transform="translate(1347.806018 0)scale(0.996264)" xlink:href="#CMMI12-99"/>
      <use transform="translate(1417.46326 0)scale(0.996264)" xlink:href="#CMR17-61"/>
      <use transform="translate(1516.852057 0)scale(0.996264)" xlink:href="#CMR17-49"/>
     </g>
    </g>
    <g id="line2d_39">
     <path d="M 305.868454 101.831535 
L 325.868454 101.831535 
" style="fill:none;stroke:#e78ac3;stroke-linecap:round;stroke-width:1.7;"/>
    </g>
    <g id="line2d_40"/>
    <g id="text_19">
     <!-- SVM distribuído com $C = 2^{-5}\;\;\mathrm{e}\;\;c = 10$ -->
     <g style="fill:#262626;" transform="translate(333.868454 105.331535)scale(0.1 -0.1)">
      <use transform="scale(0.996264)" xlink:href="#CMSS17-83"/>
      <use transform="translate(52.048516 0)scale(0.996264)" xlink:href="#CMSS17-86"/>
      <use transform="translate(114.266371 0)scale(0.996264)" xlink:href="#CMSS17-77"/>
      <use transform="translate(227.171514 0)scale(0.996264)" xlink:href="#CMSS17-100"/>
      <use transform="translate(275.376457 0)scale(0.996264)" xlink:href="#CMSS17-105"/>
      <use transform="translate(297.55718 0)scale(0.996264)" xlink:href="#CMSS17-115"/>
      <use transform="translate(333.470722 0)scale(0.996264)" xlink:href="#CMSS17-116"/>
      <use transform="translate(367.302289 0)scale(0.996264)" xlink:href="#CMSS17-114"/>
      <use transform="translate(399.212061 0)scale(0.996264)" xlink:href="#CMSS17-105"/>
      <use transform="translate(421.392784 0)scale(0.996264)" xlink:href="#CMSS17-98"/>
      <use transform="translate(469.597727 0)scale(0.996264)" xlink:href="#CMSS17-117"/>
      <use transform="translate(505.471213 0)scale(0.996264)" xlink:href="#CMSS17-19"/>
      <use transform="translate(517.802671 0)scale(0.996264)" xlink:href="#CMSS17-16"/>
      <use transform="translate(539.983394 0)scale(0.996264)" xlink:href="#CMSS17-100"/>
      <use transform="translate(588.188337 0)scale(0.996264)" xlink:href="#CMSS17-111"/>
      <use transform="translate(666.261073 0)scale(0.996264)" xlink:href="#CMSS17-99"/>
      <use transform="translate(707.899895 0)scale(0.996264)" xlink:href="#CMSS17-111"/>
      <use transform="translate(754.743519 0)scale(0.996264)" xlink:href="#CMSS17-109"/>
      <use transform="translate(860.201886 0)scale(0.996264)" xlink:href="#CMMI12-67"/>
      <use transform="translate(964.822741 0)scale(0.996264)" xlink:href="#CMR17-61"/>
      <use transform="translate(1064.211538 0)scale(0.996264)" xlink:href="#CMR17-50"/>
      <use transform="translate(1109.902015 36.153639)scale(0.697382)" xlink:href="#CMSY10-0"/>
      <use transform="translate(1164.143009 36.153639)scale(0.697382)" xlink:href="#CMR17-53"/>
      <use transform="translate(1251.97234 0)scale(0.996264)" xlink:href="#CMR17-101"/>
      <use transform="translate(1347.806018 0)scale(0.996264)" xlink:href="#CMMI12-99"/>
      <use transform="translate(1417.46326 0)scale(0.996264)" xlink:href="#CMR17-61"/>
      <use transform="translate(1516.852057 0)scale(0.996264)" xlink:href="#CMR17-49"/>
      <use transform="translate(1562.542535 0)scale(0.996264)" xlink:href="#CMR17-48"/>
     </g>
    </g>
    <g id="line2d_41">
     <path d="M 305.868454 115.768713 
L 325.868454 115.768713 
" style="fill:none;stroke:#a6d854;stroke-dasharray:6.29,2.72;stroke-dashoffset:0;stroke-width:1.7;"/>
    </g>
    <g id="line2d_42"/>
    <g id="text_20">
     <!-- SVM Local -->
     <defs>
      <path d="M 26.09375 6.46875 
C 24.90625 6.46875 23.703125 6.46875 22.5 6.46875 
L 17.203125 6.46875 
L 17.203125 69 
L 8.796875 69 
L 8.796875 0 
L 46.90625 0 
L 46.90625 6.46875 
z
" id="CMSS17-76"/>
      <path d="M 14.796875 69 
L 7.40625 69 
L 7.40625 0 
L 14.796875 0 
z
" id="CMSS17-108"/>
     </defs>
     <g style="fill:#262626;" transform="translate(333.868454 119.268713)scale(0.1 -0.1)">
      <use transform="scale(0.996264)" xlink:href="#CMSS17-83"/>
      <use transform="translate(52.048516 0)scale(0.996264)" xlink:href="#CMSS17-86"/>
      <use transform="translate(114.266371 0)scale(0.996264)" xlink:href="#CMSS17-77"/>
      <use transform="translate(227.171514 0)scale(0.996264)" xlink:href="#CMSS17-76"/>
      <use transform="translate(277.858619 0)scale(0.996264)" xlink:href="#CMSS17-111"/>
      <use transform="translate(327.304681 0)scale(0.996264)" xlink:href="#CMSS17-99"/>
      <use transform="translate(368.943503 0)scale(0.996264)" xlink:href="#CMSS17-97"/>
      <use transform="translate(413.865424 0)scale(0.996264)" xlink:href="#CMSS17-108"/>
     </g>
    </g>
    <g id="line2d_43">
     <path d="M 305.868454 129.705892 
L 325.868454 129.705892 
" style="fill:none;stroke:#ffd92f;stroke-dasharray:6.29,2.72;stroke-dashoffset:0;stroke-width:1.7;"/>
    </g>
    <g id="line2d_44"/>
    <g id="text_21">
     <!-- SVM Central -->
     <defs>
      <path d="M 54.703125 11.15625 
C 48 6.671875 44.90625 5.375 36.796875 5.375 
C 22.796875 5.375 14.59375 20.359375 14.59375 34.046875 
C 14.59375 48.625 23 63 37.203125 63 
C 43.59375 63 47.796875 61.21875 52.90625 58.046875 
L 54.296875 65.890625 
C 49.5 68.28125 43.40625 69.375 37.296875 69.375 
C 18.09375 69.375 6.203125 51.8125 6.203125 34.046875 
C 6.203125 14.484375 20.296875 -1 36.296875 -1 
C 44.90625 -1 47.90625 -0.296875 55.296875 4.375 
z
" id="CMSS17-67"/>
      <path d="M 40.90625 29.328125 
C 40.90625 35.671875 39.40625 44 28.09375 44 
C 21.703125 44 17.5 40.71875 14.703125 37.328125 
L 14.703125 43.09375 
L 7.40625 43.09375 
L 7.40625 0 
L 15 0 
L 15 24.359375 
C 15 30.6875 17.40625 37.9375 24.203125 37.9375 
C 33 37.9375 33.296875 32 33.296875 28.578125 
L 33.296875 0 
L 40.90625 0 
z
" id="CMSS17-110"/>
     </defs>
     <g style="fill:#262626;" transform="translate(333.868454 133.205892)scale(0.1 -0.1)">
      <use transform="scale(0.996264)" xlink:href="#CMSS17-83"/>
      <use transform="translate(52.048516 0)scale(0.996264)" xlink:href="#CMSS17-86"/>
      <use transform="translate(114.266371 0)scale(0.996264)" xlink:href="#CMSS17-77"/>
      <use transform="translate(227.171514 0)scale(0.996264)" xlink:href="#CMSS17-67"/>
      <use transform="translate(287.027285 0)scale(0.996264)" xlink:href="#CMSS17-101"/>
      <use transform="translate(328.666107 0)scale(0.996264)" xlink:href="#CMSS17-110"/>
      <use transform="translate(376.871051 0)scale(0.996264)" xlink:href="#CMSS17-116"/>
      <use transform="translate(410.702617 0)scale(0.996264)" xlink:href="#CMSS17-114"/>
      <use transform="translate(442.61239 0)scale(0.996264)" xlink:href="#CMSS17-97"/>
      <use transform="translate(487.53431 0)scale(0.996264)" xlink:href="#CMSS17-108"/>
     </g>
    </g>
   </g>
  </g>
 </g>
 <defs>
  <clipPath id="pfd4f54ce9e">
   <rect height="304.92" width="446.4" x="72" y="47.52"/>
  </clipPath>
 </defs>
</svg>
